CascadiaCode-Regular.ufo
<glyph name="exclam" format="2">
  <advance width="1200"/>
  <unicode hex="0021"/>
  <outline>
    <contour>
      <point x="502" y="456" type="line"/>
      <point x="694" y="456" type="line"/>
      <point x="704" y="1430" type="line"/>
      <point x="496" y="1430" type="line"/>
    </contour>
    <component base="period"/>
  </outline>
</glyph>
<glyph name="numbersign" format="2">
  <advance width="1200"/>
  <unicode hex="0023"/>
  <outline>
    <contour>
      <point x="690" y="0" type="line"/>
      <point x="866" y="0" type="line"/>
      <point x="986" y="1420" type="line"/>
      <point x="810" y="1420" type="line"/>
    </contour>
    <contour>
      <point x="120" y="360" type="line"/>
      <point x="1120" y="360" type="line"/>
      <point x="1120" y="530" type="line"/>
      <point x="120" y="530" type="line"/>
    </contour>
    <contour>
      <point x="254" y="0" type="line"/>
      <point x="430" y="0" type="line"/>
      <point x="550" y="1420" type="line"/>
      <point x="374" y="1420" type="line"/>
    </contour>
    <contour>
      <point x="120" y="890" type="line"/>
      <point x="1120" y="890" type="line"/>
      <point x="1120" y="1060" type="line"/>
      <point x="120" y="1060" type="line"/>
    </contour>
  </outline>
</glyph>
<glyph name="dollar" format="2">
  <advance width="1200"/>
  <unicode hex="0024"/>
  <outline>
    <contour>
      <point x="544" y="-320" type="line"/>
      <point x="682" y="-320" type="line"/>
      <point x="682" y="1740" type="line"/>
      <point x="544" y="1740" type="line"/>
    </contour>
    <component base="S"/>
  </outline>
</glyph>
<glyph name="percent" format="2">
  <advance width="1200"/>
  <unicode hex="0025"/>
  <outline>
    <contour>
      <point x="186" y="306" type="line"/>
      <point x="1116" y="976" type="line"/>
      <point x="1024" y="1106" type="line"/>
      <point x="94" y="442" type="line"/>
    </contour>
    <contour>
      <point x="854" y="-20" type="curve" smooth="yes"/>
      <point x="1042" y="-20"/>
      <point x="1166" y="108"/>
      <point x="1166" y="302" type="curve" smooth="yes"/>
      <point x="1166" y="498"/>
      <point x="1042" y="626"/>
      <point x="854" y="626" type="curve" smooth="yes"/>
      <point x="664" y="626"/>
      <point x="540" y="498"/>
      <point x="540" y="302" type="curve" smooth="yes"/>
      <point x="540" y="108"/>
      <point x="664" y="-20"/>
    </contour>
    <contour>
      <point x="854" y="148" type="curve" smooth="yes"/>
      <point x="776" y="148"/>
      <point x="726" y="210"/>
      <point x="726" y="302" type="curve" smooth="yes"/>
      <point x="726" y="396"/>
      <point x="776" y="458"/>
      <point x="854" y="458" type="curve" smooth="yes"/>
      <point x="930" y="458"/>
      <point x="980" y="396"/>
      <point x="980" y="302" type="curve" smooth="yes"/>
      <point x="980" y="210"/>
      <point x="930" y="148"/>
    </contour>
    <contour>
      <point x="368" y="794" type="curve" smooth="yes"/>
      <point x="556" y="794"/>
      <point x="680" y="922"/>
      <point x="680" y="1116" type="curve" smooth="yes"/>
      <point x="680" y="1316"/>
      <point x="556" y="1440"/>
      <point x="368" y="1440" type="curve" smooth="yes"/>
      <point x="178" y="1440"/>
      <point x="54" y="1312"/>
      <point x="54" y="1116" type="curve" smooth="yes"/>
      <point x="54" y="922"/>
      <point x="178" y="794"/>
    </contour>
    <contour>
      <point x="368" y="962" type="curve" smooth="yes"/>
      <point x="290" y="962"/>
      <point x="240" y="1024"/>
      <point x="240" y="1116" type="curve" smooth="yes"/>
      <point x="240" y="1212"/>
      <point x="290" y="1274"/>
      <point x="368" y="1274" type="curve" smooth="yes"/>
      <point x="444" y="1274"/>
      <point x="494" y="1212"/>
      <point x="494" y="1116" type="curve" smooth="yes"/>
      <point x="494" y="1024"/>
      <point x="444" y="962"/>
    </contour>
  </outline>
</glyph>
<glyph name="ampersand" format="2">
  <advance width="1200"/>
  <unicode hex="0026"/>
  <outline>
    <contour>
      <point x="962" y="0" type="line"/>
      <point x="1224" y="0" type="line"/>
      <point x="566" y="750" type="line" smooth="yes"/>
      <point x="476" y="852"/>
      <point x="422" y="942"/>
      <point x="422" y="1040" type="curve" smooth="yes"/>
      <point x="422" y="1178"/>
      <point x="492" y="1256"/>
      <point x="614" y="1256" type="curve"/>
      <point x="610" y="1440" type="line"/>
      <point x="350" y="1440"/>
      <point x="202" y="1296"/>
      <point x="202" y="1042" type="curve" smooth="yes"/>
      <point x="202" y="900"/>
      <point x="272" y="757"/>
      <point x="446" y="566" type="curve" smooth="yes"/>
    </contour>
    <contour>
      <point x="462" y="-20" type="curve" smooth="yes"/>
      <point x="862" y="-20"/>
      <point x="1092" y="266"/>
      <point x="1092" y="766" type="curve"/>
      <point x="900" y="766" type="line"/>
      <point x="900" y="382"/>
      <point x="750" y="164"/>
      <point x="486" y="164" type="curve" smooth="yes"/>
      <point x="348" y="164"/>
      <point x="258" y="240"/>
      <point x="258" y="354" type="curve" smooth="yes"/>
      <point x="258" y="484"/>
      <point x="362" y="580"/>
      <point x="546" y="616" type="curve"/>
      <point x="436" y="738" type="line"/>
      <point x="194" y="702"/>
      <point x="56" y="558"/>
      <point x="56" y="344" type="curve" smooth="yes"/>
      <point x="56" y="124"/>
      <point x="218" y="-20"/>
    </contour>
    <contour>
      <point x="776" y="1122" type="curve"/>
      <point x="990" y="1122" type="line"/>
      <point x="990" y="1324"/>
      <point x="851" y="1440"/>
      <point x="610" y="1440" type="curve"/>
      <point x="614" y="1256" type="line"/>
      <point x="717" y="1256"/>
      <point x="776" y="1208"/>
    </contour>
  </outline>
</glyph>
<glyph name="quotesingle" format="2">
  <advance width="1200"/>
  <unicode hex="0027"/>
  <outline>
    <contour>
      <point x="502" y="780" type="line"/>
      <point x="694" y="780" type="line"/>
      <point x="714" y="1420" type="line"/>
      <point x="482" y="1420" type="line"/>
    </contour>
  </outline>
</glyph>
<glyph name="parenleft" format="2">
  <advance width="1200"/>
  <unicode hex="0028"/>
  <outline>
    <contour>
      <point x="950" y="-220" type="curve" smooth="yes"/>
      <point x="998" y="-220" type="line"/>
      <point x="978" y="-50" type="line"/>
      <point x="970" y="-50" type="line" smooth="yes"/>
      <point x="648" y="-50"/>
      <point x="466" y="230"/>
      <point x="466" y="716" type="curve" smooth="yes"/>
      <point x="466" y="1194"/>
      <point x="648" y="1470"/>
      <point x="970" y="1470" type="curve" smooth="yes"/>
      <point x="978" y="1470" type="line"/>
      <point x="998" y="1640" type="line"/>
      <point x="950" y="1640" type="line" smooth="yes"/>
      <point x="516" y="1640"/>
      <point x="266" y="1304"/>
      <point x="266" y="716" type="curve" smooth="yes"/>
      <point x="266" y="120"/>
      <point x="516" y="-220"/>
    </contour>
  </outline>
</glyph>
<glyph name="parenright" format="2">
  <advance width="1200"/>
  <unicode hex="0029"/>
  <outline>
    <contour>
      <point x="202" y="-220" type="line"/>
      <point x="250" y="-220" type="line" smooth="yes"/>
      <point x="684" y="-220"/>
      <point x="934" y="120"/>
      <point x="934" y="716" type="curve" smooth="yes"/>
      <point x="934" y="1304"/>
      <point x="684" y="1640"/>
      <point x="250" y="1640" type="curve" smooth="yes"/>
      <point x="202" y="1640" type="line"/>
      <point x="222" y="1470" type="line"/>
      <point x="230" y="1470" type="line" smooth="yes"/>
      <point x="552" y="1470"/>
      <point x="734" y="1194"/>
      <point x="734" y="716" type="curve" smooth="yes"/>
      <point x="734" y="230"/>
      <point x="552" y="-50"/>
      <point x="230" y="-50" type="curve" smooth="yes"/>
      <point x="222" y="-50" type="line"/>
    </contour>
  </outline>
</glyph>
<glyph name="asterisk" format="2">
  <advance width="1200"/>
  <unicode hex="002A"/>
  <outline>
    <contour>
      <point x="826" y="258" type="line"/>
      <point x="992" y="398" type="line"/>
      <point x="656" y="744" type="line"/>
      <point x="544" y="648" type="line"/>
    </contour>
    <contour>
      <point x="374" y="258" type="line"/>
      <point x="656" y="648" type="line"/>
      <point x="544" y="744" type="line"/>
      <point x="208" y="398" type="line"/>
    </contour>
    <contour>
      <point x="574" y="626" type="line"/>
      <point x="626" y="766" type="line"/>
      <point x="186" y="962" type="line"/>
      <point x="112" y="758" type="line"/>
    </contour>
    <contour>
      <point x="526" y="696" type="line"/>
      <point x="674" y="696" type="line"/>
      <point x="708" y="1176" type="line"/>
      <point x="492" y="1176" type="line"/>
    </contour>
    <contour>
      <point x="626" y="626" type="line"/>
      <point x="1088" y="758" type="line"/>
      <point x="1014" y="962" type="line"/>
      <point x="574" y="766" type="line"/>
    </contour>
  </outline>
</glyph>
<glyph name="plus" format="2">
  <advance width="1200"/>
  <unicode hex="002B"/>
  <outline>
    <contour>
      <point x="504" y="190" type="line"/>
      <point x="696" y="190" type="line"/>
      <point x="696" y="1228" type="line"/>
      <point x="504" y="1228" type="line"/>
    </contour>
    <contour>
      <point x="100" y="617" type="line"/>
      <point x="1100" y="617" type="line"/>
      <point x="1100" y="803" type="line"/>
      <point x="100" y="803" type="line"/>
    </contour>
  </outline>
</glyph>
<glyph name="comma" format="2">
  <advance width="1200"/>
  <unicode hex="002C"/>
  <outline>
    <contour>
      <point x="402" y="-386" type="line"/>
      <point x="594" y="-386" type="line"/>
      <point x="714" y="254" type="line"/>
      <point x="482" y="254" type="line"/>
    </contour>
  </outline>
</glyph>
<glyph name="period" format="2">
  <advance width="1200"/>
  <unicode hex="002E"/>
  <outline>
    <contour>
      <point x="600" y="-20" type="curve" smooth="yes"/>
      <point x="682" y="-20"/>
      <point x="748" y="46"/>
      <point x="748" y="128" type="curve" smooth="yes"/>
      <point x="748" y="210"/>
      <point x="682" y="276"/>
      <point x="600" y="276" type="curve" smooth="yes"/>
      <point x="518" y="276"/>
      <point x="452" y="210"/>
      <point x="452" y="128" type="curve" smooth="yes"/>
      <point x="452" y="46"/>
      <point x="518" y="-20"/>
    </contour>
  </outline>
</glyph>
<glyph name="slash" format="2">
  <advance width="1200"/>
  <unicode hex="002F"/>
  <outline>
    <contour>
      <point x="84" y="-280" type="line"/>
      <point x="286" y="-280" type="line"/>
      <point x="1100" y="1520" type="line"/>
      <point x="898" y="1520" type="line"/>
    </contour>
  </outline>
</glyph>
<glyph name="zero" format="2">
  <advance width="1200"/>
  <unicode hex="0030"/>
  <outline>
    <contour>
      <point x="600" y="-20" type="curve" smooth="yes"/>
      <point x="922" y="-20"/>
      <point x="1084" y="218"/>
      <point x="1084" y="700" type="curve" smooth="yes"/>
      <point x="1084" y="1194"/>
      <point x="922" y="1440"/>
      <point x="600" y="1440" type="curve" smooth="yes"/>
      <point x="278" y="1440"/>
      <point x="116" y="1194"/>
      <point x="116" y="700" type="curve" smooth="yes"/>
      <point x="116" y="218"/>
      <point x="278" y="-20"/>
    </contour>
    <contour>
      <point x="600" y="550" type="curve" smooth="yes"/>
      <point x="690" y="550"/>
      <point x="750" y="610"/>
      <point x="750" y="700" type="curve" smooth="yes"/>
      <point x="750" y="790"/>
      <point x="690" y="850"/>
      <point x="600" y="850" type="curve" smooth="yes"/>
      <point x="510" y="850"/>
      <point x="450" y="790"/>
      <point x="450" y="700" type="curve" smooth="yes"/>
      <point x="450" y="610"/>
      <point x="510" y="550"/>
    </contour>
    <contour>
      <point x="600" y="164" type="curve" smooth="yes"/>
      <point x="420" y="164"/>
      <point x="330" y="342"/>
      <point x="330" y="700" type="curve" smooth="yes"/>
      <point x="330" y="1072"/>
      <point x="420" y="1256"/>
      <point x="600" y="1256" type="curve" smooth="yes"/>
      <point x="780" y="1256"/>
      <point x="870" y="1072"/>
      <point x="870" y="700" type="curve" smooth="yes"/>
      <point x="870" y="342"/>
      <point x="780" y="164"/>
    </contour>
  </outline>
</glyph>
<glyph name="one" format="2">
  <advance width="1200"/>
  <unicode hex="0031"/>
  <outline>
    <contour>
      <point x="524" y="0" type="line"/>
      <point x="736" y="0" type="line"/>
      <point x="736" y="1420" type="line"/>
      <point x="524" y="1420" type="line"/>
    </contour>
    <contour>
      <point x="170" y="0" type="line"/>
      <point x="544" y="0" type="line"/>
      <point x="544" y="186" type="line"/>
      <point x="170" y="186" type="line"/>
    </contour>
    <contour>
      <point x="716" y="0" type="line"/>
      <point x="1052" y="0" type="line"/>
      <point x="1052" y="186" type="line"/>
      <point x="716" y="186" type="line"/>
    </contour>
    <contour>
      <point x="190" y="1148" type="line"/>
      <point x="524" y="1224" type="line"/>
      <point x="524" y="1420" type="line"/>
      <point x="190" y="1340" type="line"/>
    </contour>
  </outline>
</glyph>
<glyph name="two" format="2">
  <advance width="1200"/>
  <unicode hex="0032"/>
  <outline>
    <contour>
      <point x="172" y="0" type="line"/>
      <point x="484" y="0" type="line"/>
      <point x="484" y="216" type="line"/>
      <point x="856" y="460"/>
      <point x="1036" y="724"/>
      <point x="1036" y="1012" type="curve" smooth="yes"/>
      <point x="1036" y="1300"/>
      <point x="886" y="1440"/>
      <point x="588" y="1440" type="curve" smooth="yes"/>
      <point x="310" y="1440"/>
      <point x="150" y="1302"/>
      <point x="150" y="1062" type="curve"/>
      <point x="364" y="1062" type="line"/>
      <point x="364" y="1186"/>
      <point x="440" y="1256"/>
      <point x="574" y="1256" type="curve" smooth="yes"/>
      <point x="738" y="1256"/>
      <point x="822" y="1172"/>
      <point x="822" y="1002" type="curve" smooth="yes"/>
      <point x="822" y="726"/>
      <point x="608" y="464"/>
      <point x="172" y="224" type="curve"/>
    </contour>
    <contour>
      <point x="232" y="0" type="line"/>
      <point x="1096" y="0" type="line"/>
      <point x="1096" y="186" type="line"/>
      <point x="232" y="186" type="line"/>
    </contour>
  </outline>
</glyph>
<glyph name="three" format="2">
  <advance width="1200"/>
  <unicode hex="0033"/>
  <outline>
    <contour>
      <point x="604" y="-20" type="curve" smooth="yes"/>
      <point x="916" y="-20"/>
      <point x="1094" y="126"/>
      <point x="1094" y="380" type="curve" smooth="yes"/>
      <point x="1094" y="610"/>
      <point x="934" y="748"/>
      <point x="702" y="766" type="curve" smooth="yes"/>
      <point x="396" y="790" type="line"/>
      <point x="420" y="660" type="line"/>
      <point x="452" y="660" type="line" smooth="yes"/>
      <point x="724" y="660"/>
      <point x="880" y="566"/>
      <point x="880" y="400" type="curve" smooth="yes"/>
      <point x="880" y="250"/>
      <point x="776" y="164"/>
      <point x="596" y="164" type="curve" smooth="yes"/>
      <point x="422" y="164"/>
      <point x="336" y="242"/>
      <point x="336" y="398" type="curve"/>
      <point x="122" y="398" type="line"/>
      <point x="122" y="118"/>
      <point x="284" y="-20"/>
    </contour>
    <contour>
      <point x="420" y="660" type="line"/>
      <point x="758" y="660" type="line"/>
      <point x="758" y="780" type="line"/>
      <point x="934" y="826"/>
      <point x="1054" y="956"/>
      <point x="1054" y="1122" type="curve" smooth="yes"/>
      <point x="1054" y="1326"/>
      <point x="900" y="1440"/>
      <point x="628" y="1440" type="curve" smooth="yes"/>
      <point x="326" y="1440"/>
      <point x="152" y="1302"/>
      <point x="152" y="1062" type="curve"/>
      <point x="366" y="1062" type="line"/>
      <point x="366" y="1186"/>
      <point x="452" y="1256"/>
      <point x="606" y="1256" type="curve" smooth="yes"/>
      <point x="756" y="1256"/>
      <point x="840" y="1188"/>
      <point x="840" y="1072" type="curve" smooth="yes"/>
      <point x="840" y="932"/>
      <point x="708" y="828"/>
      <point x="396" y="790" type="curve"/>
    </contour>
  </outline>
</glyph>
<glyph name="four" format="2">
  <advance width="1200"/>
  <unicode hex="0034"/>
  <outline>
    <contour>
      <point x="74" y="318" type="line"/>
      <point x="288" y="318" type="line"/>
      <point x="490" y="1340" type="line"/>
      <point x="274" y="1340" type="line"/>
    </contour>
    <contour>
      <point x="74" y="318" type="line"/>
      <point x="798" y="318" type="line"/>
      <point x="798" y="504" type="line"/>
      <point x="214" y="504" type="line"/>
    </contour>
    <contour>
      <point x="966" y="318" type="line"/>
      <point x="1120" y="318" type="line"/>
      <point x="1120" y="504" type="line"/>
      <point x="966" y="504" type="line"/>
    </contour>
    <contour>
      <point x="778" y="0" type="line"/>
      <point x="986" y="0" type="line"/>
      <point x="986" y="1420" type="line"/>
      <point x="778" y="1420" type="line"/>
    </contour>
  </outline>
</glyph>
<glyph name="five" format="2">
  <advance width="1200"/>
  <unicode hex="0035"/>
  <outline>
    <contour>
      <point x="614" y="-20" type="curve" smooth="yes"/>
      <point x="919" y="-20"/>
      <point x="1094" y="154"/>
      <point x="1094" y="458" type="curve" smooth="yes"/>
      <point x="1094" y="756"/>
      <point x="937" y="926"/>
      <point x="662" y="926" type="curve" smooth="yes"/>
      <point x="557" y="926"/>
      <point x="453" y="910"/>
      <point x="348" y="850" type="curve"/>
      <point x="330" y="680" type="line"/>
      <point x="411" y="724"/>
      <point x="498" y="746"/>
      <point x="592" y="746" type="curve" smooth="yes"/>
      <point x="778" y="746"/>
      <point x="884" y="641"/>
      <point x="884" y="458" type="curve" smooth="yes"/>
      <point x="884" y="271"/>
      <point x="787" y="164"/>
      <point x="616" y="164" type="curve" smooth="yes"/>
      <point x="443" y="164"/>
      <point x="346" y="250"/>
      <point x="346" y="398" type="curve"/>
      <point x="132" y="398" type="line"/>
      <point x="132" y="132"/>
      <point x="307" y="-20"/>
    </contour>
    <contour>
      <point x="218" y="680" type="line"/>
      <point x="330" y="680" type="line"/>
      <point x="424" y="804" type="line"/>
      <point x="444" y="1420" type="line"/>
      <point x="238" y="1420" type="line"/>
    </contour>
    <contour>
      <point x="334" y="1234" type="line"/>
      <point x="1004" y="1234" type="line"/>
      <point x="1004" y="1420" type="line"/>
      <point x="316" y="1420" type="line"/>
    </contour>
  </outline>
</glyph>
<glyph name="six" format="2">
  <advance width="1200"/>
  <unicode hex="0036"/>
  <outline>
    <contour>
      <point x="340" y="272" type="line"/>
      <point x="340" y="666" type="line" smooth="yes"/>
      <point x="340" y="1030"/>
      <point x="548" y="1218"/>
      <point x="974" y="1236" type="curve"/>
      <point x="954" y="1426" type="line"/>
      <point x="390" y="1398"/>
      <point x="118" y="1116"/>
      <point x="118" y="574" type="curve" smooth="yes"/>
      <point x="118" y="526" type="line"/>
    </contour>
    <contour>
      <point x="618" y="-20" type="curve" smooth="yes"/>
      <point x="916" y="-20"/>
      <point x="1084" y="156"/>
      <point x="1084" y="460" type="curve" smooth="yes"/>
      <point x="1084" y="740"/>
      <point x="944" y="900"/>
      <point x="696" y="900" type="curve" smooth="yes"/>
      <point x="524" y="900"/>
      <point x="398" y="816"/>
      <point x="358" y="668" type="curve"/>
      <point x="284" y="668" type="line"/>
      <point x="284" y="408" type="line"/>
      <point x="118" y="526" type="line"/>
      <point x="118" y="178"/>
      <point x="298" y="-20"/>
    </contour>
    <contour>
      <point x="620" y="164" type="curve" smooth="yes"/>
      <point x="434" y="164"/>
      <point x="340" y="256"/>
      <point x="340" y="440" type="curve" smooth="yes"/>
      <point x="340" y="616"/>
      <point x="436" y="716"/>
      <point x="606" y="716" type="curve" smooth="yes"/>
      <point x="776" y="716"/>
      <point x="870" y="624"/>
      <point x="870" y="460" type="curve" smooth="yes"/>
      <point x="870" y="272"/>
      <point x="780" y="164"/>
    </contour>
  </outline>
</glyph>
<glyph name="seven" format="2">
  <advance width="1200"/>
  <unicode hex="0037"/>
  <outline>
    <contour>
      <point x="432" y="0" type="line"/>
      <point x="666" y="0" type="line"/>
      <point x="1154" y="1420" type="line"/>
      <point x="920" y="1420" type="line"/>
    </contour>
    <contour>
      <point x="112" y="922" type="line"/>
      <point x="322" y="922" type="line"/>
      <point x="322" y="1390" type="line"/>
      <point x="112" y="1390" type="line"/>
    </contour>
    <contour>
      <point x="112" y="1224" type="line"/>
      <point x="1012" y="1224" type="line"/>
      <point x="1154" y="1420" type="line"/>
      <point x="112" y="1420" type="line"/>
    </contour>
  </outline>
</glyph>
<glyph name="eight" format="2">
  <advance width="1200"/>
  <unicode hex="0038"/>
  <outline>
    <contour>
      <point x="600" y="-20" type="curve" smooth="yes"/>
      <point x="908" y="-20"/>
      <point x="1084" y="130"/>
      <point x="1084" y="390" type="curve" smooth="yes"/>
      <point x="1084" y="628"/>
      <point x="908" y="764"/>
      <point x="600" y="764" type="curve" smooth="yes"/>
      <point x="292" y="764"/>
      <point x="116" y="628"/>
      <point x="116" y="390" type="curve" smooth="yes"/>
      <point x="116" y="130"/>
      <point x="292" y="-20"/>
    </contour>
    <contour>
      <point x="600" y="164" type="curve" smooth="yes"/>
      <point x="428" y="164"/>
      <point x="330" y="250"/>
      <point x="330" y="400" type="curve" smooth="yes"/>
      <point x="330" y="560"/>
      <point x="428" y="654"/>
      <point x="600" y="654" type="curve" smooth="yes"/>
      <point x="772" y="654"/>
      <point x="870" y="560"/>
      <point x="870" y="400" type="curve" smooth="yes"/>
      <point x="870" y="250"/>
      <point x="772" y="164"/>
    </contour>
    <contour>
      <point x="434" y="706" type="line"/>
      <point x="768" y="706" type="line"/>
      <point x="768" y="808" type="line"/>
      <point x="434" y="808" type="line"/>
    </contour>
    <contour>
      <point x="600" y="846" type="curve" smooth="yes"/>
      <point x="454" y="846"/>
      <point x="370" y="918"/>
      <point x="370" y="1040" type="curve" smooth="yes"/>
      <point x="370" y="1178"/>
      <point x="454" y="1256"/>
      <point x="600" y="1256" type="curve" smooth="yes"/>
      <point x="746" y="1256"/>
      <point x="830" y="1178"/>
      <point x="830" y="1040" type="curve" smooth="yes"/>
      <point x="830" y="918"/>
      <point x="746" y="846"/>
    </contour>
    <contour>
      <point x="600" y="746" type="curve" smooth="yes"/>
      <point x="882" y="746"/>
      <point x="1044" y="868"/>
      <point x="1044" y="1080" type="curve" smooth="yes"/>
      <point x="1044" y="1308"/>
      <point x="882" y="1440"/>
      <point x="600" y="1440" type="curve" smooth="yes"/>
      <point x="318" y="1440"/>
      <point x="156" y="1308"/>
      <point x="156" y="1080" type="curve" smooth="yes"/>
      <point x="156" y="868"/>
      <point x="318" y="746"/>
    </contour>
  </outline>
</glyph>
<glyph name="nine" format="2">
  <advance width="1200"/>
  <unicode hex="0039"/>
  <outline>
    <contour>
      <point x="504" y="506" type="curve" smooth="yes"/>
      <point x="676" y="506"/>
      <point x="802" y="590"/>
      <point x="842" y="738" type="curve"/>
      <point x="916" y="738" type="line"/>
      <point x="1082" y="920" type="line"/>
      <point x="1082" y="1267"/>
      <point x="931" y="1426"/>
      <point x="602" y="1426" type="curve" smooth="yes"/>
      <point x="297" y="1426"/>
      <point x="116" y="1248"/>
      <point x="116" y="946" type="curve" smooth="yes"/>
      <point x="116" y="666"/>
      <point x="256" y="506"/>
    </contour>
    <contour>
      <point x="246" y="-20" type="line"/>
      <point x="810" y="8"/>
      <point x="1082" y="290"/>
      <point x="1082" y="832" type="curve" smooth="yes"/>
      <point x="1082" y="920" type="line"/>
      <point x="860" y="854" type="line"/>
      <point x="860" y="740" type="line" smooth="yes"/>
      <point x="860" y="376"/>
      <point x="652" y="188"/>
      <point x="226" y="170" type="curve"/>
    </contour>
    <contour>
      <point x="579" y="690" type="curve" smooth="yes"/>
      <point x="416" y="690"/>
      <point x="326" y="782"/>
      <point x="326" y="946" type="curve" smooth="yes"/>
      <point x="326" y="1132"/>
      <point x="426" y="1242"/>
      <point x="595" y="1242" type="curve" smooth="yes"/>
      <point x="767" y="1242"/>
      <point x="868" y="1139"/>
      <point x="868" y="966" type="curve" smooth="yes"/>
      <point x="868" y="790"/>
      <point x="764" y="690"/>
    </contour>
  </outline>
</glyph>
<glyph name="colon" format="2">
  <advance width="1200"/>
  <unicode hex="003A"/>
  <outline>
    <contour>
      <point x="600" y="784" type="curve" smooth="yes"/>
      <point x="682" y="784"/>
      <point x="748" y="850"/>
      <point x="748" y="932" type="curve" smooth="yes"/>
      <point x="748" y="1014"/>
      <point x="682" y="1080"/>
      <point x="600" y="1080" type="curve" smooth="yes"/>
      <point x="518" y="1080"/>
      <point x="452" y="1014"/>
      <point x="452" y="932" type="curve" smooth="yes"/>
      <point x="452" y="850"/>
      <point x="518" y="784"/>
    </contour>
    <contour>
      <point x="600" y="-20" type="curve" smooth="yes"/>
      <point x="682" y="-20"/>
      <point x="748" y="46"/>
      <point x="748" y="128" type="curve" smooth="yes"/>
      <point x="748" y="210"/>
      <point x="682" y="276"/>
      <point x="600" y="276" type="curve" smooth="yes"/>
      <point x="518" y="276"/>
      <point x="452" y="210"/>
      <point x="452" y="128" type="curve" smooth="yes"/>
      <point x="452" y="46"/>
      <point x="518" y="-20"/>
    </contour>
  </outline>
</glyph>
<glyph name="semicolon" format="2">
  <advance width="1200"/>
  <unicode hex="003B"/>
  <outline>
    <contour>
      <point x="600" y="784" type="curve" smooth="yes"/>
      <point x="682" y="784"/>
      <point x="748" y="850"/>
      <point x="748" y="932" type="curve" smooth="yes"/>
      <point x="748" y="1014"/>
      <point x="682" y="1080"/>
      <point x="600" y="1080" type="curve" smooth="yes"/>
      <point x="518" y="1080"/>
      <point x="452" y="1014"/>
      <point x="452" y="932" type="curve" smooth="yes"/>
      <point x="452" y="850"/>
      <point x="518" y="784"/>
    </contour>
    <component base="comma"/>
  </outline>
</glyph>
<glyph name="less" format="2">
  <advance width="1200"/>
  <unicode hex="003C"/>
  <outline>
    <contour>
      <point x="1054" y="214" type="line"/>
      <point x="1054" y="434" type="line"/>
      <point x="314" y="700" type="line"/>
      <point x="314" y="718" type="line"/>
      <point x="1054" y="984" type="line"/>
      <point x="1054" y="1204" type="line"/>
      <point x="96" y="810" type="line"/>
      <point x="96" y="608" type="line"/>
    </contour>
  </outline>
</glyph>
<glyph name="equal" format="2">
  <advance width="1200"/>
  <unicode hex="003D"/>
  <outline>
    <contour>
      <point x="100" y="866" type="line"/>
      <point x="1100" y="866" type="line"/>
      <point x="1100" y="1052" type="line"/>
      <point x="100" y="1052" type="line"/>
    </contour>
    <contour>
      <point x="100" y="366" type="line"/>
      <point x="1100" y="366" type="line"/>
      <point x="1100" y="552" type="line"/>
      <point x="100" y="552" type="line"/>
    </contour>
  </outline>
</glyph>
<glyph name="greater" format="2">
  <advance width="1200"/>
  <unicode hex="003E"/>
  <outline>
    <contour>
      <point x="146" y="214" type="line"/>
      <point x="1104" y="608" type="line"/>
      <point x="1104" y="810" type="line"/>
      <point x="146" y="1204" type="line"/>
      <point x="146" y="984" type="line"/>
      <point x="846" y="718" type="line"/>
      <point x="846" y="700" type="line"/>
      <point x="146" y="434" type="line"/>
    </contour>
  </outline>
</glyph>
<glyph name="question" format="2">
  <advance width="1200"/>
  <unicode hex="003F"/>
  <outline>
    <contour>
      <point x="500" y="456" type="line"/>
      <point x="696" y="456" type="line"/>
      <point x="696" y="538" type="line" smooth="yes"/>
      <point x="696" y="616"/>
      <point x="738" y="682"/>
      <point x="824" y="738" type="curve" smooth="yes"/>
      <point x="972" y="836"/>
      <point x="1046" y="960"/>
      <point x="1046" y="1112" type="curve" smooth="yes"/>
      <point x="1046" y="1320"/>
      <point x="892" y="1440"/>
      <point x="626" y="1440" type="curve" smooth="yes"/>
      <point x="354" y="1440"/>
      <point x="198" y="1302"/>
      <point x="198" y="1062" type="curve"/>
      <point x="400" y="1062" type="line"/>
      <point x="400" y="1182"/>
      <point x="482" y="1250"/>
      <point x="624" y="1250" type="curve" smooth="yes"/>
      <point x="752" y="1250"/>
      <point x="826" y="1196"/>
      <point x="826" y="1102" type="curve" smooth="yes"/>
      <point x="826" y="1006"/>
      <point x="772" y="924"/>
      <point x="664" y="854" type="curve" smooth="yes"/>
      <point x="554" y="784"/>
      <point x="500" y="684"/>
      <point x="500" y="552" type="curve" smooth="yes"/>
    </contour>
    <component base="period" xOffset="2"/>
  </outline>
</glyph>
<glyph name="at" format="2">
  <advance width="1200"/>
  <unicode hex="0040"/>
  <outline>
    <contour>
      <point x="710" y="-243" type="curve" smooth="yes"/>
      <point x="792" y="-243"/>
      <point x="850" y="-236"/>
      <point x="907" y="-218" type="curve"/>
      <point x="907" y="-38" type="line"/>
      <point x="855" y="-56"/>
      <point x="796" y="-63"/>
      <point x="710" y="-63" type="curve" smooth="yes"/>
      <point x="406" y="-63"/>
      <point x="276" y="134"/>
      <point x="276" y="598" type="curve" smooth="yes"/>
      <point x="276" y="1040"/>
      <point x="390" y="1259"/>
      <point x="620" y="1259" type="curve" smooth="yes"/>
      <point x="804" y="1259"/>
      <point x="900" y="1135"/>
      <point x="900" y="887" type="curve" smooth="yes"/>
      <point x="900" y="769"/>
      <point x="900" y="667"/>
      <point x="900" y="524" type="curve"/>
      <point x="1072" y="524" type="line"/>
      <point x="1072" y="669"/>
      <point x="1072" y="773"/>
      <point x="1072" y="893" type="curve" smooth="yes"/>
      <point x="1072" y="1258"/>
      <point x="921" y="1439"/>
      <point x="620" y="1439" type="curve" smooth="yes"/>
      <point x="278" y="1439"/>
      <point x="108" y="1160"/>
      <point x="108" y="598" type="curve" smooth="yes"/>
      <point x="108" y="8"/>
      <point x="288" y="-243"/>
    </contour>
    <contour>
      <point x="676" y="148" type="curve" smooth="yes"/>
      <point x="786" y="148"/>
      <point x="864" y="232"/>
      <point x="888" y="380" type="curve"/>
      <point x="962" y="380" type="line"/>
      <point x="962" y="857" type="line"/>
      <point x="888" y="857" type="line"/>
      <point x="858" y="1005"/>
      <point x="780" y="1089"/>
      <point x="678" y="1089" type="curve" smooth="yes"/>
      <point x="498" y="1089"/>
      <point x="396" y="935"/>
      <point x="396" y="619" type="curve" smooth="yes"/>
      <point x="396" y="320"/>
      <point x="498" y="148"/>
    </contour>
    <contour>
      <point x="734" y="338" type="curve" smooth="yes"/>
      <point x="634" y="338"/>
      <point x="576" y="440"/>
      <point x="576" y="619" type="curve" smooth="yes"/>
      <point x="576" y="814"/>
      <point x="638" y="899"/>
      <point x="748" y="899" type="curve" smooth="yes"/>
      <point x="846" y="899"/>
      <point x="900" y="799"/>
      <point x="900" y="570" type="curve" smooth="yes"/>
      <point x="900" y="422"/>
      <point x="840" y="338"/>
    </contour>
    <contour>
      <point x="900" y="168" type="line"/>
      <point x="1072" y="168" type="line"/>
      <point x="1072" y="769" type="line"/>
      <point x="900" y="769" type="line"/>
    </contour>
  </outline>
</glyph>
<glyph name="A" format="2">
  <advance width="1200"/>
  <unicode hex="0041"/>
  <outline>
    <contour>
      <point x="42" y="0" type="line"/>
      <point x="252" y="0" type="line"/>
      <point x="588" y="1248" type="line"/>
      <point x="606" y="1248" type="line"/>
      <point x="942" y="0" type="line"/>
      <point x="1152" y="0" type="line"/>
      <point x="742" y="1420" type="line"/>
      <point x="452" y="1420" type="line"/>
    </contour>
    <contour>
      <point x="232" y="346" type="line"/>
      <point x="952" y="346" type="line"/>
      <point x="952" y="536" type="line"/>
      <point x="232" y="536" type="line"/>
    </contour>
  </outline>
</glyph>
<glyph name="B" format="2">
  <advance width="1200"/>
  <unicode hex="0042"/>
  <anchor x="560" y="0" name="bottom"/>
  <anchor x="560" y="1420" name="top"/>
  <outline>
    <contour>
      <point x="354" y="0" type="line"/>
      <point x="704" y="0" type="line" smooth="yes"/>
      <point x="978" y="0"/>
      <point x="1134" y="142"/>
      <point x="1134" y="390" type="curve" smooth="yes"/>
      <point x="1134" y="616"/>
      <point x="970" y="746"/>
      <point x="682" y="746" type="curve" smooth="yes"/>
      <point x="334" y="746" type="line"/>
      <point x="358" y="655" type="line"/>
      <point x="632" y="655" type="line" smooth="yes"/>
      <point x="818" y="655"/>
      <point x="924" y="569"/>
      <point x="924" y="420" type="curve" smooth="yes"/>
      <point x="924" y="274"/>
      <point x="822" y="190"/>
      <point x="646" y="190" type="curve" smooth="yes"/>
      <point x="354" y="190" type="line"/>
    </contour>
    <contour>
      <point x="160" y="0" type="line"/>
      <point x="368" y="0" type="line"/>
      <point x="368" y="1420" type="line"/>
      <point x="160" y="1420" type="line"/>
    </contour>
    <contour>
      <point x="286" y="698" type="line"/>
      <point x="694" y="698" type="line"/>
      <point x="694" y="796" type="line"/>
      <point x="286" y="796" type="line"/>
    </contour>
    <contour>
      <point x="354" y="754" type="line"/>
      <point x="604" y="754" type="line" smooth="yes"/>
      <point x="878" y="754"/>
      <point x="1034" y="864"/>
      <point x="1034" y="1060" type="curve" smooth="yes"/>
      <point x="1034" y="1290"/>
      <point x="870" y="1420"/>
      <point x="582" y="1420" type="curve" smooth="yes"/>
      <point x="334" y="1420" type="line"/>
      <point x="358" y="1230" type="line"/>
      <point x="572" y="1230" type="line" smooth="yes"/>
      <point x="733" y="1230"/>
      <point x="824" y="1162"/>
      <point x="824" y="1040" type="curve" smooth="yes"/>
      <point x="824" y="915"/>
      <point x="737" y="845"/>
      <point x="586" y="845" type="curve" smooth="yes"/>
      <point x="354" y="845" type="line"/>
    </contour>
  </outline>
</glyph>
<glyph name="C" format="2">
  <advance width="1200"/>
  <unicode hex="0043"/>
  <outline>
    <contour>
      <point x="758" y="-20" type="curve" smooth="yes"/>
      <point x="884" y="-20"/>
      <point x="1006" y="2"/>
      <point x="1124" y="48" type="curve"/>
      <point x="1078" y="224" type="line"/>
      <point x="984" y="184"/>
      <point x="890" y="164"/>
      <point x="792" y="164" type="curve" smooth="yes"/>
      <point x="472" y="164"/>
      <point x="310" y="350"/>
      <point x="310" y="722" type="curve" smooth="yes"/>
      <point x="310" y="1064"/>
      <point x="470" y="1258"/>
      <point x="716" y="1258" type="curve" smooth="yes"/>
      <point x="852" y="1258"/>
      <point x="924" y="1208"/>
      <point x="924" y="1102" type="curve"/>
      <point x="1120" y="1102" type="line"/>
      <point x="1120" y="1426"/>
      <point x="816" y="1440"/>
      <point x="714" y="1440" type="curve" smooth="yes"/>
      <point x="320" y="1440"/>
      <point x="96" y="1174"/>
      <point x="96" y="712" type="curve" smooth="yes"/>
      <point x="96" y="224"/>
      <point x="318" y="-20"/>
    </contour>
  </outline>
</glyph>
<glyph name="D" format="2">
  <advance width="1200"/>
  <unicode hex="0044"/>
  <outline>
    <contour>
      <point x="346" y="0" type="line"/>
      <point x="504" y="0" type="line" smooth="yes"/>
      <point x="938" y="0"/>
      <point x="1154" y="222"/>
      <point x="1154" y="670" type="curve" smooth="yes"/>
      <point x="1154" y="1172"/>
      <point x="938" y="1420"/>
      <point x="504" y="1420" type="curve" smooth="yes"/>
      <point x="326" y="1420" type="line"/>
      <point x="350" y="1230" type="line"/>
      <point x="504" y="1230" type="line" smooth="yes"/>
      <point x="796" y="1230"/>
      <point x="944" y="1051"/>
      <point x="944" y="690" type="curve" smooth="yes"/>
      <point x="944" y="357"/>
      <point x="796" y="190"/>
      <point x="504" y="190" type="curve" smooth="yes"/>
      <point x="346" y="190" type="line"/>
    </contour>
    <contour>
      <point x="160" y="0" type="line"/>
      <point x="360" y="0" type="line"/>
      <point x="360" y="1420" type="line"/>
      <point x="160" y="1420" type="line"/>
    </contour>
  </outline>
</glyph>
<glyph name="E" format="2">
  <advance width="1200"/>
  <unicode hex="0045"/>
  <outline>
    <contour>
      <point x="160" y="0" type="line"/>
      <point x="360" y="0" type="line"/>
      <point x="360" y="1420" type="line"/>
      <point x="160" y="1420" type="line"/>
    </contour>
    <contour>
      <point x="160" y="0" type="line"/>
      <point x="1100" y="0" type="line"/>
      <point x="1100" y="190" type="line"/>
      <point x="160" y="190" type="line"/>
    </contour>
    <contour>
      <point x="160" y="616" type="line"/>
      <point x="920" y="616" type="line"/>
      <point x="920" y="806" type="line"/>
      <point x="160" y="806" type="line"/>
    </contour>
    <contour>
      <point x="160" y="1230" type="line"/>
      <point x="1100" y="1230" type="line"/>
      <point x="1100" y="1420" type="line"/>
      <point x="160" y="1420" type="line"/>
    </contour>
  </outline>
</glyph>
<glyph name="F" format="2">
  <advance width="1200"/>
  <unicode hex="0046"/>
  <outline>
    <contour>
      <point x="160" y="0" type="line"/>
      <point x="360" y="0" type="line"/>
      <point x="360" y="1420" type="line"/>
      <point x="160" y="1420" type="line"/>
    </contour>
    <contour>
      <point x="160" y="556" type="line"/>
      <point x="920" y="556" type="line"/>
      <point x="920" y="746" type="line"/>
      <point x="160" y="746" type="line"/>
    </contour>
    <contour>
      <point x="160" y="1230" type="line"/>
      <point x="1100" y="1230" type="line"/>
      <point x="1100" y="1420" type="line"/>
      <point x="160" y="1420" type="line"/>
    </contour>
  </outline>
</glyph>
<glyph name="G" format="2">
  <advance width="1200"/>
  <unicode hex="0047"/>
  <outline>
    <contour>
      <point x="732" y="-20" type="curve" smooth="yes"/>
      <point x="912" y="-20"/>
      <point x="1064" y="22"/>
      <point x="1120" y="40" type="curve"/>
      <point x="1042" y="214" type="line"/>
      <point x="980" y="196"/>
      <point x="882" y="164"/>
      <point x="756" y="164" type="curve" smooth="yes"/>
      <point x="460" y="164"/>
      <point x="310" y="350"/>
      <point x="310" y="722" type="curve" smooth="yes"/>
      <point x="310" y="1057"/>
      <point x="463" y="1248"/>
      <point x="726" y="1248" type="curve" smooth="yes"/>
      <point x="828" y="1248"/>
      <point x="921" y="1192"/>
      <point x="981" y="1094" type="curve"/>
      <point x="1150" y="1222" type="line"/>
      <point x="1077" y="1361"/>
      <point x="918" y="1440"/>
      <point x="714" y="1440" type="curve" smooth="yes"/>
      <point x="322" y="1440"/>
      <point x="96" y="1174"/>
      <point x="96" y="712" type="curve" smooth="yes"/>
      <point x="96" y="224"/>
      <point x="308" y="-20"/>
    </contour>
    <contour>
      <point x="930" y="40" type="line"/>
      <point x="1120" y="40" type="line"/>
      <point x="1120" y="710" type="line"/>
      <point x="930" y="710" type="line"/>
    </contour>
    <contour>
      <point x="640" y="520" type="line"/>
      <point x="1114" y="520" type="line"/>
      <point x="1114" y="710" type="line"/>
      <point x="640" y="710" type="line"/>
    </contour>
  </outline>
</glyph>
<glyph name="H" format="2">
  <advance width="1200"/>
  <unicode hex="0048"/>
  <outline>
    <contour>
      <point x="858" y="0" type="line"/>
      <point x="1058" y="0" type="line"/>
      <point x="1058" y="1420" type="line"/>
      <point x="858" y="1420" type="line"/>
    </contour>
    <contour>
      <point x="140" y="0" type="line"/>
      <point x="340" y="0" type="line"/>
      <point x="340" y="1420" type="line"/>
      <point x="140" y="1420" type="line"/>
    </contour>
    <contour>
      <point x="182" y="612" type="line"/>
      <point x="1021" y="612" type="line"/>
      <point x="1021" y="802" type="line"/>
      <point x="182" y="802" type="line"/>
    </contour>
  </outline>
</glyph>
<glyph name="I" format="2">
  <advance width="1200"/>
  <unicode hex="0049"/>
  <outline>
    <contour>
      <point x="499" y="0" type="line"/>
      <point x="699" y="0" type="line"/>
      <point x="699" y="1420" type="line"/>
      <point x="499" y="1420" type="line"/>
    </contour>
    <contour>
      <point x="168" y="0" type="line"/>
      <point x="1032" y="0" type="line"/>
      <point x="1032" y="190" type="line"/>
      <point x="168" y="190" type="line"/>
    </contour>
    <contour>
      <point x="168" y="1230" type="line"/>
      <point x="1032" y="1230" type="line"/>
      <point x="1032" y="1420" type="line"/>
      <point x="168" y="1420" type="line"/>
    </contour>
  </outline>
</glyph>
<glyph name="J" format="2">
  <advance width="1200"/>
  <unicode hex="004A"/>
  <outline>
    <contour>
      <point x="584" y="0" type="curve" smooth="yes"/>
      <point x="890" y="0"/>
      <point x="1072" y="166"/>
      <point x="1072" y="456" type="curve" smooth="yes"/>
      <point x="1072" y="1420" type="line"/>
      <point x="872" y="1420" type="line"/>
      <point x="872" y="456" type="line" smooth="yes"/>
      <point x="872" y="280"/>
      <point x="770" y="180"/>
      <point x="589" y="180" type="curve" smooth="yes"/>
      <point x="402" y="180"/>
      <point x="296" y="296"/>
      <point x="296" y="496" type="curve"/>
      <point x="96" y="496" type="line"/>
      <point x="96" y="182"/>
      <point x="272" y="0"/>
    </contour>
    <contour>
      <point x="500" y="1230" type="line"/>
      <point x="966" y="1230" type="line"/>
      <point x="966" y="1420" type="line"/>
      <point x="500" y="1420" type="line"/>
    </contour>
  </outline>
</glyph>
<glyph name="K" format="2">
  <advance width="1200"/>
  <unicode hex="004B"/>
  <outline>
    <contour>
      <point x="286" y="502" type="line"/>
      <point x="804" y="502"/>
      <point x="1104" y="941"/>
      <point x="1104" y="1420" type="curve"/>
      <point x="898" y="1420" type="line"/>
      <point x="898" y="1049"/>
      <point x="714" y="690"/>
      <point x="304" y="690" type="curve"/>
    </contour>
    <contour>
      <point x="160" y="0" type="line"/>
      <point x="360" y="0" type="line"/>
      <point x="360" y="1420" type="line"/>
      <point x="160" y="1420" type="line"/>
    </contour>
    <contour>
      <point x="930" y="0" type="line"/>
      <point x="1172" y="0" type="line"/>
      <point x="750" y="794" type="line"/>
      <point x="570" y="692" type="line"/>
    </contour>
  </outline>
</glyph>
<glyph name="L" format="2">
  <advance width="1200"/>
  <unicode hex="004C"/>
  <outline>
    <contour>
      <point x="160" y="0" type="line"/>
      <point x="360" y="0" type="line"/>
      <point x="360" y="1420" type="line"/>
      <point x="160" y="1420" type="line"/>
    </contour>
    <contour>
      <point x="160" y="0" type="line"/>
      <point x="1100" y="0" type="line"/>
      <point x="1100" y="190" type="line"/>
      <point x="160" y="190" type="line"/>
    </contour>
  </outline>
</glyph>
<glyph name="M" format="2">
  <advance width="1200"/>
  <unicode hex="004D"/>
  <outline>
    <contour>
      <point x="566" y="580" type="line"/>
      <point x="702" y="580" type="line"/>
      <point x="854" y="1168" type="line"/>
      <point x="912" y="1168" type="line"/>
      <point x="912" y="1420" type="line"/>
      <point x="760" y="1420" type="line"/>
      <point x="608" y="810" type="line"/>
      <point x="596" y="810" type="line"/>
    </contour>
    <contour>
      <point x="128" y="0" type="line"/>
      <point x="320" y="0" type="line"/>
      <point x="320" y="1420" type="line"/>
      <point x="128" y="1420" type="line"/>
    </contour>
    <contour>
      <point x="498" y="580" type="line"/>
      <point x="620" y="580" type="line"/>
      <point x="600" y="810" type="line"/>
      <point x="592" y="810" type="line"/>
      <point x="440" y="1420" type="line"/>
      <point x="288" y="1420" type="line"/>
      <point x="288" y="1168" type="line"/>
      <point x="346" y="1168" type="line"/>
    </contour>
    <contour>
      <point x="880" y="0" type="line"/>
      <point x="1072" y="0" type="line"/>
      <point x="1072" y="1420" type="line"/>
      <point x="880" y="1420" type="line"/>
    </contour>
  </outline>
</glyph>
<glyph name="N" format="2">
  <advance width="1200"/>
  <unicode hex="004E"/>
  <outline>
    <contour>
      <point x="800" y="0" type="line"/>
      <point x="890" y="0" type="line"/>
      <point x="890" y="322" type="line"/>
      <point x="840" y="322" type="line"/>
      <point x="400" y="1420" type="line"/>
      <point x="268" y="1420" type="line"/>
      <point x="268" y="1050" type="line"/>
      <point x="360" y="1050" type="line"/>
    </contour>
    <contour>
      <point x="148" y="0" type="line"/>
      <point x="340" y="0" type="line"/>
      <point x="340" y="1420" type="line"/>
      <point x="148" y="1420" type="line"/>
    </contour>
    <contour>
      <point x="860" y="0" type="line"/>
      <point x="1052" y="0" type="line"/>
      <point x="1052" y="1420" type="line"/>
      <point x="860" y="1420" type="line"/>
    </contour>
  </outline>
</glyph>
<glyph name="O" format="2">
  <advance width="1200"/>
  <unicode hex="004F"/>
  <outline>
    <contour>
      <point x="600" y="-20" type="curve" smooth="yes"/>
      <point x="948" y="-20"/>
      <point x="1124" y="218"/>
      <point x="1124" y="700" type="curve" smooth="yes"/>
      <point x="1124" y="1194"/>
      <point x="948" y="1440"/>
      <point x="600" y="1440" type="curve" smooth="yes"/>
      <point x="252" y="1440"/>
      <point x="76" y="1194"/>
      <point x="76" y="700" type="curve" smooth="yes"/>
      <point x="76" y="218"/>
      <point x="252" y="-20"/>
    </contour>
    <contour>
      <point x="600" y="164" type="curve" smooth="yes"/>
      <point x="391" y="164"/>
      <point x="286" y="342"/>
      <point x="286" y="700" type="curve" smooth="yes"/>
      <point x="286" y="1072"/>
      <point x="391" y="1256"/>
      <point x="600" y="1256" type="curve" smooth="yes"/>
      <point x="809" y="1256"/>
      <point x="914" y="1072"/>
      <point x="914" y="700" type="curve" smooth="yes"/>
      <point x="914" y="342"/>
      <point x="809" y="164"/>
    </contour>
  </outline>
</glyph>
<glyph name="P" format="2">
  <advance width="1200"/>
  <unicode hex="0050"/>
  <outline>
    <contour>
      <point x="336" y="440" type="line"/>
      <point x="578" y="440" type="line" smooth="yes"/>
      <point x="922" y="440"/>
      <point x="1120" y="622"/>
      <point x="1120" y="940" type="curve" smooth="yes"/>
      <point x="1120" y="1246"/>
      <point x="922" y="1420"/>
      <point x="578" y="1420" type="curve" smooth="yes"/>
      <point x="316" y="1420" type="line"/>
      <point x="340" y="1230" type="line"/>
      <point x="578" y="1230" type="line" smooth="yes"/>
      <point x="789" y="1230"/>
      <point x="910" y="1118"/>
      <point x="910" y="920" type="curve" smooth="yes"/>
      <point x="910" y="736"/>
      <point x="789" y="630"/>
      <point x="578" y="630" type="curve" smooth="yes"/>
      <point x="336" y="630" type="line"/>
    </contour>
    <contour>
      <point x="160" y="0" type="line"/>
      <point x="360" y="0" type="line"/>
      <point x="360" y="1420" type="line"/>
      <point x="160" y="1420" type="line"/>
    </contour>
  </outline>
</glyph>
<glyph name="Q" format="2">
  <advance width="1200"/>
  <unicode hex="0051"/>
  <anchor x="600" y="-460" name="bottom"/>
  <outline>
    <contour>
      <point x="930" y="-460" type="curve" smooth="yes"/>
      <point x="1012" y="-460" type="line"/>
      <point x="1032" y="-280" type="line"/>
      <point x="930" y="-280" type="line" smooth="yes"/>
      <point x="772" y="-280"/>
      <point x="694" y="-194"/>
      <point x="694" y="-22" type="curve" smooth="yes"/>
      <point x="694" y="62" type="line"/>
      <point x="496" y="62" type="line"/>
      <point x="496" y="-20" type="line" smooth="yes"/>
      <point x="496" y="-314"/>
      <point x="642" y="-460"/>
    </contour>
    <component base="O"/>
  </outline>
</glyph>
<glyph name="R" format="2">
  <advance width="1200"/>
  <unicode hex="0052"/>
  <outline>
    <contour>
      <point x="324" y="540" type="line"/>
      <point x="628" y="540" type="line" smooth="yes"/>
      <point x="922" y="540"/>
      <point x="1090" y="704"/>
      <point x="1090" y="990" type="curve" smooth="yes"/>
      <point x="1090" y="1264"/>
      <point x="922" y="1420"/>
      <point x="628" y="1420" type="curve" smooth="yes"/>
      <point x="304" y="1420" type="line"/>
      <point x="328" y="1230" type="line"/>
      <point x="628" y="1230" type="line" smooth="yes"/>
      <point x="787" y="1230"/>
      <point x="880" y="1136"/>
      <point x="880" y="970" type="curve" smooth="yes"/>
      <point x="880" y="818"/>
      <point x="787" y="730"/>
      <point x="628" y="730" type="curve" smooth="yes"/>
      <point x="324" y="730" type="line"/>
    </contour>
    <contour>
      <point x="138" y="0" type="line"/>
      <point x="338" y="0" type="line"/>
      <point x="338" y="1420" type="line"/>
      <point x="138" y="1420" type="line"/>
    </contour>
    <contour>
      <point x="900" y="0" type="line"/>
      <point x="1142" y="0" type="line"/>
      <point x="804" y="668" type="line"/>
      <point x="582" y="668" type="line"/>
    </contour>
  </outline>
</glyph>
<glyph name="S" format="2">
  <advance width="1200"/>
  <unicode hex="0053"/>
  <outline>
    <contour>
      <point x="546" y="-30" type="line"/>
      <point x="886" y="-30"/>
      <point x="1052" y="102"/>
      <point x="1052" y="366" type="curve" smooth="yes"/>
      <point x="1052" y="560"/>
      <point x="940" y="674"/>
      <point x="730" y="772" type="curve" smooth="yes"/>
      <point x="522" y="870" type="line" smooth="yes"/>
      <point x="426" y="916"/>
      <point x="376" y="968"/>
      <point x="376" y="1060" type="curve" smooth="yes"/>
      <point x="376" y="1184"/>
      <point x="462" y="1256"/>
      <point x="612" y="1256" type="curve"/>
      <point x="612" y="1440" type="line"/>
      <point x="326" y="1440"/>
      <point x="162" y="1298"/>
      <point x="162" y="1050" type="curve" smooth="yes"/>
      <point x="162" y="866"/>
      <point x="268" y="748"/>
      <point x="462" y="660" type="curve" smooth="yes"/>
      <point x="708" y="548" type="line" smooth="yes"/>
      <point x="792" y="510"/>
      <point x="838" y="450"/>
      <point x="838" y="362" type="curve" smooth="yes"/>
      <point x="838" y="222"/>
      <point x="748" y="154"/>
      <point x="562" y="154" type="curve"/>
    </contour>
    <contour>
      <point x="546" y="-30" type="curve"/>
      <point x="562" y="154" type="line"/>
      <point x="432" y="154"/>
      <point x="296" y="184"/>
      <point x="150" y="242" type="curve"/>
      <point x="124" y="48" type="line"/>
      <point x="244" y="-4"/>
      <point x="384" y="-30"/>
    </contour>
    <contour>
      <point x="822" y="1102" type="curve"/>
      <point x="1018" y="1102" type="line"/>
      <point x="1018" y="1316"/>
      <point x="870" y="1440"/>
      <point x="612" y="1440" type="curve"/>
      <point x="612" y="1256" type="line"/>
      <point x="746" y="1256"/>
      <point x="822" y="1200"/>
    </contour>
  </outline>
</glyph>
<glyph name="T" format="2">
  <advance width="1200"/>
  <unicode hex="0054"/>
  <anchor x="595" y="0" name="bottom"/>
  <anchor x="600" y="710" name="center"/>
  <anchor x="600" y="1420" name="top"/>
  <outline>
    <contour>
      <point x="496" y="0" type="line"/>
      <point x="704" y="0" type="line"/>
      <point x="704" y="1420" type="line"/>
      <point x="496" y="1420" type="line"/>
    </contour>
    <contour>
      <point x="80" y="1230" type="line"/>
      <point x="1120" y="1230" type="line"/>
      <point x="1120" y="1420" type="line"/>
      <point x="80" y="1420" type="line"/>
    </contour>
  </outline>
</glyph>
<glyph name="U" format="2">
  <advance width="1200"/>
  <unicode hex="0055"/>
  <outline>
    <contour>
      <point x="596" y="0" type="curve" smooth="yes"/>
      <point x="900" y="0"/>
      <point x="1060" y="158"/>
      <point x="1060" y="476" type="curve" smooth="yes"/>
      <point x="1060" y="1420" type="line"/>
      <point x="860" y="1420" type="line"/>
      <point x="860" y="476" type="line" smooth="yes"/>
      <point x="860" y="286"/>
      <point x="772" y="190"/>
      <point x="600" y="190" type="curve" smooth="yes"/>
      <point x="420" y="190"/>
      <point x="340" y="286"/>
      <point x="340" y="476" type="curve" smooth="yes"/>
      <point x="340" y="1420" type="line"/>
      <point x="140" y="1420" type="line"/>
      <point x="140" y="476" type="line" smooth="yes"/>
      <point x="140" y="158"/>
      <point x="292" y="0"/>
    </contour>
  </outline>
</glyph>
<glyph name="V" format="2">
  <advance width="1200"/>
  <unicode hex="0056"/>
  <outline>
    <contour>
      <point x="444" y="-20" type="line"/>
      <point x="754" y="-20" type="line"/>
      <point x="1154" y="1420" type="line"/>
      <point x="940" y="1420" type="line"/>
      <point x="608" y="150" type="line"/>
      <point x="590" y="150" type="line"/>
      <point x="258" y="1420" type="line"/>
      <point x="44" y="1420" type="line"/>
    </contour>
  </outline>
</glyph>
<glyph name="W" format="2">
  <advance width="1200"/>
  <unicode hex="0057"/>
  <outline>
    <contour>
      <point x="160" y="-20" type="line"/>
      <point x="484" y="-20" type="line"/>
      <point x="594" y="802" type="line"/>
      <point x="624" y="802" type="line"/>
      <point x="706" y="1000" type="line"/>
      <point x="496" y="1000" type="line"/>
      <point x="350" y="140" type="line"/>
      <point x="330" y="140" type="line"/>
      <point x="210" y="1420" type="line"/>
      <point x="20" y="1420" type="line"/>
    </contour>
    <contour>
      <point x="716" y="-20" type="line"/>
      <point x="1040" y="-20" type="line"/>
      <point x="1180" y="1420" type="line"/>
      <point x="990" y="1420" type="line"/>
      <point x="870" y="140" type="line"/>
      <point x="850" y="140" type="line"/>
      <point x="706" y="1000" type="line"/>
      <point x="496" y="1000" type="line"/>
      <point x="556" y="802" type="line"/>
      <point x="606" y="802" type="line"/>
    </contour>
  </outline>
</glyph>
<glyph name="X" format="2">
  <advance width="1200"/>
  <unicode hex="0058"/>
  <anchor x="600" y="0" name="bottom"/>
  <anchor x="600" y="1420" name="top"/>
  <outline>
    <contour>
      <point x="906" y="0" type="line"/>
      <point x="1136" y="0" type="line"/>
      <point x="674" y="746" type="line"/>
      <point x="296" y="1420" type="line"/>
      <point x="66" y="1420" type="line"/>
      <point x="542" y="636" type="line"/>
    </contour>
    <contour>
      <point x="66" y="0" type="line"/>
      <point x="296" y="0" type="line"/>
      <point x="660" y="636" type="line"/>
      <point x="1136" y="1420" type="line"/>
      <point x="906" y="1420" type="line"/>
      <point x="528" y="746" type="line"/>
    </contour>
  </outline>
</glyph>
<glyph name="Y" format="2">
  <advance width="1200"/>
  <unicode hex="0059"/>
  <outline>
    <contour>
      <point x="516" y="474" type="line"/>
      <point x="686" y="474" type="line"/>
      <point x="1176" y="1420" type="line"/>
      <point x="956" y="1420" type="line"/>
      <point x="610" y="710" type="line"/>
      <point x="592" y="710" type="line"/>
      <point x="246" y="1420" type="line"/>
      <point x="26" y="1420" type="line"/>
    </contour>
    <contour>
      <point x="503" y="0" type="line"/>
      <point x="703" y="0" type="line"/>
      <point x="703" y="700" type="line"/>
      <point x="503" y="700" type="line"/>
    </contour>
  </outline>
</glyph>
<glyph name="Z" format="2">
  <advance width="1200"/>
  <unicode hex="005A"/>
  <anchor x="600" y="0" name="bottom"/>
  <anchor x="600" y="710" name="center"/>
  <anchor x="600" y="1420" name="top"/>
  <outline>
    <contour>
      <point x="302" y="68" type="line"/>
      <point x="1050" y="1230" type="line"/>
      <point x="898" y="1362" type="line"/>
      <point x="150" y="190" type="line"/>
    </contour>
    <contour>
      <point x="150" y="0" type="line"/>
      <point x="1070" y="0" type="line"/>
      <point x="1070" y="190" type="line"/>
      <point x="150" y="190" type="line"/>
    </contour>
    <contour>
      <point x="150" y="1230" type="line"/>
      <point x="1050" y="1230" type="line"/>
      <point x="1050" y="1420" type="line"/>
      <point x="150" y="1420" type="line"/>
    </contour>
  </outline>
</glyph>
<glyph name="bracketleft" format="2">
  <advance width="1200"/>
  <unicode hex="005B"/>
  <outline>
    <contour>
      <point x="372" y="-200" type="line"/>
      <point x="572" y="-200" type="line"/>
      <point x="572" y="1620" type="line"/>
      <point x="372" y="1620" type="line"/>
    </contour>
    <contour>
      <point x="552" y="-200" type="line"/>
      <point x="998" y="-200" type="line"/>
      <point x="998" y="-24" type="line"/>
      <point x="552" y="-24" type="line"/>
    </contour>
    <contour>
      <point x="552" y="1444" type="line"/>
      <point x="998" y="1444" type="line"/>
      <point x="998" y="1620" type="line"/>
      <point x="552" y="1620" type="line"/>
    </contour>
  </outline>
</glyph>
<glyph name="backslash" format="2">
  <advance width="1200"/>
  <unicode hex="005C"/>
  <outline>
    <contour>
      <point x="914" y="-280" type="line"/>
      <point x="1116" y="-280" type="line"/>
      <point x="302" y="1520" type="line"/>
      <point x="100" y="1520" type="line"/>
    </contour>
  </outline>
</glyph>
<glyph name="bracketright" format="2">
  <advance width="1200"/>
  <unicode hex="005D"/>
  <outline>
    <contour>
      <point x="616" y="-214" type="line"/>
      <point x="828" y="-214" type="line"/>
      <point x="828" y="1634" type="line"/>
      <point x="616" y="1634" type="line"/>
    </contour>
    <contour>
      <point x="202" y="-214" type="line"/>
      <point x="636" y="-214" type="line"/>
      <point x="636" y="-24" type="line"/>
      <point x="202" y="-24" type="line"/>
    </contour>
    <contour>
      <point x="202" y="1444" type="line"/>
      <point x="636" y="1444" type="line"/>
      <point x="636" y="1634" type="line"/>
      <point x="202" y="1634" type="line"/>
    </contour>
  </outline>
</glyph>
<glyph name="asciicircum" format="2">
  <advance width="1200"/>
  <unicode hex="005E"/>
  <outline>
    <contour>
      <point x="204" y="820" type="line"/>
      <point x="424" y="820" type="line"/>
      <point x="590" y="1260" type="line"/>
      <point x="608" y="1260" type="line"/>
      <point x="774" y="820" type="line"/>
      <point x="994" y="820" type="line"/>
      <point x="734" y="1420" type="line"/>
      <point x="464" y="1420" type="line"/>
    </contour>
  </outline>
</glyph>
<glyph name="underscore" format="2">
  <advance width="1200"/>
  <unicode hex="005F"/>
  <outline>
    <contour>
      <point x="100" y="-176" type="line"/>
      <point x="1100" y="-176" type="line"/>
      <point x="1100" y="0" type="line"/>
      <point x="100" y="0" type="line"/>
    </contour>
  </outline>
</glyph>
<glyph name="a" format="2">
  <advance width="1200"/>
  <unicode hex="0061"/>
  <anchor x="600" y="0" name="bottom"/>
  <anchor x="1057" y="10" name="ogonek"/>
  <anchor x="580" y="1060" name="top"/>
  <outline>
    <contour>
      <point x="818" y="-10" type="line"/>
      <point x="1158" y="0" type="line"/>
      <point x="1158" y="170" type="line"/>
      <point x="978" y="192" type="line"/>
      <point x="978" y="634" type="line" smooth="yes"/>
      <point x="978" y="914"/>
      <point x="810" y="1062"/>
      <point x="460" y="1067" type="curve" smooth="yes"/>
      <point x="246" y="1070" type="line"/>
      <point x="226" y="882" type="line"/>
      <point x="480" y="875" type="line" smooth="yes"/>
      <point x="676" y="870"/>
      <point x="776" y="807"/>
      <point x="776" y="666" type="curve" smooth="yes"/>
      <point x="776" y="392" type="line"/>
      <point x="804" y="304" type="line"/>
    </contour>
    <contour>
      <point x="444" y="-20" type="curve" smooth="yes"/>
      <point x="654" y="-20"/>
      <point x="788" y="72"/>
      <point x="788" y="256" type="curve"/>
      <point x="754" y="224" type="line"/>
      <point x="838" y="224" type="line"/>
      <point x="776" y="496" type="line"/>
      <point x="776" y="380" type="line"/>
      <point x="776" y="268"/>
      <point x="676" y="150"/>
      <point x="478" y="150" type="curve" smooth="yes"/>
      <point x="362" y="150"/>
      <point x="296" y="203"/>
      <point x="296" y="296" type="curve" smooth="yes"/>
      <point x="296" y="407"/>
      <point x="391" y="464"/>
      <point x="572" y="464" type="curve" smooth="yes"/>
      <point x="661" y="464"/>
      <point x="745" y="464"/>
      <point x="834" y="444" type="curve"/>
      <point x="878" y="588" type="line"/>
      <point x="801" y="619"/>
      <point x="702" y="634"/>
      <point x="576" y="634" type="curve" smooth="yes"/>
      <point x="270" y="634"/>
      <point x="96" y="510"/>
      <point x="96" y="286" type="curve" smooth="yes"/>
      <point x="96" y="91"/>
      <point x="223" y="-20"/>
    </contour>
  </outline>
</glyph>
<glyph name="b" format="2">
  <advance width="1200"/>
  <unicode hex="0062"/>
  <anchor x="640" y="0" name="bottom"/>
  <anchor x="280" y="1568" name="top"/>
  <outline>
    <contour>
      <point x="452" y="-20" type="curve" smooth="yes"/>
      <point x="867" y="-20"/>
      <point x="1104" y="206"/>
      <point x="1104" y="600" type="curve" smooth="yes"/>
      <point x="1104" y="906"/>
      <point x="942" y="1080"/>
      <point x="660" y="1080" type="curve" smooth="yes"/>
      <point x="496" y="1080"/>
      <point x="410" y="1010"/>
      <point x="400" y="868" type="curve"/>
      <point x="318" y="868" type="line"/>
      <point x="380" y="596" type="line"/>
      <point x="380" y="800"/>
      <point x="470" y="900"/>
      <point x="650" y="900" type="curve" smooth="yes"/>
      <point x="806" y="900"/>
      <point x="894" y="792"/>
      <point x="894" y="600" type="curve" smooth="yes"/>
      <point x="894" y="320"/>
      <point x="749" y="160"/>
      <point x="494" y="160" type="curve" smooth="yes"/>
      <point x="410" y="160"/>
      <point x="320" y="160"/>
      <point x="250" y="194" type="curve"/>
      <point x="168" y="0" type="line"/>
      <point x="264" y="-12"/>
      <point x="356" y="-20"/>
    </contour>
    <contour>
      <point x="168" y="0" type="line"/>
      <point x="380" y="18" type="line"/>
      <point x="380" y="1500" type="line"/>
      <point x="168" y="1500" type="line"/>
    </contour>
  </outline>
</glyph>
<glyph name="c" format="2">
  <advance width="1200"/>
  <unicode hex="0063"/>
  <anchor x="650" y="0" name="bottom"/>
  <anchor x="650" y="1060" name="top"/>
  <outline>
    <contour>
      <point x="702" y="-20" type="curve" smooth="yes"/>
      <point x="813" y="-20"/>
      <point x="932" y="-14"/>
      <point x="1042" y="10" type="curve"/>
      <point x="1018" y="196" type="line"/>
      <point x="924" y="180"/>
      <point x="825" y="170"/>
      <point x="726" y="170" type="curve" smooth="yes"/>
      <point x="485" y="170"/>
      <point x="350" y="300"/>
      <point x="350" y="542" type="curve" smooth="yes"/>
      <point x="350" y="764"/>
      <point x="466" y="890"/>
      <point x="666" y="890" type="curve" smooth="yes"/>
      <point x="777" y="890"/>
      <point x="874" y="834"/>
      <point x="934" y="737" type="curve"/>
      <point x="1097" y="860" type="line"/>
      <point x="1034" y="1000"/>
      <point x="880" y="1080"/>
      <point x="674" y="1080" type="curve" smooth="yes"/>
      <point x="329" y="1080"/>
      <point x="136" y="878"/>
      <point x="136" y="532" type="curve" smooth="yes"/>
      <point x="136" y="176"/>
      <point x="341" y="-20"/>
    </contour>
  </outline>
</glyph>
<glyph name="d" format="2">
  <advance width="1200"/>
  <unicode hex="0064"/>
  <anchor x="540" y="0" name="bottom"/>
  <anchor x="600" y="530" name="center"/>
  <anchor x="926" y="1500" name="top"/>
  <anchor x="1157" y="1060" name="topright"/>
  <outline>
    <contour>
      <point x="519" y="-20" type="curve" smooth="yes"/>
      <point x="682" y="-20"/>
      <point x="787" y="59"/>
      <point x="800" y="192" type="curve"/>
      <point x="892" y="192" type="line"/>
      <point x="820" y="494" type="line"/>
      <point x="820" y="275"/>
      <point x="733" y="160"/>
      <point x="566" y="160" type="curve" smooth="yes"/>
      <point x="395" y="160"/>
      <point x="306" y="283"/>
      <point x="306" y="520" type="curve" smooth="yes"/>
      <point x="306" y="770"/>
      <point x="395" y="900"/>
      <point x="566" y="900" type="curve" smooth="yes"/>
      <point x="733" y="900"/>
      <point x="820" y="785"/>
      <point x="820" y="566" type="curve"/>
      <point x="882" y="868" type="line"/>
      <point x="800" y="868" type="line"/>
      <point x="783" y="1001"/>
      <point x="678" y="1080"/>
      <point x="519" y="1080" type="curve" smooth="yes"/>
      <point x="241" y="1080"/>
      <point x="96" y="888"/>
      <point x="96" y="520" type="curve" smooth="yes"/>
      <point x="96" y="165"/>
      <point x="241" y="-20"/>
    </contour>
    <contour>
      <point x="842" y="-10" type="line"/>
      <point x="1032" y="0" type="line"/>
      <point x="1032" y="1500" type="line"/>
      <point x="820" y="1500" type="line"/>
      <point x="820" y="198" type="line"/>
    </contour>
  </outline>
</glyph>
<glyph name="e" format="2">
  <advance width="1200"/>
  <unicode hex="0065"/>
  <anchor x="620" y="0" name="bottom"/>
  <anchor x="1047" y="10" name="ogonek"/>
  <anchor x="600" y="1060" name="top"/>
  <outline>
    <contour>
      <point x="692" y="-20" type="curve" smooth="yes"/>
      <point x="772" y="-20"/>
      <point x="876" y="-16"/>
      <point x="1002" y="8" type="curve"/>
      <point x="976" y="194" type="line"/>
      <point x="888" y="176"/>
      <point x="804" y="166"/>
      <point x="716" y="166" type="curve" smooth="yes"/>
      <point x="464" y="166"/>
      <point x="322" y="296"/>
      <point x="322" y="542" type="curve" smooth="yes"/>
      <point x="322" y="766"/>
      <point x="426" y="894"/>
      <point x="606" y="894" type="curve" smooth="yes"/>
      <point x="766" y="894"/>
      <point x="862" y="788"/>
      <point x="862" y="598" type="curve"/>
      <point x="304" y="598" type="line"/>
      <point x="304" y="436" type="line"/>
      <point x="1048" y="436" type="line"/>
      <point x="1052" y="478"/>
      <point x="1054" y="522"/>
      <point x="1054" y="572" type="curve" smooth="yes"/>
      <point x="1054" y="902"/>
      <point x="890" y="1080"/>
      <point x="604" y="1080" type="curve" smooth="yes"/>
      <point x="300" y="1080"/>
      <point x="126" y="878"/>
      <point x="126" y="532" type="curve" smooth="yes"/>
      <point x="126" y="176"/>
      <point x="330" y="-20"/>
    </contour>
  </outline>
</glyph>
<glyph name="f" format="2">
  <advance width="1200"/>
  <unicode hex="0066"/>
  <anchor x="508" y="0" name="bottom"/>
  <anchor x="740" y="1568" name="top"/>
  <outline>
    <contour>
      <point x="402" y="0" type="line"/>
      <point x="614" y="0" type="line"/>
      <point x="614" y="980" type="line" smooth="yes"/>
      <point x="614" y="1214"/>
      <point x="708" y="1330"/>
      <point x="898" y="1330" type="curve" smooth="yes"/>
      <point x="958" y="1330"/>
      <point x="1018" y="1326"/>
      <point x="1102" y="1316" type="curve"/>
      <point x="1124" y="1500" type="line"/>
      <point x="1050" y="1514"/>
      <point x="984" y="1520"/>
      <point x="904" y="1520" type="curve" smooth="yes"/>
      <point x="568" y="1520"/>
      <point x="402" y="1338"/>
      <point x="402" y="970" type="curve" smooth="yes"/>
    </contour>
    <contour>
      <point x="68" y="646" type="line"/>
      <point x="1048" y="646" type="line"/>
      <point x="1048" y="820" type="line"/>
      <point x="68" y="820" type="line"/>
    </contour>
  </outline>
</glyph>
<glyph name="g" format="2">
  <advance width="1200"/>
  <unicode hex="0067"/>
  <anchor x="540" y="-480" name="bottom"/>
  <anchor x="580" y="1060" name="top"/>
  <outline>
    <contour>
      <point x="518" y="-20" type="curve" smooth="yes"/>
      <point x="678" y="-20"/>
      <point x="786" y="42"/>
      <point x="800" y="164" type="curve"/>
      <point x="892" y="164" type="line"/>
      <point x="820" y="456" type="line"/>
      <point x="820" y="340" type="line" smooth="yes"/>
      <point x="820" y="220"/>
      <point x="742" y="160"/>
      <point x="582" y="160" type="curve" smooth="yes"/>
      <point x="400" y="160"/>
      <point x="306" y="282"/>
      <point x="306" y="520" type="curve" smooth="yes"/>
      <point x="306" y="762"/>
      <point x="405" y="900"/>
      <point x="580" y="900" type="curve" smooth="yes"/>
      <point x="740" y="900"/>
      <point x="820" y="813"/>
      <point x="820" y="636" type="curve"/>
      <point x="882" y="868" type="line"/>
      <point x="800" y="868" type="line"/>
      <point x="782" y="1010"/>
      <point x="690" y="1080"/>
      <point x="520" y="1080" type="curve" smooth="yes"/>
      <point x="250" y="1080"/>
      <point x="96" y="876"/>
      <point x="96" y="520" type="curve" smooth="yes"/>
      <point x="96" y="172"/>
      <point x="250" y="-20"/>
    </contour>
    <contour>
      <point x="182" y="-478" type="line"/>
      <point x="492" y="-468" type="line" smooth="yes"/>
      <point x="868" y="-456"/>
      <point x="1032" y="-284"/>
      <point x="1032" y="94" type="curve" smooth="yes"/>
      <point x="1032" y="304" type="line"/>
      <point x="818" y="304" type="line"/>
      <point x="818" y="62" type="line" smooth="yes"/>
      <point x="818" y="-156"/>
      <point x="726" y="-268"/>
      <point x="512" y="-274" type="curve" smooth="yes"/>
      <point x="172" y="-284" type="line"/>
    </contour>
    <contour>
      <point x="820" y="260" type="line"/>
      <point x="1032" y="260" type="line"/>
      <point x="1032" y="1060" type="line"/>
      <point x="840" y="1060" type="line"/>
      <point x="820" y="836" type="line"/>
    </contour>
  </outline>
</glyph>
<glyph name="i" format="2">
  <advance width="1200"/>
  <unicode hex="0069"/>
  <anchor x="670" y="0" name="bottom"/>
  <anchor x="658" y="1480" name="top"/>
  <outline>
    <contour>
      <point x="564" y="0" type="line"/>
      <point x="776" y="0" type="line"/>
      <point x="776" y="1000" type="line"/>
      <point x="564" y="1000" type="line"/>
    </contour>
    <contour>
      <point x="160" y="0" type="line"/>
      <point x="584" y="0" type="line"/>
      <point x="584" y="174" type="line"/>
      <point x="160" y="174" type="line"/>
    </contour>
    <contour>
      <point x="756" y="0" type="line"/>
      <point x="1102" y="0" type="line"/>
      <point x="1102" y="174" type="line"/>
      <point x="756" y="174" type="line"/>
    </contour>
    <contour>
      <point x="220" y="886" type="line"/>
      <point x="776" y="886" type="line"/>
      <point x="776" y="1060" type="line"/>
      <point x="220" y="1060" type="line"/>
    </contour>
    <contour>
      <point x="663" y="1228" type="curve" smooth="yes"/>
      <point x="745" y="1228"/>
      <point x="811" y="1294"/>
      <point x="811" y="1376" type="curve" smooth="yes"/>
      <point x="811" y="1458"/>
      <point x="745" y="1524"/>
      <point x="663" y="1524" type="curve" smooth="yes"/>
      <point x="581" y="1524"/>
      <point x="515" y="1458"/>
      <point x="515" y="1376" type="curve" smooth="yes"/>
      <point x="515" y="1294"/>
      <point x="581" y="1228"/>
    </contour>
  </outline>
</glyph>
<glyph name="j" format="2">
  <advance width="1200"/>
  <unicode hex="006A"/>
  <outline>
    <contour>
      <point x="180" y="-480" type="line"/>
      <point x="350" y="-468" type="line" smooth="yes"/>
      <point x="726" y="-438"/>
      <point x="888" y="-284"/>
      <point x="888" y="94" type="curve" smooth="yes"/>
      <point x="888" y="384" type="line"/>
      <point x="676" y="384" type="line"/>
      <point x="676" y="62" type="line" smooth="yes"/>
      <point x="676" y="-156"/>
      <point x="584" y="-254"/>
      <point x="370" y="-274" type="curve" smooth="yes"/>
      <point x="170" y="-292" type="line"/>
    </contour>
    <contour>
      <point x="264" y="886" type="line"/>
      <point x="692" y="886" type="line"/>
      <point x="692" y="1060" type="line"/>
      <point x="264" y="1060" type="line"/>
    </contour>
    <contour>
      <point x="676" y="350" type="line"/>
      <point x="888" y="350" type="line"/>
      <point x="888" y="1060" type="line"/>
      <point x="676" y="1060" type="line"/>
    </contour>
    <contour>
      <point x="760" y="1228" type="curve" smooth="yes"/>
      <point x="842" y="1228"/>
      <point x="908" y="1294"/>
      <point x="908" y="1376" type="curve" smooth="yes"/>
      <point x="908" y="1458"/>
      <point x="842" y="1524"/>
      <point x="760" y="1524" type="curve" smooth="yes"/>
      <point x="678" y="1524"/>
      <point x="612" y="1458"/>
      <point x="612" y="1376" type="curve" smooth="yes"/>
      <point x="612" y="1294"/>
      <point x="678" y="1228"/>
    </contour>
  </outline>
</glyph>
<glyph name="k" format="2">
  <advance width="1200"/>
  <unicode hex="006B"/>
  <outline>
    <contour>
      <point x="310" y="422" type="line"/>
      <point x="480" y="422" type="line" smooth="yes"/>
      <point x="822" y="422"/>
      <point x="1016" y="632"/>
      <point x="1072" y="1060" type="curve"/>
      <point x="852" y="1060" type="line"/>
      <point x="806" y="732"/>
      <point x="694" y="612"/>
      <point x="430" y="612" type="curve" smooth="yes"/>
      <point x="310" y="612" type="line"/>
    </contour>
    <contour>
      <point x="160" y="0" type="line"/>
      <point x="372" y="0" type="line"/>
      <point x="372" y="1500" type="line"/>
      <point x="160" y="1500" type="line"/>
    </contour>
    <contour>
      <point x="878" y="0" type="line"/>
      <point x="1140" y="0" type="line"/>
      <point x="776" y="598" type="line"/>
      <point x="576" y="516" type="line"/>
    </contour>
  </outline>
</glyph>
<glyph name="l" format="2">
  <advance width="1200"/>
  <unicode hex="006C"/>
  <anchor x="680" y="0" name="bottom"/>
  <anchor x="520" y="784" name="center"/>
  <anchor x="516" y="1500" name="top"/>
  <anchor x="970" y="1500" name="topright"/>
  <outline>
    <contour>
      <point x="758" y="-20" type="curve" smooth="yes"/>
      <point x="872" y="-20"/>
      <point x="966" y="-8"/>
      <point x="1074" y="22" type="curve"/>
      <point x="1050" y="208" type="line"/>
      <point x="962" y="182"/>
      <point x="898" y="170"/>
      <point x="838" y="170" type="curve" smooth="yes"/>
      <point x="656" y="170"/>
      <point x="622" y="242"/>
      <point x="622" y="410" type="curve" smooth="yes"/>
      <point x="622" y="1500" type="line"/>
      <point x="410" y="1500" type="line"/>
      <point x="410" y="400" type="line" smooth="yes"/>
      <point x="410" y="106"/>
      <point x="512" y="-20"/>
    </contour>
    <contour>
      <point x="98" y="1326" type="line"/>
      <point x="428" y="1326" type="line"/>
      <point x="428" y="1500" type="line"/>
      <point x="98" y="1500" type="line"/>
    </contour>
  </outline>
</glyph>
<glyph name="m" format="2">
  <advance width="1200"/>
  <unicode hex="006D"/>
  <anchor x="600" y="0" name="bottom"/>
  <anchor x="600" y="1060" name="top"/>
  <outline>
    <contour>
      <point x="876" y="0" type="line"/>
      <point x="1088" y="0" type="line"/>
      <point x="1088" y="830" type="line" smooth="yes"/>
      <point x="1088" y="1006"/>
      <point x="1024" y="1080"/>
      <point x="878" y="1080" type="curve" smooth="yes"/>
      <point x="766" y="1080"/>
      <point x="706" y="1010"/>
      <point x="700" y="928" type="curve"/>
      <point x="618" y="928" type="line"/>
      <point x="690" y="776" type="line"/>
      <point x="690" y="872"/>
      <point x="724" y="920"/>
      <point x="794" y="920" type="curve" smooth="yes"/>
      <point x="850" y="920"/>
      <point x="876" y="884"/>
      <point x="876" y="810" type="curve" smooth="yes"/>
    </contour>
    <contour>
      <point x="112" y="0" type="line"/>
      <point x="324" y="0" type="line"/>
      <point x="324" y="836" type="line"/>
      <point x="300" y="1060" type="line"/>
      <point x="112" y="1060" type="line"/>
    </contour>
    <contour>
      <point x="510" y="0" type="line"/>
      <point x="690" y="0" type="line"/>
      <point x="690" y="850" type="line" smooth="yes"/>
      <point x="690" y="1004"/>
      <point x="622" y="1080"/>
      <point x="512" y="1080" type="curve" smooth="yes"/>
      <point x="396" y="1080"/>
      <point x="338" y="1030"/>
      <point x="330" y="928" type="curve"/>
      <point x="262" y="928" type="line"/>
      <point x="324" y="776" type="line"/>
      <point x="324" y="872"/>
      <point x="358" y="920"/>
      <point x="426" y="920" type="curve" smooth="yes"/>
      <point x="482" y="920"/>
      <point x="510" y="890"/>
      <point x="510" y="830" type="curve" smooth="yes"/>
    </contour>
  </outline>
</glyph>
<glyph name="n" format="2">
  <advance width="1200"/>
  <unicode hex="006E"/>
  <anchor x="600" y="0" name="bottom"/>
  <anchor x="590" y="1060" name="top"/>
  <outline>
    <contour>
      <point x="820" y="0" type="line"/>
      <point x="1032" y="0" type="line"/>
      <point x="1032" y="690" type="line" smooth="yes"/>
      <point x="1032" y="938"/>
      <point x="904" y="1080"/>
      <point x="680" y="1080" type="curve" smooth="yes"/>
      <point x="502" y="1080"/>
      <point x="412" y="1010"/>
      <point x="400" y="868" type="curve"/>
      <point x="318" y="868" type="line"/>
      <point x="380" y="596" type="line"/>
      <point x="380" y="793"/>
      <point x="464" y="890"/>
      <point x="630" y="890" type="curve" smooth="yes"/>
      <point x="750" y="890"/>
      <point x="820" y="818"/>
      <point x="820" y="690" type="curve" smooth="yes"/>
    </contour>
    <contour>
      <point x="168" y="0" type="line"/>
      <point x="380" y="0" type="line"/>
      <point x="380" y="836" type="line"/>
      <point x="360" y="1060" type="line"/>
      <point x="168" y="1060" type="line"/>
    </contour>
  </outline>
</glyph>
<glyph name="o" format="2">
  <advance width="1200"/>
  <unicode hex="006F"/>
  <anchor x="600" y="0" name="bottom"/>
  <anchor x="600" y="530" name="center"/>
  <anchor x="600" y="10" name="ogonek"/>
  <anchor x="600" y="1060" name="top"/>
  <anchor x="1040" y="1060" name="topright"/>
  <outline>
    <contour>
      <point x="600" y="-20" type="curve" smooth="yes"/>
      <point x="894" y="-20"/>
      <point x="1064" y="180"/>
      <point x="1064" y="530" type="curve" smooth="yes"/>
      <point x="1064" y="880"/>
      <point x="894" y="1080"/>
      <point x="600" y="1080" type="curve" smooth="yes"/>
      <point x="306" y="1080"/>
      <point x="136" y="880"/>
      <point x="136" y="530" type="curve" smooth="yes"/>
      <point x="136" y="180"/>
      <point x="306" y="-20"/>
    </contour>
    <contour>
      <point x="600" y="170" type="curve" smooth="yes"/>
      <point x="444" y="170"/>
      <point x="356" y="300"/>
      <point x="356" y="530" type="curve" smooth="yes"/>
      <point x="356" y="760"/>
      <point x="444" y="890"/>
      <point x="600" y="890" type="curve" smooth="yes"/>
      <point x="756" y="890"/>
      <point x="844" y="760"/>
      <point x="844" y="530" type="curve" smooth="yes"/>
      <point x="844" y="300"/>
      <point x="756" y="170"/>
    </contour>
  </outline>
</glyph>
<glyph name="p" format="2">
  <advance width="1200"/>
  <unicode hex="0070"/>
  <anchor x="650" y="-460" name="bottom"/>
  <anchor x="650" y="1060" name="top"/>
  <outline>
    <contour>
      <point x="168" y="-460" type="line"/>
      <point x="380" y="-460" type="line"/>
      <point x="380" y="836" type="line"/>
      <point x="360" y="1060" type="line"/>
      <point x="168" y="1060" type="line"/>
    </contour>
    <contour>
      <point x="681" y="-20" type="curve" smooth="yes"/>
      <point x="959" y="-20"/>
      <point x="1104" y="165"/>
      <point x="1104" y="520" type="curve" smooth="yes"/>
      <point x="1104" y="888"/>
      <point x="959" y="1080"/>
      <point x="681" y="1080" type="curve" smooth="yes"/>
      <point x="516" y="1080"/>
      <point x="408" y="1001"/>
      <point x="390" y="868" type="curve"/>
      <point x="308" y="868" type="line"/>
      <point x="380" y="566" type="line"/>
      <point x="380" y="785"/>
      <point x="467" y="900"/>
      <point x="634" y="900" type="curve" smooth="yes"/>
      <point x="805" y="900"/>
      <point x="894" y="770"/>
      <point x="894" y="520" type="curve" smooth="yes"/>
      <point x="894" y="283"/>
      <point x="805" y="160"/>
      <point x="634" y="160" type="curve" smooth="yes"/>
      <point x="467" y="160"/>
      <point x="380" y="275"/>
      <point x="380" y="494" type="curve"/>
      <point x="308" y="192" type="line"/>
      <point x="400" y="192" type="line"/>
      <point x="413" y="59"/>
      <point x="518" y="-20"/>
    </contour>
  </outline>
</glyph>
<glyph name="q" format="2">
  <advance width="1200"/>
  <unicode hex="0071"/>
  <anchor x="552" y="-460" name="bottom"/>
  <anchor x="552" y="1060" name="top"/>
  <outline>
    <contour>
      <point x="518" y="-20" type="curve" smooth="yes"/>
      <point x="678" y="-20"/>
      <point x="786" y="42"/>
      <point x="800" y="164" type="curve"/>
      <point x="892" y="164" type="line"/>
      <point x="820" y="456" type="line"/>
      <point x="820" y="340" type="line" smooth="yes"/>
      <point x="820" y="220"/>
      <point x="742" y="160"/>
      <point x="582" y="160" type="curve" smooth="yes"/>
      <point x="400" y="160"/>
      <point x="306" y="282"/>
      <point x="306" y="520" type="curve" smooth="yes"/>
      <point x="306" y="762"/>
      <point x="405" y="900"/>
      <point x="580" y="900" type="curve" smooth="yes"/>
      <point x="740" y="900"/>
      <point x="820" y="813"/>
      <point x="820" y="636" type="curve"/>
      <point x="882" y="868" type="line"/>
      <point x="800" y="868" type="line"/>
      <point x="782" y="1010"/>
      <point x="690" y="1080"/>
      <point x="520" y="1080" type="curve" smooth="yes"/>
      <point x="250" y="1080"/>
      <point x="96" y="876"/>
      <point x="96" y="520" type="curve" smooth="yes"/>
      <point x="96" y="172"/>
      <point x="250" y="-20"/>
    </contour>
    <contour>
      <point x="820" y="-460" type="line"/>
      <point x="1032" y="-460" type="line"/>
      <point x="1032" y="1060" type="line"/>
      <point x="840" y="1060" type="line"/>
      <point x="820" y="836" type="line"/>
    </contour>
  </outline>
</glyph>
<glyph name="r" format="2">
  <advance width="1200"/>
  <unicode hex="0072"/>
  <anchor x="430" y="0" name="bottom"/>
  <anchor x="600" y="1060" name="top"/>
  <outline>
    <contour>
      <point x="528" y="456" type="line"/>
      <point x="528" y="740"/>
      <point x="616" y="900"/>
      <point x="796" y="900" type="curve" smooth="yes"/>
      <point x="898" y="900"/>
      <point x="942" y="836"/>
      <point x="942" y="682" type="curve"/>
      <point x="1152" y="682" type="line"/>
      <point x="1152" y="962"/>
      <point x="1058" y="1080"/>
      <point x="840" y="1080" type="curve" smooth="yes"/>
      <point x="656" y="1080"/>
      <point x="560" y="984"/>
      <point x="548" y="788" type="curve"/>
      <point x="466" y="788" type="line"/>
    </contour>
    <contour>
      <point x="80" y="0" type="line"/>
      <point x="788" y="0" type="line"/>
      <point x="788" y="174" type="line"/>
      <point x="80" y="174" type="line"/>
    </contour>
    <contour>
      <point x="316" y="0" type="line"/>
      <point x="528" y="0" type="line"/>
      <point x="528" y="756" type="line"/>
      <point x="488" y="1060" type="line"/>
      <point x="316" y="1060" type="line"/>
    </contour>
    <contour>
      <point x="120" y="886" type="line"/>
      <point x="494" y="886" type="line"/>
      <point x="474" y="1060" type="line"/>
      <point x="120" y="1060" type="line"/>
    </contour>
  </outline>
</glyph>
<glyph name="s" format="2">
  <advance width="1200"/>
  <unicode hex="0073"/>
  <anchor x="610" y="0" name="bottom"/>
  <anchor x="630" y="1060" name="top"/>
  <outline>
    <contour>
      <point x="518" y="-20" type="curve" smooth="yes"/>
      <point x="886" y="-20"/>
      <point x="1044" y="78"/>
      <point x="1044" y="306" type="curve" smooth="yes"/>
      <point x="1044" y="476"/>
      <point x="944" y="554"/>
      <point x="722" y="608" type="curve" smooth="yes"/>
      <point x="526" y="656" type="line" smooth="yes"/>
      <point x="435" y="678"/>
      <point x="392" y="698"/>
      <point x="392" y="760" type="curve" smooth="yes"/>
      <point x="392" y="852"/>
      <point x="492" y="890"/>
      <point x="730" y="890" type="curve" smooth="yes"/>
      <point x="808" y="890"/>
      <point x="886" y="886"/>
      <point x="994" y="876" type="curve"/>
      <point x="1016" y="1060" type="line"/>
      <point x="922" y="1074"/>
      <point x="838" y="1080"/>
      <point x="736" y="1080" type="curve" smooth="yes"/>
      <point x="340" y="1080"/>
      <point x="172" y="982"/>
      <point x="172" y="750" type="curve" smooth="yes"/>
      <point x="172" y="590"/>
      <point x="267" y="525"/>
      <point x="476" y="472" type="curve" smooth="yes"/>
      <point x="720" y="410" type="line" smooth="yes"/>
      <point x="790" y="392"/>
      <point x="824" y="366"/>
      <point x="824" y="302" type="curve" smooth="yes"/>
      <point x="824" y="210"/>
      <point x="732" y="170"/>
      <point x="518" y="170" type="curve" smooth="yes"/>
      <point x="422" y="170"/>
      <point x="320" y="180"/>
      <point x="180" y="202" type="curve"/>
      <point x="156" y="10" type="line"/>
      <point x="250" y="-12"/>
      <point x="358" y="-20"/>
    </contour>
  </outline>
</glyph>
<glyph name="t" format="2">
  <advance width="1200"/>
  <unicode hex="0074"/>
  <anchor x="665" y="0" name="bottom"/>
  <anchor x="442" y="570" name="center"/>
  <anchor x="832" y="1180" name="top"/>
  <anchor x="1080" y="1060" name="topright"/>
  <outline>
    <contour>
      <point x="792" y="-20" type="curve" smooth="yes"/>
      <point x="892" y="-20"/>
      <point x="976" y="-12"/>
      <point x="1070" y="4" type="curve"/>
      <point x="1046" y="190" type="line"/>
      <point x="950" y="178"/>
      <point x="878" y="170"/>
      <point x="812" y="170" type="curve" smooth="yes"/>
      <point x="624" y="170"/>
      <point x="548" y="242"/>
      <point x="548" y="410" type="curve" smooth="yes"/>
      <point x="548" y="580" type="line"/>
      <point x="336" y="580" type="line"/>
      <point x="336" y="400" type="line" smooth="yes"/>
      <point x="336" y="106"/>
      <point x="470" y="-20"/>
    </contour>
    <contour>
      <point x="336" y="500" type="line"/>
      <point x="548" y="500" type="line"/>
      <point x="548" y="1380" type="line"/>
      <point x="336" y="1380" type="line"/>
    </contour>
    <contour>
      <point x="70" y="886" type="line"/>
      <point x="1030" y="886" type="line"/>
      <point x="1030" y="1060" type="line"/>
      <point x="70" y="1060" type="line"/>
    </contour>
  </outline>
</glyph>
<glyph name="u" format="2">
  <advance width="1200"/>
  <unicode hex="0075"/>
  <outline>
    <contour>
      <point x="526" y="-20" type="curve" smooth="yes"/>
      <point x="658" y="-20"/>
      <point x="752" y="60"/>
      <point x="784" y="204" type="curve"/>
      <point x="854" y="204" type="line"/>
      <point x="800" y="490" type="line"/>
      <point x="800" y="252"/>
      <point x="720" y="160"/>
      <point x="566" y="160" type="curve" smooth="yes"/>
      <point x="438" y="160"/>
      <point x="364" y="232"/>
      <point x="364" y="360" type="curve" smooth="yes"/>
      <point x="364" y="1080" type="line"/>
      <point x="156" y="1080" type="line"/>
      <point x="156" y="360" type="line" smooth="yes"/>
      <point x="156" y="118"/>
      <point x="290" y="-20"/>
    </contour>
    <contour>
      <point x="818" y="-10" type="line"/>
      <point x="1158" y="0" type="line"/>
      <point x="1158" y="170" type="line"/>
      <point x="1012" y="192" type="line"/>
      <point x="1012" y="430" type="line"/>
      <point x="800" y="430" type="line"/>
      <point x="800" y="244" type="line"/>
    </contour>
    <contour>
      <point x="800" y="300" type="line"/>
      <point x="1012" y="360" type="line"/>
      <point x="1012" y="1080" type="line"/>
      <point x="800" y="1080" type="line"/>
    </contour>
  </outline>
</glyph>
<glyph name="v" format="2">
  <advance width="1200"/>
  <unicode hex="0076"/>
  <guideline x="317" y="70" angle="0"/>
  <outline>
    <contour>
      <point x="464" y="0" type="line"/>
      <point x="746" y="0" type="line"/>
      <point x="1120" y="1060" type="line"/>
      <point x="894" y="1060" type="line"/>
      <point x="614" y="180" type="line"/>
      <point x="596" y="180" type="line"/>
      <point x="306" y="1060" type="line"/>
      <point x="80" y="1060" type="line"/>
    </contour>
  </outline>
</glyph>
<glyph name="w" format="2">
  <advance width="1200"/>
  <unicode hex="0077"/>
  <guideline x="317" y="70" angle="0"/>
  <outline>
    <contour>
      <point x="740" y="-20" type="line"/>
      <point x="1010" y="-20" type="line"/>
      <point x="1130" y="1060" type="line"/>
      <point x="930" y="1060" type="line"/>
      <point x="850" y="140" type="line"/>
      <point x="832" y="140" type="line"/>
      <point x="702" y="1060" type="line"/>
      <point x="478" y="1060" type="line"/>
      <point x="576" y="842" type="line"/>
      <point x="596" y="842" type="line"/>
    </contour>
    <contour>
      <point x="170" y="-20" type="line"/>
      <point x="440" y="-20" type="line"/>
      <point x="584" y="842" type="line"/>
      <point x="594" y="842" type="line"/>
      <point x="702" y="1060" type="line"/>
      <point x="478" y="1060" type="line"/>
      <point x="348" y="140" type="line"/>
      <point x="330" y="140" type="line"/>
      <point x="270" y="1060" type="line"/>
      <point x="70" y="1060" type="line"/>
    </contour>
  </outline>
</glyph>
<glyph name="x" format="2">
  <advance width="1200"/>
  <unicode hex="0078"/>
  <anchor x="600" y="0" name="bottom"/>
  <anchor x="600" y="1060" name="top"/>
  <outline>
    <contour>
      <point x="106" y="0" type="line"/>
      <point x="346" y="0" type="line"/>
      <point x="656" y="458" type="line"/>
      <point x="1094" y="1060" type="line"/>
      <point x="854" y="1060" type="line"/>
      <point x="528" y="584" type="line"/>
    </contour>
    <contour>
      <point x="854" y="0" type="line"/>
      <point x="1094" y="0" type="line"/>
      <point x="672" y="584" type="line"/>
      <point x="346" y="1060" type="line"/>
      <point x="106" y="1060" type="line"/>
      <point x="532" y="458" type="line"/>
    </contour>
  </outline>
</glyph>
<glyph name="y" format="2">
  <advance width="1200"/>
  <unicode hex="0079"/>
  <anchor x="940" y="0" name="bottom"/>
  <anchor x="610" y="1060" name="top"/>
  <outline>
    <contour>
      <point x="70" y="-480" type="line"/>
      <point x="250" y="-460" type="line" smooth="yes"/>
      <point x="534" y="-430"/>
      <point x="684" y="-286"/>
      <point x="804" y="94" type="curve" smooth="yes"/>
      <point x="1110" y="1060" type="line"/>
      <point x="890" y="1060" type="line"/>
      <point x="626" y="144" type="line" smooth="yes"/>
      <point x="546" y="-136"/>
      <point x="436" y="-244"/>
      <point x="226" y="-270" type="curve" smooth="yes"/>
      <point x="60" y="-290" type="line"/>
    </contour>
    <contour>
      <point x="462" y="0" type="line"/>
      <point x="628" y="0" type="line"/>
      <point x="628" y="160" type="line"/>
      <point x="606" y="160" type="line"/>
      <point x="270" y="1060" type="line"/>
      <point x="50" y="1060" type="line"/>
    </contour>
  </outline>
</glyph>
<glyph name="z" format="2">
  <advance width="1200"/>
  <unicode hex="007A"/>
  <outline>
    <contour>
      <point x="312" y="54" type="line"/>
      <point x="1016" y="884" type="line"/>
      <point x="880" y="1002" type="line"/>
      <point x="160" y="176" type="line"/>
    </contour>
    <contour>
      <point x="160" y="0" type="line"/>
      <point x="1036" y="0" type="line"/>
      <point x="1036" y="176" type="line"/>
      <point x="160" y="176" type="line"/>
    </contour>
    <contour>
      <point x="160" y="884" type="line"/>
      <point x="1016" y="884" type="line"/>
      <point x="1016" y="1060" type="line"/>
      <point x="160" y="1060" type="line"/>
    </contour>
  </outline>
</glyph>
<glyph name="braceleft" format="2">
  <advance width="1200"/>
  <unicode hex="007B"/>
  <outline>
    <contour>
      <point x="856" y="-224" type="curve" smooth="yes"/>
      <point x="920" y="-224"/>
      <point x="960" y="-216"/>
      <point x="996" y="-204" type="curve"/>
      <point x="972" y="-34" type="line"/>
      <point x="936" y="-46"/>
      <point x="902" y="-54"/>
      <point x="874" y="-54" type="curve" smooth="yes"/>
      <point x="760" y="-54"/>
      <point x="698" y="44"/>
      <point x="698" y="216" type="curve" smooth="yes"/>
      <point x="698" y="314"/>
      <point x="704" y="402"/>
      <point x="704" y="508" type="curve" smooth="yes"/>
      <point x="704" y="623"/>
      <point x="637" y="695"/>
      <point x="522" y="698" type="curve"/>
      <point x="522" y="732" type="line"/>
      <point x="637" y="735"/>
      <point x="704" y="803"/>
      <point x="704" y="922" type="curve" smooth="yes"/>
      <point x="704" y="1024"/>
      <point x="698" y="1112"/>
      <point x="698" y="1214" type="curve" smooth="yes"/>
      <point x="698" y="1374"/>
      <point x="760" y="1466"/>
      <point x="874" y="1466" type="curve" smooth="yes"/>
      <point x="902" y="1466"/>
      <point x="936" y="1458"/>
      <point x="972" y="1446" type="curve"/>
      <point x="996" y="1616" type="line"/>
      <point x="960" y="1628"/>
      <point x="920" y="1636"/>
      <point x="856" y="1636" type="curve" smooth="yes"/>
      <point x="620" y="1636"/>
      <point x="484" y="1484"/>
      <point x="484" y="1214" type="curve" smooth="yes"/>
      <point x="484" y="1122"/>
      <point x="486" y="1038"/>
      <point x="486" y="938" type="curve" smooth="yes"/>
      <point x="486" y="846"/>
      <point x="334" y="794"/>
      <point x="256" y="794" type="curve"/>
      <point x="256" y="636" type="line"/>
      <point x="338" y="636"/>
      <point x="486" y="604"/>
      <point x="486" y="492" type="curve" smooth="yes"/>
      <point x="486" y="396"/>
      <point x="484" y="308"/>
      <point x="484" y="216" type="curve" smooth="yes"/>
      <point x="484" y="-62"/>
      <point x="620" y="-224"/>
    </contour>
  </outline>
</glyph>
<glyph name="bar" format="2">
  <advance width="1200"/>
  <unicode hex="007C"/>
  <outline>
    <contour>
      <point x="500" y="-280" type="line"/>
      <point x="700" y="-280" type="line"/>
      <point x="700" y="1760" type="line"/>
      <point x="500" y="1760" type="line"/>
    </contour>
  </outline>
</glyph>
<glyph name="braceright" format="2">
  <advance width="1200"/>
  <unicode hex="007D"/>
  <outline>
    <contour>
      <point x="344" y="-224" type="curve" smooth="yes"/>
      <point x="580" y="-224"/>
      <point x="716" y="-62"/>
      <point x="716" y="216" type="curve" smooth="yes"/>
      <point x="716" y="308"/>
      <point x="714" y="396"/>
      <point x="714" y="492" type="curve" smooth="yes"/>
      <point x="714" y="604"/>
      <point x="862" y="636"/>
      <point x="944" y="636" type="curve"/>
      <point x="944" y="794" type="line"/>
      <point x="866" y="794"/>
      <point x="714" y="846"/>
      <point x="714" y="938" type="curve" smooth="yes"/>
      <point x="714" y="1038"/>
      <point x="716" y="1122"/>
      <point x="716" y="1214" type="curve" smooth="yes"/>
      <point x="716" y="1484"/>
      <point x="580" y="1636"/>
      <point x="344" y="1636" type="curve" smooth="yes"/>
      <point x="280" y="1636"/>
      <point x="240" y="1628"/>
      <point x="204" y="1616" type="curve"/>
      <point x="228" y="1446" type="line"/>
      <point x="264" y="1458"/>
      <point x="298" y="1466"/>
      <point x="326" y="1466" type="curve" smooth="yes"/>
      <point x="440" y="1466"/>
      <point x="502" y="1374"/>
      <point x="502" y="1214" type="curve" smooth="yes"/>
      <point x="502" y="1112"/>
      <point x="496" y="1024"/>
      <point x="496" y="922" type="curve" smooth="yes"/>
      <point x="496" y="803"/>
      <point x="563" y="735"/>
      <point x="678" y="732" type="curve"/>
      <point x="678" y="698" type="line"/>
      <point x="563" y="695"/>
      <point x="496" y="623"/>
      <point x="496" y="508" type="curve" smooth="yes"/>
      <point x="496" y="402"/>
      <point x="502" y="314"/>
      <point x="502" y="216" type="curve" smooth="yes"/>
      <point x="502" y="44"/>
      <point x="440" y="-54"/>
      <point x="326" y="-54" type="curve" smooth="yes"/>
      <point x="298" y="-54"/>
      <point x="264" y="-46"/>
      <point x="228" y="-34" type="curve"/>
      <point x="204" y="-204" type="line"/>
      <point x="240" y="-216"/>
      <point x="280" y="-224"/>
    </contour>
  </outline>
</glyph>
<glyph name="asciitilde" format="2">
  <advance width="1200"/>
  <unicode hex="007E"/>
  <outline>
    <contour>
      <point x="100" y="486" type="line"/>
      <point x="302" y="486" type="line"/>
      <point x="302" y="576" type="line" smooth="yes"/>
      <point x="302" y="659"/>
      <point x="334" y="695"/>
      <point x="409" y="695" type="curve" smooth="yes"/>
      <point x="477" y="695"/>
      <point x="536" y="650"/>
      <point x="604" y="609" type="curve" smooth="yes"/>
      <point x="680" y="563"/>
      <point x="765" y="520"/>
      <point x="860" y="520" type="curve" smooth="yes"/>
      <point x="1028" y="520"/>
      <point x="1100" y="619"/>
      <point x="1100" y="850" type="curve" smooth="yes"/>
      <point x="1100" y="930" type="line"/>
      <point x="898" y="930" type="line"/>
      <point x="898" y="840" type="line" smooth="yes"/>
      <point x="898" y="757"/>
      <point x="873" y="721"/>
      <point x="813" y="721" type="curve" smooth="yes"/>
      <point x="750" y="721"/>
      <point x="695" y="768"/>
      <point x="630" y="807" type="curve" smooth="yes"/>
      <point x="553" y="853"/>
      <point x="467" y="896"/>
      <point x="370" y="896" type="curve" smooth="yes"/>
      <point x="181" y="896"/>
      <point x="100" y="797"/>
      <point x="100" y="566" type="curve" smooth="yes"/>
    </contour>
  </outline>
</glyph>
<glyph name="cent" format="2">
  <advance width="1200"/>
  <unicode hex="00A2"/>
  <outline>
    <contour>
      <point x="594" y="-334" type="line"/>
      <point x="732" y="-334" type="line"/>
      <point x="732" y="1394" type="line"/>
      <point x="594" y="1394" type="line"/>
    </contour>
    <component base="c"/>
  </outline>
</glyph>
<glyph name="sterling" format="2">
  <advance width="1200"/>
  <unicode hex="00A3"/>
  <outline>
    <contour>
      <point x="132" y="0" type="line"/>
      <point x="344" y="0" type="line"/>
      <point x="344" y="186" type="line"/>
      <point x="453" y="338"/>
      <point x="506" y="474"/>
      <point x="506" y="627" type="curve" smooth="yes"/>
      <point x="506" y="1035" type="line" smooth="yes"/>
      <point x="506" y="1178"/>
      <point x="586" y="1256"/>
      <point x="702" y="1256" type="curve" smooth="yes"/>
      <point x="802" y="1256"/>
      <point x="891" y="1197"/>
      <point x="947" y="1094" type="curve"/>
      <point x="1105" y="1211" type="line"/>
      <point x="1041" y="1356"/>
      <point x="897" y="1440"/>
      <point x="710" y="1440" type="curve" smooth="yes"/>
      <point x="448" y="1440"/>
      <point x="292" y="1294"/>
      <point x="292" y="1036" type="curve" smooth="yes"/>
      <point x="292" y="627" type="line" smooth="yes"/>
      <point x="292" y="474"/>
      <point x="240" y="340"/>
      <point x="132" y="186" type="curve"/>
    </contour>
    <contour>
      <point x="192" y="0" type="line"/>
      <point x="1096" y="0" type="line"/>
      <point x="1096" y="186" type="line"/>
      <point x="192" y="186" type="line"/>
    </contour>
    <contour>
      <point x="109" y="581" type="line"/>
      <point x="897" y="581" type="line"/>
      <point x="897" y="719" type="line"/>
      <point x="109" y="719" type="line"/>
    </contour>
  </outline>
</glyph>
<glyph name="currency" format="2">
  <advance width="1200"/>
  <unicode hex="00A4"/>
  <outline>
    <contour>
      <point x="603" y="300" type="curve" smooth="yes"/>
      <point x="859" y="300"/>
      <point x="1027" y="459"/>
      <point x="1027" y="700" type="curve" smooth="yes"/>
      <point x="1027" y="941"/>
      <point x="859" y="1100"/>
      <point x="603" y="1100" type="curve" smooth="yes"/>
      <point x="347" y="1100"/>
      <point x="179" y="941"/>
      <point x="179" y="700" type="curve" smooth="yes"/>
      <point x="179" y="459"/>
      <point x="347" y="300"/>
    </contour>
    <contour>
      <point x="188" y="131" type="line"/>
      <point x="412" y="384" type="line"/>
      <point x="269" y="470" type="line"/>
      <point x="72" y="263" type="line"/>
    </contour>
    <contour>
      <point x="1012" y="131" type="line"/>
      <point x="1128" y="263" type="line"/>
      <point x="912" y="491" type="line"/>
      <point x="784" y="390" type="line"/>
    </contour>
    <contour>
      <point x="603" y="490" type="curve" smooth="yes"/>
      <point x="480" y="490"/>
      <point x="399" y="573"/>
      <point x="399" y="700" type="curve" smooth="yes"/>
      <point x="399" y="827"/>
      <point x="480" y="910"/>
      <point x="603" y="910" type="curve" smooth="yes"/>
      <point x="726" y="910"/>
      <point x="807" y="827"/>
      <point x="807" y="700" type="curve" smooth="yes"/>
      <point x="807" y="573"/>
      <point x="726" y="490"/>
    </contour>
    <contour>
      <point x="272" y="926" type="line"/>
      <point x="419" y="1008" type="line"/>
      <point x="199" y="1259" type="line"/>
      <point x="72" y="1135" type="line"/>
    </contour>
    <contour>
      <point x="929" y="926" type="line"/>
      <point x="1128" y="1135" type="line"/>
      <point x="1001" y="1259" type="line"/>
      <point x="786" y="1014" type="line"/>
    </contour>
  </outline>
</glyph>
<glyph name="yen" format="2">
  <advance width="1200"/>
  <unicode hex="00A5"/>
  <outline>
    <contour>
      <point x="162" y="639" type="line"/>
      <point x="162" y="501" type="line"/>
      <point x="1040" y="501" type="line"/>
      <point x="1040" y="639" type="line"/>
    </contour>
    <contour>
      <point x="162" y="329" type="line"/>
      <point x="162" y="191" type="line"/>
      <point x="1040" y="191" type="line"/>
      <point x="1040" y="329" type="line"/>
    </contour>
    <component base="Y"/>
  </outline>
</glyph>
<glyph name="brokenbar" format="2">
  <advance width="1200"/>
  <unicode hex="00A6"/>
  <outline>
    <contour>
      <point x="500" y="870" type="line"/>
      <point x="700" y="870" type="line"/>
      <point x="700" y="1730" type="line"/>
      <point x="500" y="1730" type="line"/>
    </contour>
    <contour>
      <point x="500" y="-310" type="line"/>
      <point x="700" y="-310" type="line"/>
      <point x="700" y="550" type="line"/>
      <point x="500" y="550" type="line"/>
    </contour>
  </outline>
</glyph>
<glyph name="section" format="2">
  <advance width="1200"/>
  <unicode hex="00A7"/>
  <outline>
    <contour>
      <point x="1131" y="674" type="curve" smooth="yes"/>
      <point x="1131" y="872"/>
      <point x="1028" y="943"/>
      <point x="809" y="1024" type="curve" smooth="yes"/>
      <point x="483" y="1144" type="line" smooth="yes"/>
      <point x="418" y="1168"/>
      <point x="389" y="1186"/>
      <point x="389" y="1248" type="curve" smooth="yes"/>
      <point x="389" y="1340"/>
      <point x="477" y="1378"/>
      <point x="687" y="1378" type="curve" smooth="yes"/>
      <point x="765" y="1378"/>
      <point x="843" y="1374"/>
      <point x="951" y="1364" type="curve"/>
      <point x="973" y="1548" type="line"/>
      <point x="879" y="1562"/>
      <point x="795" y="1568"/>
      <point x="693" y="1568" type="curve" smooth="yes"/>
      <point x="325" y="1568"/>
      <point x="169" y="1470"/>
      <point x="169" y="1238" type="curve" smooth="yes"/>
      <point x="169" y="1084"/>
      <point x="233" y="1027"/>
      <point x="464" y="950" type="curve"/>
      <point x="464" y="927" type="line"/>
      <point x="187" y="928"/>
      <point x="69" y="837"/>
      <point x="69" y="658" type="curve" smooth="yes"/>
      <point x="69" y="463"/>
      <point x="163" y="385"/>
      <point x="373" y="320" type="curve" smooth="yes"/>
      <point x="727" y="210" type="line" smooth="yes"/>
      <point x="785" y="192"/>
      <point x="811" y="166"/>
      <point x="811" y="102" type="curve" smooth="yes"/>
      <point x="811" y="10"/>
      <point x="725" y="-30"/>
      <point x="525" y="-30" type="curve" smooth="yes"/>
      <point x="429" y="-30"/>
      <point x="327" y="-20"/>
      <point x="187" y="2" type="curve"/>
      <point x="163" y="-190" type="line"/>
      <point x="257" y="-212"/>
      <point x="365" y="-220"/>
      <point x="525" y="-220" type="curve" smooth="yes"/>
      <point x="879" y="-220"/>
      <point x="1031" y="-122"/>
      <point x="1031" y="106" type="curve" smooth="yes"/>
      <point x="1031" y="248"/>
      <point x="964" y="318"/>
      <point x="822" y="375" type="curve"/>
      <point x="822" y="403" type="line"/>
      <point x="1038" y="405"/>
      <point x="1131" y="487"/>
    </contour>
    <contour>
      <point x="289" y="668" type="curve" smooth="yes"/>
      <point x="289" y="809"/>
      <point x="383" y="868"/>
      <point x="607" y="868" type="curve" smooth="yes"/>
      <point x="794" y="868"/>
      <point x="911" y="827"/>
      <point x="911" y="670" type="curve" smooth="yes"/>
      <point x="911" y="536"/>
      <point x="825" y="478"/>
      <point x="625" y="478" type="curve" smooth="yes"/>
      <point x="433" y="478"/>
      <point x="289" y="517"/>
    </contour>
  </outline>
</glyph>
<glyph name="copyright" format="2">
  <advance width="1200"/>
  <unicode hex="00A9"/>
  <outline>
    <contour>
      <point x="600" y="15" type="curve" smooth="yes"/>
      <point x="965" y="15"/>
      <point x="1174" y="263"/>
      <point x="1174" y="695" type="curve" smooth="yes"/>
      <point x="1174" y="1146"/>
      <point x="965" y="1405"/>
      <point x="600" y="1405" type="curve" smooth="yes"/>
      <point x="235" y="1405"/>
      <point x="26" y="1146"/>
      <point x="26" y="695" type="curve" smooth="yes"/>
      <point x="26" y="263"/>
      <point x="235" y="15"/>
    </contour>
    <contour>
      <point x="652" y="380" type="curve" smooth="yes"/>
      <point x="725" y="380"/>
      <point x="802" y="386"/>
      <point x="872" y="410" type="curve"/>
      <point x="848" y="566" type="line"/>
      <point x="793" y="550"/>
      <point x="735" y="540"/>
      <point x="676" y="540" type="curve" smooth="yes"/>
      <point x="547" y="540"/>
      <point x="476" y="604"/>
      <point x="476" y="722" type="curve" smooth="yes"/>
      <point x="476" y="823"/>
      <point x="534" y="880"/>
      <point x="636" y="880" type="curve" smooth="yes"/>
      <point x="689" y="880"/>
      <point x="736" y="853"/>
      <point x="764" y="807" type="curve"/>
      <point x="887" y="920" type="line"/>
      <point x="851" y="996"/>
      <point x="762" y="1040"/>
      <point x="644" y="1040" type="curve" smooth="yes"/>
      <point x="415" y="1040"/>
      <point x="286" y="919"/>
      <point x="286" y="712" type="curve" smooth="yes"/>
      <point x="286" y="498"/>
      <point x="419" y="380"/>
    </contour>
    <contour>
      <point x="600" y="169" type="curve" smooth="yes"/>
      <point x="343" y="169"/>
      <point x="196" y="361"/>
      <point x="196" y="695" type="curve" smooth="yes"/>
      <point x="196" y="1048"/>
      <point x="343" y="1251"/>
      <point x="600" y="1251" type="curve" smooth="yes"/>
      <point x="857" y="1251"/>
      <point x="1004" y="1048"/>
      <point x="1004" y="695" type="curve" smooth="yes"/>
      <point x="1004" y="361"/>
      <point x="857" y="169"/>
    </contour>
  </outline>
</glyph>
<glyph name="ordfeminine" format="2">
  <advance width="1200"/>
  <unicode hex="00AA"/>
  <outline>
    <contour>
      <point x="745" y="779" type="line"/>
      <point x="994" y="785" type="line"/>
      <point x="994" y="897" type="line"/>
      <point x="887" y="910" type="line"/>
      <point x="887" y="1159" type="line" smooth="yes"/>
      <point x="887" y="1340"/>
      <point x="774" y="1438"/>
      <point x="534" y="1439" type="curve" smooth="yes"/>
      <point x="372" y="1440" type="line"/>
      <point x="361" y="1294" type="line"/>
      <point x="546" y="1294" type="line" smooth="yes"/>
      <point x="662" y="1294"/>
      <point x="721" y="1252"/>
      <point x="721" y="1178" type="curve" smooth="yes"/>
      <point x="721" y="963" type="line"/>
      <point x="737" y="964" type="line"/>
    </contour>
    <contour>
      <point x="501" y="773" type="curve" smooth="yes"/>
      <point x="632" y="773"/>
      <point x="683" y="823"/>
      <point x="716" y="921" type="curve"/>
      <point x="696" y="914" type="line"/>
      <point x="757" y="914" type="line"/>
      <point x="721" y="1078" type="line"/>
      <point x="721" y="1039" type="line"/>
      <point x="721" y="977"/>
      <point x="662" y="909"/>
      <point x="545" y="909" type="curve" smooth="yes"/>
      <point x="488" y="909"/>
      <point x="459" y="935"/>
      <point x="459" y="983" type="curve" smooth="yes"/>
      <point x="459" y="1033"/>
      <point x="498" y="1059"/>
      <point x="573" y="1059" type="curve" smooth="yes"/>
      <point x="634" y="1059"/>
      <point x="693" y="1059"/>
      <point x="755" y="1049" type="curve"/>
      <point x="781" y="1157" type="line"/>
      <point x="727" y="1175"/>
      <point x="658" y="1183"/>
      <point x="569" y="1183" type="curve" smooth="yes"/>
      <point x="387" y="1183"/>
      <point x="284" y="1105"/>
      <point x="284" y="966" type="curve" smooth="yes"/>
      <point x="284" y="843"/>
      <point x="364" y="773"/>
    </contour>
  </outline>
</glyph>
<glyph name="guillemetleft" format="2">
  <advance width="1200"/>
  <unicode hex="00AB"/>
  <outline>
    <contour>
      <point x="1084" y="74" type="line"/>
      <point x="1084" y="304" type="line"/>
      <point x="784" y="520" type="line"/>
      <point x="784" y="538" type="line"/>
      <point x="1084" y="754" type="line"/>
      <point x="1084" y="984" type="line"/>
      <point x="596" y="600" type="line"/>
      <point x="596" y="458" type="line"/>
    </contour>
    <contour>
      <point x="564" y="74" type="line"/>
      <point x="564" y="304" type="line"/>
      <point x="264" y="520" type="line"/>
      <point x="264" y="538" type="line"/>
      <point x="564" y="754" type="line"/>
      <point x="564" y="984" type="line"/>
      <point x="76" y="600" type="line"/>
      <point x="76" y="458" type="line"/>
    </contour>
  </outline>
</glyph>
<glyph name="logicalnot" format="2">
  <advance width="1200"/>
  <unicode hex="00AC"/>
  <outline>
    <contour>
      <point x="100" y="717" type="line"/>
      <point x="1100" y="717" type="line"/>
      <point x="1100" y="903" type="line"/>
      <point x="100" y="903" type="line"/>
    </contour>
    <contour>
      <point x="908" y="350" type="line"/>
      <point x="1100" y="350" type="line"/>
      <point x="1100" y="817" type="line"/>
      <point x="908" y="817" type="line"/>
    </contour>
  </outline>
</glyph>
<glyph name="registered" format="2">
  <advance width="1200"/>
  <unicode hex="00AE"/>
  <outline>
    <contour>
      <point x="600" y="15" type="curve" smooth="yes"/>
      <point x="965" y="15"/>
      <point x="1174" y="263"/>
      <point x="1174" y="695" type="curve" smooth="yes"/>
      <point x="1174" y="1146"/>
      <point x="965" y="1405"/>
      <point x="600" y="1405" type="curve" smooth="yes"/>
      <point x="235" y="1405"/>
      <point x="26" y="1146"/>
      <point x="26" y="695" type="curve" smooth="yes"/>
      <point x="26" y="263"/>
      <point x="235" y="15"/>
    </contour>
    <contour>
      <point x="348" y="396" type="line"/>
      <point x="508" y="396" type="line"/>
      <point x="508" y="1030" type="line"/>
      <point x="348" y="1030" type="line"/>
    </contour>
    <contour>
      <point x="717" y="396" type="line"/>
      <point x="904" y="396" type="line"/>
      <point x="757" y="635" type="line"/>
      <point x="603" y="608" type="line"/>
    </contour>
    <contour>
      <point x="600" y="169" type="curve" smooth="yes"/>
      <point x="343" y="169"/>
      <point x="196" y="361"/>
      <point x="196" y="695" type="curve" smooth="yes"/>
      <point x="196" y="1048"/>
      <point x="343" y="1251"/>
      <point x="600" y="1251" type="curve" smooth="yes"/>
      <point x="857" y="1251"/>
      <point x="1004" y="1048"/>
      <point x="1004" y="695" type="curve" smooth="yes"/>
      <point x="1004" y="361"/>
      <point x="857" y="169"/>
    </contour>
    <contour>
      <point x="494" y="600" type="line"/>
      <point x="648" y="600" type="line" smooth="yes"/>
      <point x="802" y="600"/>
      <point x="890" y="682"/>
      <point x="890" y="825" type="curve" smooth="yes"/>
      <point x="890" y="955"/>
      <point x="802" y="1030"/>
      <point x="648" y="1030" type="curve" smooth="yes"/>
      <point x="474" y="1030" type="line"/>
      <point x="498" y="900" type="line"/>
      <point x="648" y="900" type="line" smooth="yes"/>
      <point x="706" y="900"/>
      <point x="740" y="869"/>
      <point x="740" y="815" type="curve" smooth="yes"/>
      <point x="740" y="761"/>
      <point x="706" y="730"/>
      <point x="648" y="730" type="curve" smooth="yes"/>
      <point x="494" y="730" type="line"/>
    </contour>
  </outline>
</glyph>
<glyph name="degree" format="2">
  <advance width="1200"/>
  <unicode hex="00B0"/>
  <outline>
    <contour>
      <point x="600" y="690" type="curve" smooth="yes"/>
      <point x="840" y="690"/>
      <point x="982" y="829"/>
      <point x="982" y="1065" type="curve" smooth="yes"/>
      <point x="982" y="1301"/>
      <point x="840" y="1440"/>
      <point x="600" y="1440" type="curve" smooth="yes"/>
      <point x="360" y="1440"/>
      <point x="218" y="1301"/>
      <point x="218" y="1065" type="curve" smooth="yes"/>
      <point x="218" y="829"/>
      <point x="360" y="690"/>
    </contour>
    <contour>
      <point x="600" y="860" type="curve" smooth="yes"/>
      <point x="482" y="860"/>
      <point x="413" y="936"/>
      <point x="413" y="1065" type="curve" smooth="yes"/>
      <point x="413" y="1194"/>
      <point x="482" y="1270"/>
      <point x="600" y="1270" type="curve" smooth="yes"/>
      <point x="718" y="1270"/>
      <point x="787" y="1194"/>
      <point x="787" y="1065" type="curve" smooth="yes"/>
      <point x="787" y="936"/>
      <point x="718" y="860"/>
    </contour>
  </outline>
</glyph>
<glyph name="plusminus" format="2">
  <advance width="1200"/>
  <unicode hex="00B1"/>
  <outline>
    <contour>
      <point x="504" y="246" type="line"/>
      <point x="696" y="246" type="line"/>
      <point x="696" y="1224" type="line"/>
      <point x="504" y="1224" type="line"/>
    </contour>
    <contour>
      <point x="100" y="683" type="line"/>
      <point x="1100" y="683" type="line"/>
      <point x="1100" y="869" type="line"/>
      <point x="100" y="869" type="line"/>
    </contour>
    <component base="minus" yOffset="-430"/>
  </outline>
</glyph>
<glyph name="twosuperior" format="2">
  <advance width="1200"/>
  <unicode hex="00B2"/>
  <outline>
    <contour>
      <point x="354" y="802" type="line"/>
      <point x="600" y="802" type="line"/>
      <point x="600" y="955" type="line"/>
      <point x="764" y="1043"/>
      <point x="844" y="1138"/>
      <point x="844" y="1242" type="curve" smooth="yes"/>
      <point x="844" y="1361"/>
      <point x="742" y="1440"/>
      <point x="586" y="1440" type="curve" smooth="yes"/>
      <point x="481" y="1440"/>
      <point x="408" y="1426"/>
      <point x="329" y="1382" type="curve"/>
      <point x="388" y="1244" type="line"/>
      <point x="442" y="1267"/>
      <point x="500" y="1280"/>
      <point x="549" y="1280" type="curve" smooth="yes"/>
      <point x="617" y="1280"/>
      <point x="651" y="1248"/>
      <point x="651" y="1187" type="curve" smooth="yes"/>
      <point x="651" y="1107"/>
      <point x="553" y="1029"/>
      <point x="354" y="959" type="curve"/>
    </contour>
    <contour>
      <point x="380" y="802" type="line"/>
      <point x="870" y="802" type="line"/>
      <point x="870" y="942" type="line"/>
      <point x="380" y="942" type="line"/>
    </contour>
  </outline>
</glyph>
<glyph name="threesuperior" format="2">
  <advance width="1200"/>
  <unicode hex="00B3"/>
  <outline>
    <contour>
      <point x="562" y="793" type="curve" smooth="yes"/>
      <point x="748" y="795"/>
      <point x="855" y="864"/>
      <point x="855" y="988" type="curve" smooth="yes"/>
      <point x="855" y="1078"/>
      <point x="778" y="1130"/>
      <point x="664" y="1140" type="curve" smooth="yes"/>
      <point x="491" y="1155" type="line"/>
      <point x="491" y="1059" type="line"/>
      <point x="555" y="1059" type="line" smooth="yes"/>
      <point x="636" y="1059"/>
      <point x="682" y="1040"/>
      <point x="682" y="1007" type="curve" smooth="yes"/>
      <point x="682" y="967"/>
      <point x="633" y="944"/>
      <point x="548" y="944" type="curve" smooth="yes"/>
      <point x="480" y="944"/>
      <point x="426" y="957"/>
      <point x="385" y="965" type="curve"/>
      <point x="344" y="819" type="line"/>
      <point x="401" y="802"/>
      <point x="475" y="792"/>
    </contour>
    <contour>
      <point x="491" y="1059" type="line"/>
      <point x="689" y="1089" type="line"/>
      <point x="689" y="1161" type="line"/>
      <point x="778" y="1179"/>
      <point x="838" y="1233"/>
      <point x="838" y="1302" type="curve" smooth="yes"/>
      <point x="838" y="1391"/>
      <point x="746" y="1440"/>
      <point x="582" y="1440" type="curve" smooth="yes"/>
      <point x="498" y="1440"/>
      <point x="422" y="1431"/>
      <point x="356" y="1410" type="curve"/>
      <point x="377" y="1261" type="line"/>
      <point x="428" y="1280"/>
      <point x="485" y="1290"/>
      <point x="552" y="1290" type="curve" smooth="yes"/>
      <point x="624" y="1290"/>
      <point x="664" y="1271"/>
      <point x="664" y="1241" type="curve" smooth="yes"/>
      <point x="664" y="1209"/>
      <point x="610" y="1184"/>
      <point x="481" y="1175" type="curve"/>
    </contour>
  </outline>
</glyph>
<glyph name="paragraph" format="2">
  <advance width="1200"/>
  <unicode hex="00B6"/>
  <outline>
    <contour>
      <point x="512" y="640" type="curve"/>
      <point x="536" y="850" type="line"/>
      <point x="516" y="1230" type="line"/>
      <point x="524" y="1420" type="line"/>
      <point x="211" y="1420"/>
      <point x="36" y="1273"/>
      <point x="36" y="1022" type="curve" smooth="yes"/>
      <point x="36" y="775"/>
      <point x="209" y="640"/>
    </contour>
    <contour>
      <point x="422" y="0" type="line"/>
      <point x="622" y="0" type="line"/>
      <point x="622" y="1286" type="line"/>
      <point x="422" y="1286" type="line"/>
    </contour>
    <contour>
      <point x="792" y="0" type="line"/>
      <point x="992" y="0" type="line"/>
      <point x="992" y="1420" type="line"/>
      <point x="792" y="1420" type="line"/>
    </contour>
    <contour>
      <point x="504" y="1230" type="line"/>
      <point x="1160" y="1230" type="line"/>
      <point x="1160" y="1420" type="line"/>
      <point x="524" y="1420" type="line"/>
    </contour>
  </outline>
</glyph>
<glyph name="onesuperior" format="2">
  <advance width="1200"/>
  <unicode hex="00B9"/>
  <outline>
    <contour>
      <point x="541" y="802" type="line"/>
      <point x="697" y="802" type="line"/>
      <point x="697" y="1422" type="line"/>
      <point x="541" y="1422" type="line"/>
    </contour>
    <contour>
      <point x="342" y="802" type="line"/>
      <point x="549" y="802" type="line"/>
      <point x="549" y="943" type="line"/>
      <point x="342" y="943" type="line"/>
    </contour>
    <contour>
      <point x="688" y="802" type="line"/>
      <point x="860" y="802" type="line"/>
      <point x="860" y="943" type="line"/>
      <point x="688" y="943" type="line"/>
    </contour>
    <contour>
      <point x="351" y="1211" type="line"/>
      <point x="541" y="1262" type="line"/>
      <point x="541" y="1422" type="line"/>
      <point x="351" y="1369" type="line"/>
    </contour>
  </outline>
</glyph>
<glyph name="ordmasculine" format="2">
  <advance width="1200"/>
  <unicode hex="00BA"/>
  <anchor x="300" y="5" name="ogonek"/>
  <outline>
    <contour>
      <point x="600" y="770" type="curve" smooth="yes"/>
      <point x="806" y="770"/>
      <point x="942" y="903"/>
      <point x="942" y="1105" type="curve" smooth="yes"/>
      <point x="942" y="1307"/>
      <point x="806" y="1440"/>
      <point x="600" y="1440" type="curve" smooth="yes"/>
      <point x="394" y="1440"/>
      <point x="258" y="1307"/>
      <point x="258" y="1105" type="curve" smooth="yes"/>
      <point x="258" y="903"/>
      <point x="394" y="770"/>
    </contour>
    <contour>
      <point x="600" y="920" type="curve" smooth="yes"/>
      <point x="505" y="920"/>
      <point x="443" y="994"/>
      <point x="443" y="1105" type="curve" smooth="yes"/>
      <point x="443" y="1217"/>
      <point x="505" y="1291"/>
      <point x="600" y="1291" type="curve" smooth="yes"/>
      <point x="695" y="1291"/>
      <point x="757" y="1217"/>
      <point x="757" y="1105" type="curve" smooth="yes"/>
      <point x="757" y="994"/>
      <point x="695" y="920"/>
    </contour>
  </outline>
</glyph>
<glyph name="guillemetright" format="2">
  <advance width="1200"/>
  <unicode hex="00BB"/>
  <guideline x="697" y="519" angle="0"/>
  <outline>
    <contour>
      <point x="116" y="74" type="line"/>
      <point x="604" y="458" type="line"/>
      <point x="604" y="600" type="line"/>
      <point x="116" y="984" type="line"/>
      <point x="116" y="774" type="line"/>
      <point x="416" y="538" type="line"/>
      <point x="416" y="520" type="line"/>
      <point x="116" y="284" type="line"/>
    </contour>
    <contour>
      <point x="636" y="74" type="line"/>
      <point x="1124" y="458" type="line"/>
      <point x="1124" y="600" type="line"/>
      <point x="636" y="984" type="line"/>
      <point x="636" y="774" type="line"/>
      <point x="936" y="538" type="line"/>
      <point x="936" y="520" type="line"/>
      <point x="636" y="284" type="line"/>
    </contour>
  </outline>
</glyph>
<glyph name="onequarter" format="2">
  <advance width="1200"/>
  <unicode hex="00BC"/>
  <outline>
    <contour>
      <point x="281" y="802" type="line"/>
      <point x="437" y="802" type="line"/>
      <point x="437" y="1422" type="line"/>
      <point x="281" y="1422" type="line"/>
    </contour>
    <contour>
      <point x="82" y="802" type="line"/>
      <point x="289" y="802" type="line"/>
      <point x="289" y="943" type="line"/>
      <point x="82" y="943" type="line"/>
    </contour>
    <contour>
      <point x="428" y="802" type="line"/>
      <point x="600" y="802" type="line"/>
      <point x="600" y="943" type="line"/>
      <point x="428" y="943" type="line"/>
    </contour>
    <contour>
      <point x="91" y="1211" type="line"/>
      <point x="281" y="1262" type="line"/>
      <point x="281" y="1422" type="line"/>
      <point x="91" y="1369" type="line"/>
    </contour>
    <contour>
      <point x="186" y="286" type="line"/>
      <point x="1116" y="956" type="line"/>
      <point x="1024" y="1086" type="line"/>
      <point x="94" y="422" type="line"/>
    </contour>
    <component base="foursuperior" xOffset="240" yOffset="-802"/>
  </outline>
</glyph>
<glyph name="onehalf" format="2">
  <advance width="1200"/>
  <unicode hex="00BD"/>
  <outline>
    <contour>
      <point x="281" y="802" type="line"/>
      <point x="437" y="802" type="line"/>
      <point x="437" y="1422" type="line"/>
      <point x="281" y="1422" type="line"/>
    </contour>
    <contour>
      <point x="82" y="802" type="line"/>
      <point x="289" y="802" type="line"/>
      <point x="289" y="943" type="line"/>
      <point x="82" y="943" type="line"/>
    </contour>
    <contour>
      <point x="428" y="802" type="line"/>
      <point x="600" y="802" type="line"/>
      <point x="600" y="943" type="line"/>
      <point x="428" y="943" type="line"/>
    </contour>
    <contour>
      <point x="91" y="1211" type="line"/>
      <point x="281" y="1262" type="line"/>
      <point x="281" y="1422" type="line"/>
      <point x="91" y="1369" type="line"/>
    </contour>
    <contour>
      <point x="186" y="296" type="line"/>
      <point x="1116" y="966" type="line"/>
      <point x="1024" y="1096" type="line"/>
      <point x="94" y="432" type="line"/>
    </contour>
    <component base="twosuperior" xOffset="270" yOffset="-803"/>
  </outline>
</glyph>
<glyph name="threequarters" format="2">
  <advance width="1200"/>
  <unicode hex="00BE"/>
  <outline>
    <contour>
      <point x="186" y="296" type="line"/>
      <point x="1116" y="966" type="line"/>
      <point x="1024" y="1096" type="line"/>
      <point x="94" y="432" type="line"/>
    </contour>
    <component base="foursuperior" xOffset="240" yOffset="-802"/>
    <component base="threesuperior" xOffset="-240"/>
  </outline>
</glyph>
<glyph name="AE" format="2">
  <advance width="1200"/>
  <unicode hex="00C6"/>
  <anchor x="640" y="0" name="bottom"/>
  <anchor x="1054" y="10" name="ogonek"/>
  <anchor x="640" y="1420" name="top"/>
  <outline>
    <contour>
      <point x="42" y="0" type="line"/>
      <point x="232" y="0" type="line"/>
      <point x="573" y="1248" type="line"/>
      <point x="707" y="1248" type="line"/>
      <point x="707" y="1420" type="line"/>
      <point x="432" y="1420" type="line"/>
    </contour>
    <contour>
      <point x="232" y="241" type="line"/>
      <point x="702" y="241" type="line"/>
      <point x="702" y="416" type="line"/>
      <point x="232" y="416" type="line"/>
    </contour>
    <contour>
      <point x="590" y="0" type="line"/>
      <point x="1100" y="0" type="line"/>
      <point x="1100" y="190" type="line"/>
      <point x="590" y="190" type="line"/>
    </contour>
    <contour>
      <point x="590" y="0" type="line"/>
      <point x="780" y="0" type="line"/>
      <point x="780" y="1420" type="line"/>
      <point x="590" y="1420" type="line"/>
    </contour>
    <contour>
      <point x="600" y="616" type="line"/>
      <point x="1040" y="616" type="line"/>
      <point x="1040" y="806" type="line"/>
      <point x="600" y="806" type="line"/>
    </contour>
    <contour>
      <point x="590" y="1230" type="line"/>
      <point x="1100" y="1230" type="line"/>
      <point x="1100" y="1420" type="line"/>
      <point x="590" y="1420" type="line"/>
    </contour>
  </outline>
</glyph>
<glyph name="Eth" format="2">
  <advance width="1200"/>
  <unicode hex="00D0"/>
  <anchor x="530" y="0" name="bottom"/>
  <anchor x="530" y="710" name="center"/>
  <anchor x="530" y="1420" name="top"/>
  <outline>
    <contour>
      <point x="12" y="612" type="line"/>
      <point x="651" y="612" type="line"/>
      <point x="651" y="802" type="line"/>
      <point x="12" y="802" type="line"/>
    </contour>
    <component base="D"/>
  </outline>
</glyph>
<glyph name="multiply" format="2">
  <advance width="1200"/>
  <unicode hex="00D7"/>
  <guideline x="511" y="114" angle="0"/>
  <guideline x="511" y="574" angle="0"/>
  <outline>
    <contour>
      <point x="249" y="188" type="line"/>
      <point x="121" y="309" type="line"/>
      <point x="951" y="1188" type="line"/>
      <point x="1079" y="1065" type="line"/>
    </contour>
    <contour>
      <point x="951" y="188" type="line"/>
      <point x="121" y="1065" type="line"/>
      <point x="249" y="1188" type="line"/>
      <point x="1079" y="309" type="line"/>
    </contour>
  </outline>
</glyph>
<glyph name="Oslash" format="2">
  <advance width="1200"/>
  <unicode hex="00D8"/>
  <outline>
    <contour>
      <point x="201" y="-134" type="line"/>
      <point x="1114" y="1457" type="line"/>
      <point x="979" y="1532" type="line"/>
      <point x="66" y="-59" type="line"/>
    </contour>
    <component base="O"/>
  </outline>
</glyph>
<glyph name="Thorn" format="2">
  <advance width="1200"/>
  <unicode hex="00DE"/>
  <anchor x="560" y="0" name="bottom"/>
  <anchor x="560" y="1420" name="top"/>
  <outline>
    <contour>
      <point x="336" y="220" type="line"/>
      <point x="578" y="220" type="line" smooth="yes"/>
      <point x="922" y="220"/>
      <point x="1120" y="398"/>
      <point x="1120" y="710" type="curve" smooth="yes"/>
      <point x="1120" y="1022"/>
      <point x="922" y="1200"/>
      <point x="578" y="1200" type="curve" smooth="yes"/>
      <point x="340" y="1200" type="line"/>
      <point x="340" y="1010" type="line"/>
      <point x="578" y="1010" type="line" smooth="yes"/>
      <point x="789" y="1010"/>
      <point x="910" y="902"/>
      <point x="910" y="710" type="curve" smooth="yes"/>
      <point x="910" y="520"/>
      <point x="789" y="410"/>
      <point x="578" y="410" type="curve" smooth="yes"/>
      <point x="336" y="410" type="line"/>
    </contour>
    <contour>
      <point x="160" y="0" type="line"/>
      <point x="360" y="0" type="line"/>
      <point x="360" y="1420" type="line"/>
      <point x="160" y="1420" type="line"/>
    </contour>
  </outline>
</glyph>
<glyph name="germandbls" format="2">
  <advance width="1200"/>
  <unicode hex="00DF"/>
  <outline>
    <contour>
      <point x="818" y="-20" type="curve" smooth="yes"/>
      <point x="1038" y="-20"/>
      <point x="1164" y="91"/>
      <point x="1164" y="286" type="curve" smooth="yes"/>
      <point x="1164" y="428"/>
      <point x="1066" y="519"/>
      <point x="980" y="599" type="curve" smooth="yes"/>
      <point x="923" y="661"/>
      <point x="872" y="715"/>
      <point x="872" y="780" type="curve" smooth="yes"/>
      <point x="872" y="856"/>
      <point x="903" y="898"/>
      <point x="928" y="946" type="curve" smooth="yes"/>
      <point x="974" y="1015"/>
      <point x="1029" y="1069"/>
      <point x="1029" y="1210" type="curve" smooth="yes"/>
      <point x="1029" y="1407"/>
      <point x="900" y="1520"/>
      <point x="674" y="1520" type="curve" smooth="yes"/>
      <point x="387" y="1520"/>
      <point x="222" y="1356"/>
      <point x="222" y="1070" type="curve" smooth="yes"/>
      <point x="222" y="0" type="line"/>
      <point x="434" y="0" type="line"/>
      <point x="434" y="1080" type="line" smooth="yes"/>
      <point x="434" y="1239"/>
      <point x="519" y="1330"/>
      <point x="668" y="1330" type="curve" smooth="yes"/>
      <point x="758" y="1328"/>
      <point x="809" y="1284"/>
      <point x="809" y="1210" type="curve" smooth="yes"/>
      <point x="809" y="1113"/>
      <point x="765" y="1050"/>
      <point x="727" y="991" type="curve" smooth="yes"/>
      <point x="694" y="929"/>
      <point x="652" y="863"/>
      <point x="652" y="770" type="curve" smooth="yes"/>
      <point x="652" y="626"/>
      <point x="741" y="559"/>
      <point x="821" y="489" type="curve" smooth="yes"/>
      <point x="887" y="437"/>
      <point x="944" y="379"/>
      <point x="944" y="282" type="curve" smooth="yes"/>
      <point x="944" y="211"/>
      <point x="898" y="170"/>
      <point x="818" y="170" type="curve" smooth="yes"/>
      <point x="760" y="170"/>
      <point x="687" y="182"/>
      <point x="590" y="202" type="curve"/>
      <point x="566" y="10" type="line"/>
      <point x="631" y="-9"/>
      <point x="712" y="-20"/>
    </contour>
    <contour>
      <point x="68" y="644" type="line"/>
      <point x="368" y="644" type="line"/>
      <point x="368" y="820" type="line"/>
      <point x="68" y="820" type="line"/>
    </contour>
  </outline>
</glyph>
<glyph name="ae" format="2">
  <advance width="1200"/>
  <unicode hex="00E6"/>
  <anchor x="600" y="0" name="bottom"/>
  <anchor x="600" y="1060" name="top"/>
  <outline>
    <contour>
      <point x="299" y="-20" type="curve" smooth="yes"/>
      <point x="486" y="-20"/>
      <point x="571" y="77"/>
      <point x="593" y="246" type="curve"/>
      <point x="509" y="224" type="line"/>
      <point x="673" y="224" type="line"/>
      <point x="521" y="556" type="line"/>
      <point x="521" y="380" type="line"/>
      <point x="521" y="234"/>
      <point x="459" y="150"/>
      <point x="353" y="150" type="curve" smooth="yes"/>
      <point x="268" y="150"/>
      <point x="211" y="208"/>
      <point x="211" y="296" type="curve" smooth="yes"/>
      <point x="211" y="403"/>
      <point x="281" y="474"/>
      <point x="387" y="474" type="curve" smooth="yes"/>
      <point x="462" y="474"/>
      <point x="524" y="474"/>
      <point x="559" y="444" type="curve"/>
      <point x="603" y="598" type="line"/>
      <point x="554" y="621"/>
      <point x="477" y="634"/>
      <point x="391" y="634" type="curve" smooth="yes"/>
      <point x="169" y="634"/>
      <point x="21" y="495"/>
      <point x="21" y="286" type="curve" smooth="yes"/>
      <point x="21" y="102"/>
      <point x="132" y="-20"/>
    </contour>
    <contour>
      <point x="521" y="310" type="line"/>
      <point x="673" y="310" type="line"/>
      <point x="673" y="634" type="line" smooth="yes"/>
      <point x="673" y="902"/>
      <point x="517" y="1058"/>
      <point x="245" y="1067" type="curve" smooth="yes"/>
      <point x="151" y="1070" type="line"/>
      <point x="131" y="888" type="line"/>
      <point x="225" y="885" type="line" smooth="yes"/>
      <point x="412" y="879"/>
      <point x="521" y="798"/>
      <point x="521" y="666" type="curve" smooth="yes"/>
      <point x="521" y="392" type="line"/>
    </contour>
    <contour>
      <point x="963" y="-20" type="curve" smooth="yes"/>
      <point x="1018" y="-20"/>
      <point x="1080" y="-13"/>
      <point x="1133" y="-2" type="curve"/>
      <point x="1107" y="183" type="line"/>
      <point x="1068" y="175"/>
      <point x="1024" y="170"/>
      <point x="987" y="170" type="curve" smooth="yes"/>
      <point x="807" y="170"/>
      <point x="703" y="306"/>
      <point x="703" y="542" type="curve" smooth="yes"/>
      <point x="703" y="789"/>
      <point x="749" y="894"/>
      <point x="852" y="894" type="curve" smooth="yes"/>
      <point x="944" y="894"/>
      <point x="983" y="803"/>
      <point x="983" y="588" type="curve"/>
      <point x="685" y="588" type="line"/>
      <point x="685" y="436" type="line"/>
      <point x="1169" y="436" type="line"/>
      <point x="1173" y="476"/>
      <point x="1175" y="526"/>
      <point x="1175" y="572" type="curve" smooth="yes"/>
      <point x="1175" y="895"/>
      <point x="1064" y="1080"/>
      <point x="870" y="1080" type="curve" smooth="yes"/>
      <point x="672" y="1080"/>
      <point x="557" y="880"/>
      <point x="557" y="532" type="curve" smooth="yes"/>
      <point x="557" y="171"/>
      <point x="705" y="-20"/>
    </contour>
  </outline>
</glyph>
<glyph name="eth" format="2">
  <advance width="1200"/>
  <unicode hex="00F0"/>
  <anchor x="600" y="0" name="bottom"/>
  <anchor x="600" y="1460" name="top"/>
  <outline>
    <contour>
      <point x="857" y="272" type="line"/>
      <point x="1079" y="526" type="line"/>
      <point x="1079" y="574" type="line" smooth="yes"/>
      <point x="1079" y="1087"/>
      <point x="871" y="1368"/>
      <point x="383" y="1516" type="curve"/>
      <point x="333" y="1416" type="line"/>
      <point x="701" y="1281"/>
      <point x="857" y="1057"/>
      <point x="857" y="666" type="curve" smooth="yes"/>
    </contour>
    <contour>
      <point x="591" y="164" type="curve" smooth="yes"/>
      <point x="425" y="164"/>
      <point x="327" y="270"/>
      <point x="327" y="450" type="curve" smooth="yes"/>
      <point x="327" y="630"/>
      <point x="425" y="736"/>
      <point x="591" y="736" type="curve" smooth="yes"/>
      <point x="758" y="736"/>
      <point x="857" y="630"/>
      <point x="857" y="450" type="curve" smooth="yes"/>
      <point x="857" y="270"/>
      <point x="758" y="164"/>
    </contour>
    <contour>
      <point x="579" y="-20" type="curve" smooth="yes"/>
      <point x="899" y="-20"/>
      <point x="1079" y="178"/>
      <point x="1079" y="526" type="curve"/>
      <point x="913" y="408" type="line"/>
      <point x="913" y="708" type="line"/>
      <point x="839" y="708" type="line"/>
      <point x="803" y="843"/>
      <point x="688" y="920"/>
      <point x="531" y="920" type="curve" smooth="yes"/>
      <point x="264" y="920"/>
      <point x="113" y="749"/>
      <point x="113" y="450" type="curve" smooth="yes"/>
      <point x="113" y="152"/>
      <point x="281" y="-20"/>
    </contour>
    <contour>
      <point x="273" y="997" type="line"/>
      <point x="1099" y="1237" type="line"/>
      <point x="1059" y="1412" type="line"/>
      <point x="233" y="1172" type="line"/>
    </contour>
  </outline>
</glyph>
<glyph name="divide" format="2">
  <advance width="1200"/>
  <unicode hex="00F7"/>
  <outline>
    <contour>
      <point x="600" y="944" type="curve" smooth="yes"/>
      <point x="678" y="944"/>
      <point x="741" y="1007"/>
      <point x="741" y="1085" type="curve" smooth="yes"/>
      <point x="741" y="1162"/>
      <point x="678" y="1225"/>
      <point x="600" y="1225" type="curve" smooth="yes"/>
      <point x="522" y="1225"/>
      <point x="459" y="1162"/>
      <point x="459" y="1085" type="curve" smooth="yes"/>
      <point x="459" y="1007"/>
      <point x="522" y="944"/>
    </contour>
    <contour>
      <point x="600" y="151" type="curve" smooth="yes"/>
      <point x="678" y="151"/>
      <point x="741" y="214"/>
      <point x="741" y="291" type="curve" smooth="yes"/>
      <point x="741" y="369"/>
      <point x="678" y="432"/>
      <point x="600" y="432" type="curve" smooth="yes"/>
      <point x="522" y="432"/>
      <point x="459" y="369"/>
      <point x="459" y="291" type="curve" smooth="yes"/>
      <point x="459" y="214"/>
      <point x="522" y="151"/>
    </contour>
    <component base="minus"/>
  </outline>
</glyph>
<glyph name="oslash" format="2">
  <advance width="1200"/>
  <unicode hex="00F8"/>
  <outline>
    <contour>
      <point x="301" y="-134" type="line"/>
      <point x="1011" y="1133" type="line"/>
      <point x="896" y="1198" type="line"/>
      <point x="196" y="-59" type="line"/>
    </contour>
    <component base="o"/>
  </outline>
</glyph>
<glyph name="thorn" format="2">
  <advance width="1200"/>
  <unicode hex="00FE"/>
  <anchor x="600" y="0" name="bottom"/>
  <anchor x="236" y="1460" name="top"/>
  <outline>
    <contour>
      <point x="168" y="-460" type="line"/>
      <point x="380" y="-460" type="line"/>
      <point x="380" y="1500" type="line"/>
      <point x="168" y="1500" type="line"/>
    </contour>
    <contour>
      <point x="681" y="-20" type="curve" smooth="yes"/>
      <point x="959" y="-20"/>
      <point x="1104" y="165"/>
      <point x="1104" y="520" type="curve" smooth="yes"/>
      <point x="1104" y="888"/>
      <point x="959" y="1080"/>
      <point x="681" y="1080" type="curve" smooth="yes"/>
      <point x="522" y="1080"/>
      <point x="417" y="1001"/>
      <point x="400" y="868" type="curve"/>
      <point x="308" y="868" type="line"/>
      <point x="380" y="566" type="line"/>
      <point x="380" y="785"/>
      <point x="467" y="900"/>
      <point x="634" y="900" type="curve" smooth="yes"/>
      <point x="805" y="900"/>
      <point x="894" y="770"/>
      <point x="894" y="520" type="curve" smooth="yes"/>
      <point x="894" y="283"/>
      <point x="805" y="160"/>
      <point x="634" y="160" type="curve" smooth="yes"/>
      <point x="467" y="160"/>
      <point x="380" y="275"/>
      <point x="380" y="494" type="curve"/>
      <point x="308" y="192" type="line"/>
      <point x="400" y="192" type="line"/>
      <point x="413" y="59"/>
      <point x="518" y="-20"/>
    </contour>
  </outline>
</glyph>
<glyph name="Aogonek" format="2">
  <advance width="1200"/>
  <unicode hex="0104"/>
  <anchor x="600" y="-388" name="bottom"/>
  <anchor x="1080" y="10" name="ogonek"/>
  <anchor x="600" y="1420" name="top"/>
  <outline>
    <contour>
      <point x="1018" y="-424" type="curve" smooth="yes"/>
      <point x="1044" y="-424"/>
      <point x="1077" y="-423"/>
      <point x="1108" y="-419" type="curve"/>
      <point x="1126" y="-249" type="line"/>
      <point x="1096" y="-253"/>
      <point x="1067" y="-256"/>
      <point x="1044" y="-256" type="curve" smooth="yes"/>
      <point x="970" y="-256"/>
      <point x="928" y="-220"/>
      <point x="928" y="-158" type="curve" smooth="yes"/>
      <point x="928" y="-57"/>
      <point x="1010" y="0"/>
      <point x="1152" y="0" type="curve"/>
      <point x="1132" y="32" type="line"/>
      <point x="962" y="50" type="line"/>
      <point x="945" y="0" type="line"/>
      <point x="839" y="-27"/>
      <point x="778" y="-104"/>
      <point x="778" y="-212" type="curve" smooth="yes"/>
      <point x="778" y="-347"/>
      <point x="865" y="-424"/>
    </contour>
    <component base="A"/>
  </outline>
</glyph>
<glyph name="dcaron" format="2">
  <advance width="1200"/>
  <unicode hex="010F"/>
  <anchor x="540" y="0" name="bottom"/>
  <anchor x="600" y="530" name="center"/>
  <anchor x="926" y="1500" name="top"/>
  <anchor x="1157" y="1060" name="topright"/>
  <outline>
    <contour>
      <point x="1122" y="1188" type="line"/>
      <point x="1294" y="1188" type="line"/>
      <point x="1384" y="1568" type="line"/>
      <point x="1172" y="1568" type="line"/>
    </contour>
    <component base="d"/>
  </outline>
</glyph>
<glyph name="dcroat" format="2">
  <advance width="1200"/>
  <unicode hex="0111"/>
  <outline>
    <contour>
      <point x="462" y="1218" type="line"/>
      <point x="1138" y="1218" type="line"/>
      <point x="1138" y="1392" type="line"/>
      <point x="462" y="1392" type="line"/>
    </contour>
    <component base="d"/>
  </outline>
</glyph>
<glyph name="Eogonek" format="2">
  <advance width="1200"/>
  <unicode hex="0118"/>
  <anchor x="600" y="-388" name="bottom"/>
  <outline>
    <contour>
      <point x="966" y="-424" type="curve" smooth="yes"/>
      <point x="992" y="-424"/>
      <point x="1025" y="-421"/>
      <point x="1056" y="-415" type="curve"/>
      <point x="1074" y="-245" type="line"/>
      <point x="1044" y="-252"/>
      <point x="1015" y="-256"/>
      <point x="992" y="-256" type="curve" smooth="yes"/>
      <point x="918" y="-256"/>
      <point x="876" y="-224"/>
      <point x="876" y="-168" type="curve" smooth="yes"/>
      <point x="876" y="-61"/>
      <point x="958" y="0"/>
      <point x="1100" y="0" type="curve"/>
      <point x="1080" y="32" type="line"/>
      <point x="840" y="30" type="line"/>
      <point x="840" y="-20" type="line"/>
      <point x="767" y="-44"/>
      <point x="726" y="-114"/>
      <point x="726" y="-212" type="curve" smooth="yes"/>
      <point x="726" y="-347"/>
      <point x="813" y="-424"/>
    </contour>
    <component base="E"/>
  </outline>
</glyph>
<glyph name="eogonek" format="2">
  <advance width="1200"/>
  <unicode hex="0119"/>
  <anchor x="630" y="-480" name="bottom"/>
  <outline>
    <contour>
      <point x="868" y="-424" type="curve" smooth="yes"/>
      <point x="894" y="-424"/>
      <point x="924" y="-421"/>
      <point x="958" y="-415" type="curve"/>
      <point x="976" y="-245" type="line"/>
      <point x="943" y="-253"/>
      <point x="916" y="-256"/>
      <point x="894" y="-256" type="curve" smooth="yes"/>
      <point x="801" y="-256"/>
      <point x="778" y="-203"/>
      <point x="778" y="-168" type="curve" smooth="yes"/>
      <point x="778" y="-55"/>
      <point x="900" y="-16"/>
      <point x="1002" y="8" type="curve"/>
      <point x="982" y="40" type="line"/>
      <point x="742" y="30" type="line"/>
      <point x="742" y="-40" type="line"/>
      <point x="670" y="-64"/>
      <point x="628" y="-134"/>
      <point x="628" y="-232" type="curve" smooth="yes"/>
      <point x="628" y="-354"/>
      <point x="715" y="-424"/>
    </contour>
    <component base="e"/>
  </outline>
</glyph>
<glyph name="Hbar" format="2">
  <advance width="1200"/>
  <unicode hex="0126"/>
  <anchor x="600" y="0" name="bottom"/>
  <anchor x="600" y="710" name="center"/>
  <anchor x="600" y="1420" name="top"/>
  <anchor x="20" y="1420" name="topleft"/>
  <outline>
    <contour>
      <point x="62" y="1002" type="line"/>
      <point x="1138" y="1002" type="line"/>
      <point x="1138" y="1192" type="line"/>
      <point x="62" y="1192" type="line"/>
    </contour>
    <component base="H"/>
  </outline>
</glyph>
<glyph name="hbar" format="2">
  <advance width="1200"/>
  <unicode hex="0127"/>
  <anchor x="600" y="0" name="bottom"/>
  <anchor x="600" y="784" name="center"/>
  <anchor x="274" y="1500" name="top"/>
  <outline>
    <contour>
      <point x="22" y="1218" type="line"/>
      <point x="738" y="1218" type="line"/>
      <point x="738" y="1392" type="line"/>
      <point x="22" y="1392" type="line"/>
    </contour>
    <component base="h"/>
  </outline>
</glyph>
<glyph name="Iogonek" format="2">
  <advance width="1200"/>
  <unicode hex="012E"/>
  <outline>
    <contour>
      <point x="769" y="0" type="curve"/>
      <point x="749" y="32" type="line"/>
      <point x="549" y="30" type="line"/>
      <point x="549" y="-20" type="line"/>
      <point x="451" y="-47"/>
      <point x="395" y="-124"/>
      <point x="395" y="-232" type="curve" smooth="yes"/>
      <point x="395" y="-354"/>
      <point x="482" y="-424"/>
      <point x="635" y="-424" type="curve" smooth="yes"/>
      <point x="661" y="-424"/>
      <point x="694" y="-421"/>
      <point x="725" y="-415" type="curve"/>
      <point x="743" y="-244" type="line"/>
      <point x="713" y="-252"/>
      <point x="684" y="-256"/>
      <point x="661" y="-256" type="curve" smooth="yes"/>
      <point x="587" y="-256"/>
      <point x="545" y="-224"/>
      <point x="545" y="-168" type="curve" smooth="yes"/>
      <point x="545" y="-61"/>
      <point x="627" y="0"/>
    </contour>
    <component base="I"/>
  </outline>
</glyph>
<glyph name="iogonek" format="2">
  <advance width="1200"/>
  <unicode hex="012F"/>
  <anchor x="670" y="0" name="bottom"/>
  <outline>
    <contour>
      <point x="670" y="-424" type="curve" smooth="yes"/>
      <point x="696" y="-424"/>
      <point x="729" y="-421"/>
      <point x="760" y="-415" type="curve"/>
      <point x="778" y="-245" type="line"/>
      <point x="748" y="-252"/>
      <point x="719" y="-256"/>
      <point x="696" y="-256" type="curve" smooth="yes"/>
      <point x="622" y="-256"/>
      <point x="580" y="-224"/>
      <point x="580" y="-168" type="curve" smooth="yes"/>
      <point x="580" y="-61"/>
      <point x="662" y="0"/>
      <point x="804" y="0" type="curve"/>
      <point x="784" y="32" type="line"/>
      <point x="544" y="30" type="line"/>
      <point x="544" y="-20" type="line"/>
      <point x="471" y="-44"/>
      <point x="430" y="-114"/>
      <point x="430" y="-212" type="curve" smooth="yes"/>
      <point x="430" y="-347"/>
      <point x="517" y="-424"/>
    </contour>
    <component base="i"/>
  </outline>
</glyph>
<glyph name="idotless" format="2">
  <advance width="1200"/>
  <unicode hex="0131"/>
  <anchor x="670" y="0" name="bottom"/>
  <anchor x="731" y="10" name="ogonek"/>
  <anchor x="650" y="1060" name="top"/>
  <outline>
    <contour>
      <point x="564" y="0" type="line"/>
      <point x="776" y="0" type="line"/>
      <point x="776" y="1060" type="line"/>
      <point x="564" y="1060" type="line"/>
    </contour>
    <contour>
      <point x="160" y="0" type="line"/>
      <point x="584" y="0" type="line"/>
      <point x="584" y="174" type="line"/>
      <point x="160" y="174" type="line"/>
    </contour>
    <contour>
      <point x="756" y="0" type="line"/>
      <point x="1102" y="0" type="line"/>
      <point x="1102" y="174" type="line"/>
      <point x="756" y="174" type="line"/>
    </contour>
    <contour>
      <point x="220" y="886" type="line"/>
      <point x="776" y="886" type="line"/>
      <point x="776" y="1060" type="line"/>
      <point x="220" y="1060" type="line"/>
    </contour>
  </outline>
</glyph>
<glyph name="IJ" format="2">
  <advance width="1200"/>
  <unicode hex="0132"/>
  <anchor x="600" y="0" name="bottom"/>
  <anchor x="600" y="1420" name="top"/>
  <outline>
    <contour>
      <point x="634" y="-20" type="curve" smooth="yes"/>
      <point x="934" y="-20"/>
      <point x="1082" y="131"/>
      <point x="1082" y="436" type="curve" smooth="yes"/>
      <point x="1082" y="1420" type="line"/>
      <point x="874" y="1420" type="line"/>
      <point x="874" y="436" type="line" smooth="yes"/>
      <point x="874" y="251"/>
      <point x="796" y="160"/>
      <point x="639" y="160" type="curve" smooth="yes"/>
      <point x="500" y="160"/>
      <point x="430" y="225"/>
      <point x="430" y="356" type="curve"/>
      <point x="222" y="356" type="line"/>
      <point x="222" y="105"/>
      <point x="358" y="-20"/>
    </contour>
    <contour>
      <point x="55" y="497" type="line"/>
      <point x="599" y="497" type="line"/>
      <point x="599" y="687" type="line"/>
      <point x="55" y="687" type="line"/>
    </contour>
    <contour>
      <point x="227" y="497" type="line"/>
      <point x="425" y="497" type="line"/>
      <point x="425" y="1420" type="line"/>
      <point x="227" y="1420" type="line"/>
    </contour>
    <contour>
      <point x="55" y="1230" type="line"/>
      <point x="579" y="1230" type="line"/>
      <point x="579" y="1420" type="line"/>
      <point x="55" y="1420" type="line"/>
    </contour>
    <contour>
      <point x="690" y="1230" type="line"/>
      <point x="976" y="1230" type="line"/>
      <point x="976" y="1420" type="line"/>
      <point x="690" y="1420" type="line"/>
    </contour>
  </outline>
</glyph>
<glyph name="ij" format="2">
  <advance width="1200"/>
  <unicode hex="0133"/>
  <outline>
    <contour>
      <point x="252" y="-480" type="line"/>
      <point x="422" y="-468" type="line" smooth="yes"/>
      <point x="798" y="-441"/>
      <point x="960" y="-284"/>
      <point x="960" y="94" type="curve" smooth="yes"/>
      <point x="960" y="384" type="line"/>
      <point x="748" y="384" type="line"/>
      <point x="748" y="62" type="line" smooth="yes"/>
      <point x="748" y="-156"/>
      <point x="656" y="-255"/>
      <point x="442" y="-274" type="curve" smooth="yes"/>
      <point x="242" y="-292" type="line"/>
    </contour>
    <contour>
      <point x="244" y="0" type="line"/>
      <point x="456" y="0" type="line"/>
      <point x="456" y="1060" type="line"/>
      <point x="244" y="1060" type="line"/>
    </contour>
    <contour>
      <point x="748" y="350" type="line"/>
      <point x="960" y="350" type="line"/>
      <point x="960" y="1060" type="line"/>
      <point x="748" y="1060" type="line"/>
    </contour>
    <contour>
      <point x="348" y="1228" type="curve" smooth="yes"/>
      <point x="430" y="1228"/>
      <point x="496" y="1294"/>
      <point x="496" y="1376" type="curve" smooth="yes"/>
      <point x="496" y="1458"/>
      <point x="430" y="1524"/>
      <point x="348" y="1524" type="curve" smooth="yes"/>
      <point x="266" y="1524"/>
      <point x="200" y="1458"/>
      <point x="200" y="1376" type="curve" smooth="yes"/>
      <point x="200" y="1294"/>
      <point x="266" y="1228"/>
    </contour>
    <contour>
      <point x="852" y="1228" type="curve" smooth="yes"/>
      <point x="934" y="1228"/>
      <point x="1000" y="1294"/>
      <point x="1000" y="1376" type="curve" smooth="yes"/>
      <point x="1000" y="1458"/>
      <point x="934" y="1524"/>
      <point x="852" y="1524" type="curve" smooth="yes"/>
      <point x="770" y="1524"/>
      <point x="704" y="1458"/>
      <point x="704" y="1376" type="curve" smooth="yes"/>
      <point x="704" y="1294"/>
      <point x="770" y="1228"/>
    </contour>
  </outline>
</glyph>
<glyph name="kgreenlandic" format="2">
  <advance width="1200"/>
  <unicode hex="0138"/>
  <anchor x="600" y="0" name="bottom"/>
  <anchor x="600" y="1060" name="top"/>
  <outline>
    <contour>
      <point x="310" y="402" type="line"/>
      <point x="480" y="402" type="line" smooth="yes"/>
      <point x="822" y="402"/>
      <point x="1016" y="618"/>
      <point x="1072" y="1060" type="curve"/>
      <point x="852" y="1060" type="line"/>
      <point x="806" y="717"/>
      <point x="694" y="592"/>
      <point x="430" y="592" type="curve" smooth="yes"/>
      <point x="310" y="592" type="line"/>
    </contour>
    <contour>
      <point x="160" y="0" type="line"/>
      <point x="372" y="0" type="line"/>
      <point x="372" y="1060" type="line"/>
      <point x="160" y="1060" type="line"/>
    </contour>
    <contour>
      <point x="878" y="0" type="line"/>
      <point x="1140" y="0" type="line"/>
      <point x="776" y="598" type="line"/>
      <point x="576" y="516" type="line"/>
    </contour>
  </outline>
</glyph>
<glyph name="Lcaron" format="2">
  <advance width="1200"/>
  <unicode hex="013D"/>
  <anchor x="620" y="0" name="bottom"/>
  <anchor x="600" y="710" name="center"/>
  <anchor x="260" y="1420" name="top"/>
  <anchor x="1180" y="1420" name="topright"/>
  <outline>
    <contour>
      <point x="762" y="1188" type="line"/>
      <point x="934" y="1188" type="line"/>
      <point x="1024" y="1568" type="line"/>
      <point x="812" y="1568" type="line"/>
    </contour>
    <component base="L"/>
  </outline>
</glyph>
<glyph name="lcaron" format="2">
  <advance width="1200"/>
  <unicode hex="013E"/>
  <anchor x="670" y="0" name="bottom"/>
  <anchor x="510" y="784" name="center"/>
  <anchor x="506" y="1500" name="top"/>
  <anchor x="960" y="1500" name="topright"/>
  <outline>
    <contour>
      <point x="762" y="1188" type="line"/>
      <point x="934" y="1188" type="line"/>
      <point x="1024" y="1568" type="line"/>
      <point x="812" y="1568" type="line"/>
    </contour>
    <component base="l"/>
  </outline>
</glyph>
<glyph name="Lslash" format="2">
  <advance width="1200"/>
  <unicode hex="0141"/>
  <anchor x="620" y="0" name="bottom"/>
  <anchor x="600" y="710" name="center"/>
  <anchor x="260" y="1420" name="top"/>
  <anchor x="1180" y="1420" name="topright"/>
  <outline>
    <contour>
      <point x="34" y="462" type="line"/>
      <point x="835" y="881" type="line"/>
      <point x="748" y="1035" type="line"/>
      <point x="-54" y="616" type="line"/>
    </contour>
    <component base="L"/>
  </outline>
</glyph>
<glyph name="lslash" format="2">
  <advance width="1200"/>
  <unicode hex="0142"/>
  <outline>
    <contour>
      <point x="158" y="567" type="line"/>
      <point x="924" y="767" type="line"/>
      <point x="884" y="942" type="line"/>
      <point x="118" y="742" type="line"/>
    </contour>
    <component base="l"/>
  </outline>
</glyph>
<glyph name="napostrophe" format="2">
  <advance width="1200"/>
  <unicode hex="0149"/>
  <outline>
    <contour>
      <point x="169" y="1140" type="line"/>
      <point x="225" y="1201" type="line" smooth="yes"/>
      <point x="305" y="1289"/>
      <point x="345" y="1377"/>
      <point x="345" y="1458" type="curve" smooth="yes"/>
      <point x="345" y="1617"/>
      <point x="259" y="1700"/>
      <point x="91" y="1700" type="curve" smooth="yes"/>
      <point x="16" y="1700" type="line"/>
      <point x="16" y="1515" type="line"/>
      <point x="61" y="1515" type="line" smooth="yes"/>
      <point x="113" y="1515"/>
      <point x="140" y="1496"/>
      <point x="140" y="1458" type="curve" smooth="yes"/>
      <point x="140" y="1419"/>
      <point x="119" y="1379"/>
      <point x="79" y="1337" type="curve" smooth="yes"/>
      <point x="19" y="1272" type="line"/>
    </contour>
    <component base="n"/>
  </outline>
</glyph>
<glyph name="Eng" format="2">
  <advance width="1200"/>
  <unicode hex="014A"/>
  <guideline x="860" y="123" angle="90"/>
  <anchor x="600" y="-388" name="bottom"/>
  <outline>
    <contour>
      <point x="593" y="-480" type="line"/>
      <point x="723" y="-468" type="line" smooth="yes"/>
      <point x="932" y="-449"/>
      <point x="1052" y="-313"/>
      <point x="1052" y="-96" type="curve" smooth="yes"/>
      <point x="1052" y="184" type="line"/>
      <point x="844" y="184" type="line"/>
      <point x="844" y="-86" type="line" smooth="yes"/>
      <point x="844" y="-194"/>
      <point x="793" y="-247"/>
      <point x="693" y="-262" type="curve" smooth="yes"/>
      <point x="573" y="-280" type="line"/>
    </contour>
    <component base="N"/>
  </outline>
</glyph>
<glyph name="eng" format="2">
  <advance width="1200"/>
  <unicode hex="014B"/>
  <outline>
    <contour>
      <point x="464" y="-480" type="line"/>
      <point x="564" y="-468" type="line" smooth="yes"/>
      <point x="891" y="-438"/>
      <point x="1032" y="-284"/>
      <point x="1032" y="94" type="curve" smooth="yes"/>
      <point x="1032" y="444" type="line"/>
      <point x="820" y="444" type="line"/>
      <point x="820" y="62" type="line" smooth="yes"/>
      <point x="820" y="-156"/>
      <point x="749" y="-254"/>
      <point x="584" y="-274" type="curve" smooth="yes"/>
      <point x="454" y="-292" type="line"/>
    </contour>
    <contour>
      <point x="168" y="0" type="line"/>
      <point x="380" y="0" type="line"/>
      <point x="380" y="836" type="line"/>
      <point x="360" y="1060" type="line"/>
      <point x="168" y="1060" type="line"/>
    </contour>
    <contour>
      <point x="820" y="389" type="line"/>
      <point x="1032" y="389" type="line"/>
      <point x="1032" y="690" type="line" smooth="yes"/>
      <point x="1032" y="938"/>
      <point x="904" y="1080"/>
      <point x="680" y="1080" type="curve" smooth="yes"/>
      <point x="502" y="1080"/>
      <point x="412" y="1010"/>
      <point x="400" y="868" type="curve"/>
      <point x="318" y="868" type="line"/>
      <point x="380" y="596" type="line"/>
      <point x="380" y="800"/>
      <point x="464" y="900"/>
      <point x="630" y="900" type="curve" smooth="yes"/>
      <point x="750" y="900"/>
      <point x="820" y="824"/>
      <point x="820" y="690" type="curve" smooth="yes"/>
    </contour>
  </outline>
</glyph>
<glyph name="OE" format="2">
  <advance width="1200"/>
  <unicode hex="0152"/>
  <anchor x="640" y="0" name="bottom"/>
  <anchor x="640" y="1420" name="top"/>
  <outline>
    <contour>
      <point x="520" y="-20" type="curve" smooth="yes"/>
      <point x="595" y="-20"/>
      <point x="653" y="0"/>
      <point x="700" y="0" type="curve" smooth="yes"/>
      <point x="791" y="0" type="line"/>
      <point x="791" y="1420" type="line"/>
      <point x="690" y="1420" type="line" smooth="yes"/>
      <point x="628" y="1420"/>
      <point x="588" y="1440"/>
      <point x="520" y="1440" type="curve" smooth="yes"/>
      <point x="238" y="1440"/>
      <point x="76" y="1170"/>
      <point x="76" y="700" type="curve" smooth="yes"/>
      <point x="76" y="242"/>
      <point x="238" y="-20"/>
    </contour>
    <contour>
      <point x="640" y="0" type="line"/>
      <point x="1100" y="0" type="line"/>
      <point x="1100" y="180" type="line"/>
      <point x="640" y="180" type="line"/>
    </contour>
    <contour>
      <point x="530" y="164" type="curve" smooth="yes"/>
      <point x="375" y="164"/>
      <point x="286" y="359"/>
      <point x="286" y="700" type="curve" smooth="yes"/>
      <point x="286" y="1053"/>
      <point x="371" y="1256"/>
      <point x="520" y="1256" type="curve" smooth="yes"/>
      <point x="542" y="1256"/>
      <point x="563" y="1248"/>
      <point x="579" y="1234" type="curve"/>
      <point x="579" y="170" type="line"/>
      <point x="565" y="166"/>
      <point x="547" y="164"/>
    </contour>
    <contour>
      <point x="670" y="621" type="line"/>
      <point x="1040" y="621" type="line"/>
      <point x="1040" y="801" type="line"/>
      <point x="670" y="801" type="line"/>
    </contour>
    <contour>
      <point x="630" y="1240" type="line"/>
      <point x="1100" y="1240" type="line"/>
      <point x="1100" y="1420" type="line"/>
      <point x="630" y="1420" type="line"/>
    </contour>
  </outline>
</glyph>
<glyph name="oe" format="2">
  <advance width="1200"/>
  <unicode hex="0153"/>
  <anchor x="610" y="0" name="bottom"/>
  <anchor x="610" y="1060" name="top"/>
  <outline>
    <contour>
      <point x="364" y="-20" type="curve" smooth="yes"/>
      <point x="568" y="-20"/>
      <point x="668" y="162"/>
      <point x="668" y="530" type="curve" smooth="yes"/>
      <point x="668" y="898"/>
      <point x="568" y="1080"/>
      <point x="364" y="1080" type="curve" smooth="yes"/>
      <point x="134" y="1080"/>
      <point x="20" y="898"/>
      <point x="20" y="530" type="curve" smooth="yes"/>
      <point x="20" y="162"/>
      <point x="134" y="-20"/>
    </contour>
    <contour>
      <point x="364" y="170" type="curve" smooth="yes"/>
      <point x="255" y="170"/>
      <point x="202" y="289"/>
      <point x="202" y="530" type="curve" smooth="yes"/>
      <point x="202" y="771"/>
      <point x="255" y="890"/>
      <point x="364" y="890" type="curve" smooth="yes"/>
      <point x="461" y="890"/>
      <point x="508" y="771"/>
      <point x="508" y="530" type="curve" smooth="yes"/>
      <point x="508" y="289"/>
      <point x="461" y="170"/>
    </contour>
    <contour>
      <point x="962" y="-20" type="curve" smooth="yes"/>
      <point x="1017" y="-20"/>
      <point x="1079" y="-13"/>
      <point x="1132" y="-2" type="curve"/>
      <point x="1106" y="169" type="line"/>
      <point x="1067" y="161"/>
      <point x="1023" y="156"/>
      <point x="986" y="156" type="curve" smooth="yes"/>
      <point x="806" y="156"/>
      <point x="702" y="297"/>
      <point x="702" y="542" type="curve" smooth="yes"/>
      <point x="702" y="789"/>
      <point x="746" y="894"/>
      <point x="846" y="894" type="curve" smooth="yes"/>
      <point x="949" y="894"/>
      <point x="992" y="803"/>
      <point x="992" y="588" type="curve"/>
      <point x="684" y="588" type="line"/>
      <point x="684" y="436" type="line"/>
      <point x="1168" y="436" type="line"/>
      <point x="1172" y="476"/>
      <point x="1174" y="526"/>
      <point x="1174" y="572" type="curve" smooth="yes"/>
      <point x="1174" y="895"/>
      <point x="1063" y="1080"/>
      <point x="869" y="1080" type="curve" smooth="yes"/>
      <point x="671" y="1080"/>
      <point x="556" y="880"/>
      <point x="556" y="532" type="curve" smooth="yes"/>
      <point x="556" y="181"/>
      <point x="704" y="-20"/>
    </contour>
  </outline>
</glyph>
<glyph name="tcaron" format="2">
  <advance width="1200"/>
  <unicode hex="0165"/>
  <outline>
    <contour>
      <point x="682" y="1188" type="line"/>
      <point x="854" y="1188" type="line"/>
      <point x="944" y="1568" type="line"/>
      <point x="732" y="1568" type="line"/>
    </contour>
    <component base="t"/>
  </outline>
</glyph>
<glyph name="Tbar" format="2">
  <advance width="1200"/>
  <unicode hex="0166"/>
  <outline>
    <contour>
      <point x="192" y="587" type="line"/>
      <point x="1008" y="587" type="line"/>
      <point x="1008" y="777" type="line"/>
      <point x="192" y="777" type="line"/>
    </contour>
    <component base="T"/>
  </outline>
</glyph>
<glyph name="tbar" format="2">
  <advance width="1200"/>
  <unicode hex="0167"/>
  <outline>
    <contour>
      <point x="60" y="496" type="line"/>
      <point x="1020" y="496" type="line"/>
      <point x="1020" y="672" type="line"/>
      <point x="60" y="672" type="line"/>
    </contour>
    <component base="t"/>
  </outline>
</glyph>
<glyph name="Uogonek" format="2">
  <advance width="1200"/>
  <unicode hex="0172"/>
  <outline>
    <contour>
      <point x="806" y="13" type="curve"/>
      <point x="762" y="40" type="line"/>
      <point x="562" y="30" type="line"/>
      <point x="562" y="-40" type="line"/>
      <point x="477" y="-64"/>
      <point x="428" y="-134"/>
      <point x="428" y="-232" type="curve" smooth="yes"/>
      <point x="428" y="-354"/>
      <point x="515" y="-424"/>
      <point x="668" y="-424" type="curve" smooth="yes"/>
      <point x="694" y="-424"/>
      <point x="724" y="-421"/>
      <point x="758" y="-415" type="curve"/>
      <point x="776" y="-245" type="line"/>
      <point x="743" y="-253"/>
      <point x="716" y="-256"/>
      <point x="694" y="-256" type="curve" smooth="yes"/>
      <point x="601" y="-256"/>
      <point x="578" y="-203"/>
      <point x="578" y="-168" type="curve" smooth="yes"/>
      <point x="578" y="-52"/>
      <point x="702" y="-21"/>
    </contour>
    <component base="U"/>
  </outline>
</glyph>
<glyph name="uogonek" format="2">
  <advance width="1200"/>
  <unicode hex="0173"/>
  <outline>
    <contour>
      <point x="1157" y="0" type="curve"/>
      <point x="1137" y="32" type="line"/>
      <point x="917" y="30" type="line"/>
      <point x="917" y="-40" type="line"/>
      <point x="832" y="-66"/>
      <point x="783" y="-139"/>
      <point x="783" y="-242" type="curve" smooth="yes"/>
      <point x="783" y="-358"/>
      <point x="870" y="-424"/>
      <point x="1023" y="-424" type="curve" smooth="yes"/>
      <point x="1060" y="-424"/>
      <point x="1107" y="-419"/>
      <point x="1151" y="-410" type="curve"/>
      <point x="1151" y="-240" type="line"/>
      <point x="1114" y="-250"/>
      <point x="1077" y="-256"/>
      <point x="1049" y="-256" type="curve" smooth="yes"/>
      <point x="975" y="-256"/>
      <point x="933" y="-224"/>
      <point x="933" y="-168" type="curve" smooth="yes"/>
      <point x="933" y="-61"/>
      <point x="1015" y="0"/>
    </contour>
    <component base="u"/>
  </outline>
</glyph>
<glyph name="longs" format="2">
  <advance width="1200"/>
  <unicode hex="017F"/>
  <anchor x="508" y="0" name="bottom"/>
  <anchor x="740" y="1568" name="top"/>
  <outline>
    <contour>
      <point x="422" y="0" type="line"/>
      <point x="634" y="0" type="line"/>
      <point x="634" y="980" type="line" smooth="yes"/>
      <point x="634" y="1214"/>
      <point x="718" y="1330"/>
      <point x="888" y="1330" type="curve" smooth="yes"/>
      <point x="951" y="1330"/>
      <point x="1014" y="1326"/>
      <point x="1102" y="1316" type="curve"/>
      <point x="1124" y="1500" type="line"/>
      <point x="1047" y="1514"/>
      <point x="978" y="1520"/>
      <point x="894" y="1520" type="curve" smooth="yes"/>
      <point x="578" y="1520"/>
      <point x="422" y="1338"/>
      <point x="422" y="970" type="curve" smooth="yes"/>
    </contour>
    <contour>
      <point x="68" y="644" type="line"/>
      <point x="568" y="644" type="line"/>
      <point x="568" y="820" type="line"/>
      <point x="68" y="820" type="line"/>
    </contour>
  </outline>
</glyph>
<glyph name="Oopen" format="2">
  <advance width="1200"/>
  <unicode hex="0186"/>
  <outline>
    <contour>
      <point x="476" y="-20" type="curve" smooth="yes"/>
      <point x="894" y="-20"/>
      <point x="1104" y="256"/>
      <point x="1104" y="713" type="curve" smooth="yes"/>
      <point x="1104" y="1183"/>
      <point x="882" y="1440"/>
      <point x="455" y="1440" type="curve" smooth="yes"/>
      <point x="325" y="1440"/>
      <point x="204" y="1418"/>
      <point x="86" y="1372" type="curve"/>
      <point x="132" y="1196" type="line"/>
      <point x="226" y="1236"/>
      <point x="319" y="1256"/>
      <point x="421" y="1256" type="curve" smooth="yes"/>
      <point x="735" y="1256"/>
      <point x="897" y="1055"/>
      <point x="897" y="705" type="curve" smooth="yes"/>
      <point x="897" y="367"/>
      <point x="745" y="164"/>
      <point x="487" y="164" type="curve" smooth="yes"/>
      <point x="356" y="164"/>
      <point x="279" y="194"/>
      <point x="161" y="292" type="curve"/>
      <point x="17" y="151" type="line"/>
      <point x="136" y="37"/>
      <point x="296" y="-20"/>
    </contour>
  </outline>
</glyph>
<glyph name="Ereversed" format="2">
  <advance width="1200"/>
  <unicode hex="018E"/>
  <anchor x="570" y="0" name="bottom"/>
  <anchor x="120" y="10" name="ogonek"/>
  <anchor x="570" y="1420" name="top"/>
  <anchor x="1180" y="1420" name="topright"/>
  <outline>
    <contour>
      <point x="1040" y="0" type="line"/>
      <point x="1040" y="1420" type="line"/>
      <point x="840" y="1420" type="line"/>
      <point x="840" y="0" type="line"/>
    </contour>
    <contour>
      <point x="1040" y="0" type="line"/>
      <point x="1040" y="190" type="line"/>
      <point x="100" y="190" type="line"/>
      <point x="100" y="0" type="line"/>
    </contour>
    <contour>
      <point x="1040" y="616" type="line"/>
      <point x="1040" y="806" type="line"/>
      <point x="280" y="806" type="line"/>
      <point x="280" y="616" type="line"/>
    </contour>
    <contour>
      <point x="1040" y="1230" type="line"/>
      <point x="1040" y="1420" type="line"/>
      <point x="100" y="1420" type="line"/>
      <point x="100" y="1230" type="line"/>
    </contour>
  </outline>
</glyph>
<glyph name="Schwa" format="2">
  <advance width="1200"/>
  <unicode hex="018F"/>
  <outline>
    <contour>
      <point x="600" y="-20" type="curve" smooth="yes"/>
      <point x="948" y="-20"/>
      <point x="1124" y="218"/>
      <point x="1124" y="700" type="curve" smooth="yes"/>
      <point x="1124" y="1194"/>
      <point x="914" y="1440"/>
      <point x="500" y="1440" type="curve" smooth="yes"/>
      <point x="385" y="1440"/>
      <point x="273" y="1425"/>
      <point x="168" y="1394" type="curve"/>
      <point x="196" y="1217" type="line"/>
      <point x="290" y="1243"/>
      <point x="393" y="1256"/>
      <point x="500" y="1256" type="curve" smooth="yes"/>
      <point x="776" y="1256"/>
      <point x="914" y="1072"/>
      <point x="914" y="700" type="curve" smooth="yes"/>
      <point x="914" y="342"/>
      <point x="809" y="164"/>
      <point x="600" y="164" type="curve" smooth="yes"/>
      <point x="391" y="164"/>
      <point x="286" y="335"/>
      <point x="286" y="680" type="curve" smooth="yes"/>
      <point x="286" y="716"/>
      <point x="287" y="749"/>
      <point x="289" y="782" type="curve"/>
      <point x="80" y="798" type="line"/>
      <point x="77" y="761"/>
      <point x="76" y="721"/>
      <point x="76" y="680" type="curve" smooth="yes"/>
      <point x="76" y="211"/>
      <point x="252" y="-20"/>
    </contour>
    <contour>
      <point x="80" y="608" type="line"/>
      <point x="1021" y="608" type="line"/>
      <point x="1021" y="798" type="line"/>
      <point x="80" y="798" type="line"/>
    </contour>
  </outline>
</glyph>
<glyph name="Eopen" format="2">
  <advance width="1200"/>
  <unicode hex="0190"/>
  <anchor x="680" y="0" name="bottom"/>
  <anchor x="680" y="1420" name="top"/>
  <outline>
    <contour>
      <point x="690" y="1440" type="curve" smooth="yes"/>
      <point x="333" y="1440"/>
      <point x="184" y="1300"/>
      <point x="184" y="1093" type="curve" smooth="yes"/>
      <point x="184" y="923"/>
      <point x="288" y="799"/>
      <point x="546" y="763" type="curve"/>
      <point x="529" y="819" type="line"/>
      <point x="529" y="702" type="line"/>
      <point x="546" y="756" type="line"/>
      <point x="328" y="752"/>
      <point x="128" y="628"/>
      <point x="128" y="394" type="curve" smooth="yes"/>
      <point x="128" y="143"/>
      <point x="338" y="-20"/>
      <point x="674" y="-20" type="curve" smooth="yes"/>
      <point x="872" y="-20"/>
      <point x="972" y="-4"/>
      <point x="1100" y="48" type="curve"/>
      <point x="1054" y="222" type="line"/>
      <point x="909" y="176"/>
      <point x="832" y="164"/>
      <point x="669" y="164" type="curve" smooth="yes"/>
      <point x="461" y="164"/>
      <point x="336" y="258"/>
      <point x="336" y="415" type="curve" smooth="yes"/>
      <point x="336" y="567"/>
      <point x="469" y="652"/>
      <point x="666" y="652" type="curve" smooth="yes"/>
      <point x="816" y="652" type="line"/>
      <point x="838" y="840" type="line"/>
      <point x="515" y="850"/>
      <point x="388" y="916"/>
      <point x="388" y="1058" type="curve" smooth="yes"/>
      <point x="388" y="1170"/>
      <point x="475" y="1256"/>
      <point x="691" y="1256" type="curve" smooth="yes"/>
      <point x="816" y="1256"/>
      <point x="918" y="1207"/>
      <point x="977" y="1114" type="curve"/>
      <point x="1125" y="1261" type="line"/>
      <point x="1055" y="1375"/>
      <point x="907" y="1440"/>
    </contour>
  </outline>
</glyph>
<glyph name="Fhook" format="2">
  <advance width="1200"/>
  <unicode hex="0191"/>
  <anchor x="660" y="-388" name="bottom"/>
  <outline>
    <contour>
      <point x="-36" y="-476" type="line"/>
      <point x="44" y="-468" type="line" smooth="yes"/>
      <point x="262" y="-446"/>
      <point x="388" y="-318"/>
      <point x="388" y="-96" type="curve" smooth="yes"/>
      <point x="388" y="184" type="line"/>
      <point x="180" y="184" type="line"/>
      <point x="180" y="-79" type="line" smooth="yes"/>
      <point x="180" y="-193"/>
      <point x="127" y="-249"/>
      <point x="24" y="-265" type="curve" smooth="yes"/>
      <point x="-46" y="-276" type="line"/>
    </contour>
    <component base="F"/>
  </outline>
</glyph>
<glyph name="florin" format="2">
  <advance width="1200"/>
  <unicode hex="0192"/>
  <outline>
    <contour>
      <point x="422" y="360" type="line"/>
      <point x="634" y="360" type="line"/>
      <point x="634" y="900" type="line" smooth="yes"/>
      <point x="634" y="1134"/>
      <point x="728" y="1250"/>
      <point x="918" y="1250" type="curve" smooth="yes"/>
      <point x="978" y="1250"/>
      <point x="1038" y="1246"/>
      <point x="1122" y="1236" type="curve"/>
      <point x="1144" y="1420" type="line"/>
      <point x="1070" y="1434"/>
      <point x="1004" y="1440"/>
      <point x="924" y="1440" type="curve" smooth="yes"/>
      <point x="588" y="1440"/>
      <point x="422" y="1258"/>
      <point x="422" y="890" type="curve" smooth="yes"/>
    </contour>
    <contour>
      <point x="98" y="-477" type="line"/>
      <point x="176" y="-468" type="line" smooth="yes"/>
      <point x="495" y="-431"/>
      <point x="634" y="-284"/>
      <point x="634" y="94" type="curve" smooth="yes"/>
      <point x="634" y="384" type="line"/>
      <point x="422" y="384" type="line"/>
      <point x="422" y="62" type="line" smooth="yes"/>
      <point x="422" y="-156"/>
      <point x="353" y="-252"/>
      <point x="196" y="-274" type="curve" smooth="yes"/>
      <point x="88" y="-289" type="line"/>
    </contour>
    <contour>
      <point x="88" y="564" type="line"/>
      <point x="1068" y="564" type="line"/>
      <point x="1068" y="738" type="line"/>
      <point x="88" y="738" type="line"/>
    </contour>
  </outline>
</glyph>
<glyph name="Gammaafrican" format="2">
  <advance width="1200"/>
  <unicode hex="0194"/>
  <anchor x="600" y="-400" name="bottom"/>
  <anchor x="600" y="1420" name="top"/>
  <outline>
    <contour>
      <point x="600" y="-462" type="line"/>
      <point x="806" y="-462"/>
      <point x="926" y="-370"/>
      <point x="926" y="-206" type="curve" smooth="yes"/>
      <point x="926" y="-105"/>
      <point x="876" y="-7"/>
      <point x="711" y="111" type="curve"/>
      <point x="566" y="66" type="line"/>
      <point x="682" y="-57"/>
      <point x="716" y="-110"/>
      <point x="716" y="-162" type="curve" smooth="yes"/>
      <point x="716" y="-232"/>
      <point x="676" y="-272"/>
      <point x="600" y="-272" type="curve"/>
    </contour>
    <contour>
      <point x="600" y="-462" type="curve"/>
      <point x="600" y="-272" type="line"/>
      <point x="524" y="-272"/>
      <point x="484" y="-232"/>
      <point x="484" y="-162" type="curve" smooth="yes"/>
      <point x="484" y="-110"/>
      <point x="518" y="-57"/>
      <point x="634" y="66" type="curve"/>
      <point x="489" y="111" type="line"/>
      <point x="324" y="-7"/>
      <point x="274" y="-105"/>
      <point x="274" y="-206" type="curve" smooth="yes"/>
      <point x="274" y="-370"/>
      <point x="394" y="-462"/>
    </contour>
    <contour>
      <point x="445" y="0" type="line"/>
      <point x="599" y="56" type="line"/>
      <point x="755" y="0" type="line"/>
      <point x="1155" y="1420" type="line"/>
      <point x="941" y="1420" type="line"/>
      <point x="609" y="170" type="line"/>
      <point x="591" y="170" type="line"/>
      <point x="259" y="1420" type="line"/>
      <point x="45" y="1420" type="line"/>
    </contour>
  </outline>
</glyph>
<glyph name="lbar" format="2">
  <advance width="1200"/>
  <unicode hex="019A"/>
  <outline>
    <contour>
      <point x="98" y="647" type="line"/>
      <point x="934" y="647" type="line"/>
      <point x="934" y="837" type="line"/>
      <point x="98" y="837" type="line"/>
    </contour>
    <component base="l"/>
  </outline>
</glyph>
<glyph name="lambdastroke" format="2">
  <advance width="1200"/>
  <unicode hex="019B"/>
  <outline>
    <contour>
      <point x="138" y="897" type="line"/>
      <point x="1004" y="1177" type="line"/>
      <point x="964" y="1352" type="line"/>
      <point x="98" y="1072" type="line"/>
    </contour>
    <component base="lambda"/>
  </outline>
</glyph>
<glyph name="Nhookleft" format="2">
  <advance width="1200"/>
  <unicode hex="019D"/>
  <anchor x="600" y="0" name="bottom"/>
  <anchor x="600" y="1420" name="top"/>
  <outline>
    <contour>
      <point x="-118" y="-480" type="line"/>
      <point x="12" y="-468" type="line" smooth="yes"/>
      <point x="221" y="-452"/>
      <point x="341" y="-316"/>
      <point x="341" y="-96" type="curve" smooth="yes"/>
      <point x="341" y="184" type="line"/>
      <point x="148" y="184" type="line"/>
      <point x="148" y="-88" type="line" smooth="yes"/>
      <point x="148" y="-214"/>
      <point x="96" y="-282"/>
      <point x="-8" y="-294" type="curve" smooth="yes"/>
      <point x="-128" y="-312" type="line"/>
    </contour>
    <component base="N"/>
  </outline>
</glyph>
<glyph name="Uhorn" format="2">
  <advance width="1200"/>
  <unicode hex="01AF"/>
  <anchor x="600" y="0" name="bottom"/>
  <anchor x="1080" y="10" name="ogonek"/>
  <anchor x="600" y="1420" name="top"/>
  <anchor x="1180" y="1420" name="topright"/>
  <outline>
    <contour>
      <point x="911" y="1255" type="line"/>
      <point x="971" y="1265" type="line" smooth="yes"/>
      <point x="1189" y="1301"/>
      <point x="1298" y="1428"/>
      <point x="1298" y="1653" type="curve"/>
      <point x="1106" y="1653" type="line"/>
      <point x="1106" y="1523"/>
      <point x="1045" y="1451"/>
      <point x="921" y="1430" type="curve" smooth="yes"/>
      <point x="861" y="1420" type="line"/>
    </contour>
    <component base="U"/>
  </outline>
</glyph>
<glyph name="uhorn" format="2">
  <advance width="1200"/>
  <unicode hex="01B0"/>
  <anchor x="560" y="0" name="bottom"/>
  <anchor x="1070" y="10" name="ogonek"/>
  <anchor x="580" y="1060" name="top"/>
  <anchor x="1110" y="1060" name="topright"/>
  <outline>
    <contour>
      <point x="841" y="895" type="line"/>
      <point x="881" y="905" type="line" smooth="yes"/>
      <point x="1124" y="966"/>
      <point x="1228" y="1097"/>
      <point x="1228" y="1343" type="curve"/>
      <point x="1008" y="1343" type="line"/>
      <point x="1008" y="1183"/>
      <point x="955" y="1101"/>
      <point x="831" y="1070" type="curve" smooth="yes"/>
      <point x="791" y="1060" type="line"/>
    </contour>
    <component base="u"/>
  </outline>
</glyph>
<glyph name="Upsilonafrican" format="2">
  <advance width="1200"/>
  <unicode hex="01B1"/>
  <anchor x="600" y="0" name="bottom"/>
  <anchor x="600" y="1420" name="top"/>
  <outline>
    <contour>
      <point x="350" y="1293" type="line"/>
      <point x="350" y="1217" type="line"/>
      <point x="167" y="1157"/>
      <point x="76" y="965"/>
      <point x="76" y="640" type="curve" smooth="yes"/>
      <point x="76" y="220"/>
      <point x="267" y="-20"/>
      <point x="600" y="-20" type="curve" smooth="yes"/>
      <point x="933" y="-20"/>
      <point x="1124" y="220"/>
      <point x="1124" y="640" type="curve" smooth="yes"/>
      <point x="1124" y="970"/>
      <point x="1041" y="1161"/>
      <point x="874" y="1214" type="curve"/>
      <point x="874" y="1285" type="line"/>
      <point x="694" y="1234" type="line"/>
      <point x="841" y="1179"/>
      <point x="914" y="981"/>
      <point x="914" y="640" type="curve" smooth="yes"/>
      <point x="914" y="337"/>
      <point x="800" y="164"/>
      <point x="600" y="164" type="curve" smooth="yes"/>
      <point x="400" y="164"/>
      <point x="286" y="337"/>
      <point x="286" y="640" type="curve" smooth="yes"/>
      <point x="286" y="975"/>
      <point x="367" y="1173"/>
      <point x="530" y="1234" type="curve"/>
    </contour>
    <contour>
      <point x="104" y="1420" type="line"/>
      <point x="104" y="1234" type="line"/>
      <point x="530" y="1234" type="line"/>
      <point x="530" y="1420" type="line"/>
    </contour>
    <contour>
      <point x="694" y="1420" type="line"/>
      <point x="694" y="1234" type="line"/>
      <point x="1096" y="1234" type="line"/>
      <point x="1096" y="1420" type="line"/>
    </contour>
  </outline>
</glyph>
<glyph name="Vhook" format="2">
  <advance width="1200"/>
  <unicode hex="01B2"/>
  <anchor x="600" y="0" name="bottom"/>
  <anchor x="1080" y="10" name="ogonek"/>
  <anchor x="600" y="1420" name="top"/>
  <anchor x="1180" y="1420" name="topright"/>
  <outline>
    <contour>
      <point x="628" y="1420" type="line"/>
      <point x="628" y="1230" type="line"/>
      <point x="716" y="1230" type="line" smooth="yes"/>
      <point x="822" y="1230"/>
      <point x="860" y="1188"/>
      <point x="860" y="1070" type="curve" smooth="yes"/>
      <point x="860" y="456" type="line" smooth="yes"/>
      <point x="860" y="266"/>
      <point x="772" y="170"/>
      <point x="600" y="170" type="curve" smooth="yes"/>
      <point x="420" y="170"/>
      <point x="340" y="266"/>
      <point x="340" y="456" type="curve" smooth="yes"/>
      <point x="340" y="1420" type="line"/>
      <point x="140" y="1420" type="line"/>
      <point x="140" y="456" type="line" smooth="yes"/>
      <point x="140" y="138"/>
      <point x="292" y="-20"/>
      <point x="596" y="-20" type="curve" smooth="yes"/>
      <point x="900" y="-20"/>
      <point x="1060" y="138"/>
      <point x="1060" y="456" type="curve" smooth="yes"/>
      <point x="1060" y="1120" type="line" smooth="yes"/>
      <point x="1060" y="1341"/>
      <point x="980" y="1420"/>
      <point x="756" y="1420" type="curve" smooth="yes"/>
    </contour>
  </outline>
</glyph>
<glyph name="Ezh" format="2">
  <advance width="1200"/>
  <unicode hex="01B7"/>
  <outline>
    <contour>
      <point x="526" y="-20" type="curve" smooth="yes"/>
      <point x="862" y="-20"/>
      <point x="1072" y="147"/>
      <point x="1072" y="404" type="curve" smooth="yes"/>
      <point x="1072" y="667"/>
      <point x="880" y="821"/>
      <point x="544" y="826" type="curve"/>
      <point x="544" y="783" type="line"/>
      <point x="1006" y="1219" type="line"/>
      <point x="1006" y="1420" type="line"/>
      <point x="153" y="1420" type="line"/>
      <point x="153" y="1234" type="line"/>
      <point x="830" y="1234" type="line"/>
      <point x="831" y="1295" type="line"/>
      <point x="309" y="796" type="line"/>
      <point x="329" y="672" type="line"/>
      <point x="464" y="672" type="line" smooth="yes"/>
      <point x="718" y="672"/>
      <point x="864" y="582"/>
      <point x="864" y="425" type="curve" smooth="yes"/>
      <point x="864" y="262"/>
      <point x="739" y="164"/>
      <point x="531" y="164" type="curve" smooth="yes"/>
      <point x="397" y="164"/>
      <point x="319" y="200"/>
      <point x="208" y="292" type="curve"/>
      <point x="64" y="151" type="line"/>
      <point x="183" y="37"/>
      <point x="334" y="-20"/>
    </contour>
  </outline>
</glyph>
<glyph name="Gstroke" format="2">
  <advance width="1200"/>
  <unicode hex="01E4"/>
  <anchor x="715" y="0" name="bottom"/>
  <anchor x="695" y="1420" name="top"/>
  <outline>
    <contour>
      <point x="732" y="-20" type="curve" smooth="yes"/>
      <point x="903" y="-20"/>
      <point x="1047" y="22"/>
      <point x="1100" y="40" type="curve"/>
      <point x="1022" y="214" type="line"/>
      <point x="964" y="196"/>
      <point x="873" y="164"/>
      <point x="756" y="164" type="curve" smooth="yes"/>
      <point x="460" y="164"/>
      <point x="310" y="350"/>
      <point x="310" y="722" type="curve" smooth="yes"/>
      <point x="310" y="1062"/>
      <point x="467" y="1256"/>
      <point x="736" y="1256" type="curve" smooth="yes"/>
      <point x="842" y="1256"/>
      <point x="939" y="1204"/>
      <point x="1001" y="1114" type="curve"/>
      <point x="1150" y="1262" type="line"/>
      <point x="1079" y="1375"/>
      <point x="923" y="1440"/>
      <point x="724" y="1440" type="curve" smooth="yes"/>
      <point x="326" y="1440"/>
      <point x="96" y="1174"/>
      <point x="96" y="712" type="curve" smooth="yes"/>
      <point x="96" y="224"/>
      <point x="308" y="-20"/>
    </contour>
    <contour>
      <point x="910" y="40" type="line"/>
      <point x="1100" y="40" type="line"/>
      <point x="1100" y="710" type="line"/>
      <point x="910" y="710" type="line"/>
    </contour>
    <contour>
      <point x="640" y="370" type="line"/>
      <point x="1200" y="370" type="line"/>
      <point x="1200" y="560" type="line"/>
      <point x="640" y="560" type="line"/>
    </contour>
  </outline>
</glyph>
<glyph name="gstroke" format="2">
  <advance width="1200"/>
  <unicode hex="01E5"/>
  <outline>
    <contour>
      <point x="44" y="-193" type="line"/>
      <point x="1156" y="-193" type="line"/>
      <point x="1156" y="-85" type="line"/>
      <point x="44" y="-85" type="line"/>
    </contour>
    <component base="g"/>
  </outline>
</glyph>
<glyph name="Oogonek" format="2">
  <advance width="1200"/>
  <unicode hex="01EA"/>
  <outline>
    <contour>
      <point x="786" y="8" type="curve"/>
      <point x="742" y="40" type="line"/>
      <point x="542" y="30" type="line"/>
      <point x="542" y="-40" type="line"/>
      <point x="457" y="-64"/>
      <point x="408" y="-134"/>
      <point x="408" y="-232" type="curve" smooth="yes"/>
      <point x="408" y="-354"/>
      <point x="495" y="-424"/>
      <point x="648" y="-424" type="curve" smooth="yes"/>
      <point x="674" y="-424"/>
      <point x="704" y="-421"/>
      <point x="738" y="-415" type="curve"/>
      <point x="756" y="-245" type="line"/>
      <point x="723" y="-253"/>
      <point x="696" y="-256"/>
      <point x="674" y="-256" type="curve" smooth="yes"/>
      <point x="581" y="-256"/>
      <point x="558" y="-203"/>
      <point x="558" y="-168" type="curve" smooth="yes"/>
      <point x="558" y="-55"/>
      <point x="682" y="-27"/>
    </contour>
    <component base="O"/>
  </outline>
</glyph>
<glyph name="oogonek" format="2">
  <advance width="1200"/>
  <unicode hex="01EB"/>
  <outline>
    <contour>
      <point x="783" y="11" type="curve"/>
      <point x="763" y="36" type="line"/>
      <point x="543" y="30" type="line"/>
      <point x="543" y="-40" type="line"/>
      <point x="458" y="-64"/>
      <point x="409" y="-134"/>
      <point x="409" y="-232" type="curve" smooth="yes"/>
      <point x="409" y="-354"/>
      <point x="496" y="-424"/>
      <point x="649" y="-424" type="curve" smooth="yes"/>
      <point x="675" y="-424"/>
      <point x="705" y="-421"/>
      <point x="739" y="-415" type="curve"/>
      <point x="757" y="-245" type="line"/>
      <point x="724" y="-253"/>
      <point x="697" y="-256"/>
      <point x="675" y="-256" type="curve" smooth="yes"/>
      <point x="582" y="-256"/>
      <point x="559" y="-203"/>
      <point x="559" y="-168" type="curve" smooth="yes"/>
      <point x="559" y="-54"/>
      <point x="681" y="-18"/>
    </contour>
    <component base="o"/>
  </outline>
</glyph>
<glyph name="Astroke" format="2">
  <advance width="1200"/>
  <unicode hex="023A"/>
  <anchor x="600" y="-388" name="bottom"/>
  <anchor x="600" y="1500" name="top"/>
  <outline>
    <contour>
      <point x="513" y="-330" type="line"/>
      <point x="651" y="452" type="line"/>
      <point x="658" y="492" type="line"/>
      <point x="750" y="1014" type="line"/>
      <point x="770" y="1131" type="line"/>
      <point x="869" y="1692" type="line"/>
      <point x="733" y="1716" type="line"/>
      <point x="661" y="1307" type="line"/>
      <point x="653" y="1263" type="line"/>
      <point x="519" y="496" type="line"/>
      <point x="509" y="441" type="line"/>
      <point x="377" y="-306" type="line"/>
    </contour>
    <component base="A"/>
  </outline>
</glyph>
<glyph name="Cstroke" format="2">
  <advance width="1200"/>
  <unicode hex="023B"/>
  <anchor x="675" y="0" name="bottom"/>
  <anchor x="705" y="1420" name="top"/>
  <outline>
    <contour>
      <point x="573" y="-330" type="line"/>
      <point x="929" y="1692" type="line"/>
      <point x="793" y="1716" type="line"/>
      <point x="437" y="-306" type="line"/>
    </contour>
    <component base="C"/>
  </outline>
</glyph>
<glyph name="Lbar" format="2">
  <advance width="1200"/>
  <unicode hex="023D"/>
  <outline>
    <contour>
      <point x="-20" y="647" type="line"/>
      <point x="816" y="647" type="line"/>
      <point x="816" y="837" type="line"/>
      <point x="-20" y="837" type="line"/>
    </contour>
    <component base="L"/>
  </outline>
</glyph>
<glyph name="Tdiagonalstroke" format="2">
  <advance width="1200"/>
  <unicode hex="023E"/>
  <anchor x="595" y="0" name="bottom"/>
  <anchor x="600" y="710" name="center"/>
  <anchor x="600" y="1420" name="top"/>
  <outline>
    <contour>
      <point x="373" y="-330" type="line"/>
      <point x="1129" y="1692" type="line"/>
      <point x="993" y="1716" type="line"/>
      <point x="237" y="-306" type="line"/>
    </contour>
    <component base="T"/>
  </outline>
</glyph>
<glyph name="oopen" format="2">
  <advance width="1200"/>
  <unicode hex="0254"/>
  <anchor x="600" y="0" name="bottom"/>
  <anchor x="600" y="1060" name="top"/>
  <outline>
    <contour>
      <point x="526" y="-20" type="curve" smooth="yes"/>
      <point x="871" y="-20"/>
      <point x="1064" y="182"/>
      <point x="1064" y="528" type="curve" smooth="yes"/>
      <point x="1064" y="884"/>
      <point x="859" y="1080"/>
      <point x="498" y="1080" type="curve" smooth="yes"/>
      <point x="367" y="1080"/>
      <point x="283" y="1068"/>
      <point x="180" y="1033" type="curve"/>
      <point x="212" y="849" type="line"/>
      <point x="314" y="879"/>
      <point x="384" y="890"/>
      <point x="474" y="890" type="curve" smooth="yes"/>
      <point x="717" y="890"/>
      <point x="854" y="760"/>
      <point x="854" y="518" type="curve" smooth="yes"/>
      <point x="854" y="296"/>
      <point x="736" y="170"/>
      <point x="534" y="170" type="curve" smooth="yes"/>
      <point x="411" y="170"/>
      <point x="303" y="213"/>
      <point x="236" y="263" type="curve"/>
      <point x="132" y="103" type="line"/>
      <point x="211" y="34"/>
      <point x="354" y="-20"/>
    </contour>
  </outline>
</glyph>
<glyph name="dtail" format="2">
  <advance width="1200"/>
  <unicode hex="0256"/>
  <anchor x="540" y="0" name="bottom"/>
  <anchor x="600" y="530" name="center"/>
  <anchor x="926" y="1500" name="top"/>
  <anchor x="1157" y="1060" name="topright"/>
  <outline>
    <contour>
      <point x="519" y="-20" type="curve" smooth="yes"/>
      <point x="679" y="-20"/>
      <point x="782" y="59"/>
      <point x="795" y="192" type="curve"/>
      <point x="892" y="192" type="line"/>
      <point x="820" y="494" type="line"/>
      <point x="820" y="275"/>
      <point x="733" y="160"/>
      <point x="566" y="160" type="curve" smooth="yes"/>
      <point x="395" y="160"/>
      <point x="306" y="283"/>
      <point x="306" y="520" type="curve" smooth="yes"/>
      <point x="306" y="770"/>
      <point x="395" y="900"/>
      <point x="566" y="900" type="curve" smooth="yes"/>
      <point x="733" y="900"/>
      <point x="820" y="785"/>
      <point x="820" y="566" type="curve"/>
      <point x="882" y="868" type="line"/>
      <point x="800" y="868" type="line"/>
      <point x="783" y="1001"/>
      <point x="678" y="1080"/>
      <point x="519" y="1080" type="curve" smooth="yes"/>
      <point x="241" y="1080"/>
      <point x="96" y="888"/>
      <point x="96" y="520" type="curve" smooth="yes"/>
      <point x="96" y="165"/>
      <point x="241" y="-20"/>
    </contour>
    <contour>
      <point x="1305" y="-469" type="line"/>
      <point x="1315" y="-281" type="line"/>
      <point x="1268" y="-274" type="line" smooth="yes"/>
      <point x="1102" y="-249"/>
      <point x="1032" y="-156"/>
      <point x="1032" y="62" type="curve" smooth="yes"/>
      <point x="1032" y="444" type="line"/>
      <point x="820" y="444" type="line"/>
      <point x="820" y="94" type="line" smooth="yes"/>
      <point x="820" y="-284"/>
      <point x="960" y="-449"/>
      <point x="1288" y="-468" type="curve" smooth="yes"/>
    </contour>
    <contour>
      <point x="820" y="300" type="line"/>
      <point x="1032" y="300" type="line"/>
      <point x="1032" y="1500" type="line"/>
      <point x="820" y="1500" type="line"/>
    </contour>
  </outline>
</glyph>
<glyph name="schwa" format="2">
  <advance width="1200"/>
  <unicode hex="0259"/>
  <anchor x="590" y="0" name="bottom"/>
  <anchor x="570" y="1060" name="top"/>
  <outline>
    <contour>
      <point x="586" y="-20" type="curve" smooth="yes"/>
      <point x="890" y="-20"/>
      <point x="1064" y="182"/>
      <point x="1064" y="528" type="curve" smooth="yes"/>
      <point x="1064" y="884"/>
      <point x="860" y="1080"/>
      <point x="498" y="1080" type="curve" smooth="yes"/>
      <point x="418" y="1080"/>
      <point x="314" y="1073"/>
      <point x="188" y="1032" type="curve"/>
      <point x="214" y="856" type="line"/>
      <point x="302" y="880"/>
      <point x="386" y="894"/>
      <point x="474" y="894" type="curve" smooth="yes"/>
      <point x="726" y="894"/>
      <point x="868" y="764"/>
      <point x="868" y="518" type="curve" smooth="yes"/>
      <point x="868" y="294"/>
      <point x="764" y="166"/>
      <point x="584" y="166" type="curve" smooth="yes"/>
      <point x="424" y="166"/>
      <point x="328" y="272"/>
      <point x="328" y="462" type="curve"/>
      <point x="886" y="462" type="line"/>
      <point x="886" y="624" type="line"/>
      <point x="142" y="624" type="line"/>
      <point x="138" y="582"/>
      <point x="136" y="538"/>
      <point x="136" y="488" type="curve" smooth="yes"/>
      <point x="136" y="158"/>
      <point x="300" y="-20"/>
    </contour>
  </outline>
</glyph>
